<svg width="595" height="305" viewBox="0 0 595 305" fill="none" xmlns="http://www.w3.org/2000/svg">
<path d="M0 142.5L595 0L576 304.5H22L0 142.5Z" fill="#FFEBCD"/>
<g clip-path="url(#clip0_75_7)">
<path d="M308.075 128.187C312.675 130.667 316.287 134.762 317.857 139.817C318.092 140.575 317.955 141.402 317.482 142.042C317.01 142.682 316.265 143.06 315.47 143.06H280.472C279.677 143.06 278.93 142.682 278.46 142.042C277.99 141.402 277.85 140.577 278.085 139.817C279.66 134.752 283.282 130.652 287.895 128.172C289.077 127.537 290.547 127.802 291.407 128.835L296.28 134.68C297.17 135.747 298.81 135.747 299.7 134.68L304.56 128.847C305.42 127.815 306.892 127.55 308.075 128.187ZM319.63 89.5599L303.47 83.8574C300 82.6299 296.18 82.6274 292.712 83.8424L276.355 89.5674C274.31 90.2824 272.99 92.1424 272.99 94.3074C272.99 96.4749 274.312 98.3349 276.357 99.0474L292.625 104.722C294.347 105.322 296.16 105.625 297.97 105.625C299.78 105.625 301.59 105.322 303.312 104.722L317.972 99.6099V110.557C317.972 111.937 319.092 113.057 320.472 113.057C321.852 113.057 322.972 111.937 322.972 110.557C322.972 110.557 322.982 94.3249 322.982 94.3024C322.985 92.1399 321.67 90.2774 319.632 89.5574L319.63 89.5599ZM312.97 106.65L304.957 109.445C300.462 111.012 295.475 111.012 290.977 109.445L282.97 106.65V108.057C282.97 116.33 289.697 123.057 297.97 123.057C306.242 123.057 312.97 116.33 312.97 108.057V106.647V106.65Z" fill="#00008B"/>
</g>
<defs>
<clipPath id="clip0_75_7">
<rect width="60" height="60" fill="white" transform="translate(267.99 82.9349)"/>
</clipPath>
</defs>
</svg>
