<svg width="297" height="152" viewBox="0 0 297 152" fill="none" xmlns="http://www.w3.org/2000/svg">
<path d="M0 71.1302L297 0L287.516 151.994H10.9815L0 71.1302Z" fill="#FFEBCD"/>
<path d="M152.545 64.6301C154.845 65.8703 156.652 67.9181 157.437 70.446C157.555 70.8248 157.486 71.2386 157.25 71.5587C157.013 71.8787 156.641 72.0675 156.243 72.0675H138.742C138.344 72.0675 137.97 71.8787 137.735 71.5587C137.5 71.2386 137.43 70.8261 137.548 70.446C138.336 67.9131 140.147 65.8628 142.454 64.6226C143.045 64.3051 143.78 64.4376 144.21 64.9539L146.647 67.8769C147.092 68.4107 147.912 68.4107 148.357 67.8769L150.787 64.9602C151.217 64.4438 151.954 64.3113 152.545 64.6301ZM158.323 45.3135L150.242 42.4618C148.507 41.848 146.597 41.8467 144.863 42.4543L136.683 45.3172C135.66 45.6748 135 46.6049 135 47.6876C135 48.7715 135.661 49.7016 136.684 50.0579L144.819 52.8959C145.68 53.1959 146.587 53.3472 147.492 53.3472C148.397 53.3472 149.302 53.1959 150.164 52.8959L157.495 50.3392V55.8138C157.495 56.5039 158.055 57.064 158.745 57.064C159.435 57.064 159.995 56.5039 159.995 55.8138C159.995 55.8138 160 47.6963 160 47.6851C160.001 46.6037 159.344 45.6723 158.325 45.3122L158.323 45.3135ZM154.993 53.8598L150.986 55.2575C148.738 56.0413 146.244 56.0413 143.995 55.2575L139.991 53.8598V54.5636C139.991 58.7005 143.355 62.0647 147.492 62.0647C151.629 62.0647 154.993 58.7005 154.993 54.5636V53.8585V53.8598Z" fill="#00008B"/>
</svg>
