<svg width="299" height="141" viewBox="0 0 299 141" fill="none" xmlns="http://www.w3.org/2000/svg">
<path d="M0 0L284.018 33.0429L298.496 141L23.054 126.118L0 0Z" fill="#FFEBCD"/>
<g clip-path="url(#clip0_137_6)">
<path d="M157.167 33.6667H155.883C155.347 31.0067 152.99 29 150.167 29H147.833C145.022 29 142.665 31.0067 142.117 33.6667H140.833C137.613 33.6667 135 36.28 135 39.5V51.1667C135 54.3867 137.613 57 140.833 57H157.167C160.387 57 163 54.3867 163 51.1667V39.5C163 36.28 160.387 33.6667 157.167 33.6667ZM147.833 31.3333H150.167C151.683 31.3333 152.967 32.3133 153.457 33.6667H144.555C145.033 32.3133 146.317 31.3333 147.845 31.3333H147.833Z" fill="#00008B"/>
</g>
<defs>
<clipPath id="clip0_137_6">
<rect width="28" height="28" fill="white" transform="translate(135 29)"/>
</clipPath>
</defs>
</svg>
