<svg width="592" height="280" viewBox="0 0 592 280" fill="none" xmlns="http://www.w3.org/2000/svg">
<path d="M0.300842 0L563.301 65.5L592 279.5L46 250L0.300842 0Z" fill="#FFEBCD"/>
<g clip-path="url(#clip0_74_6)">
<path d="M314.583 64.8333H312.292C311.333 60.0833 307.125 56.5 302.083 56.5H297.917C292.896 56.5 288.687 60.0833 287.708 64.8333H285.417C279.667 64.8333 275 69.5 275 75.25V96.0833C275 101.833 279.667 106.5 285.417 106.5H314.583C320.333 106.5 325 101.833 325 96.0833V75.25C325 69.5 320.333 64.8333 314.583 64.8333ZM297.917 60.6667H302.083C304.792 60.6667 307.083 62.4167 307.958 64.8333H292.062C292.917 62.4167 295.208 60.6667 297.938 60.6667H297.917Z" fill="#00008B"/>
</g>
<defs>
<clipPath id="clip0_74_6">
<rect width="50" height="50" fill="white" transform="translate(275 56.5)"/>
</clipPath>
</defs>
</svg>
