<svg width="92" height="92" viewBox="0 0 92 92" fill="none" xmlns="http://www.w3.org/2000/svg">
<path d="M90.8296 69.001C91.5515 67.8899 92 66.6379 92 65.5136V26.4879C92 25.3636 91.5521 24.1119 90.8299 23.0007L46 46.0009L90.8296 69.001Z" fill="#FFD495"/>
<path d="M49.9832 91.1568L88.0159 71.6441C89.1115 71.0819 90.1073 70.1113 90.8291 68.9998L45.9995 45.9997L1.16992 69.0001C1.89179 70.1113 2.88786 71.0822 3.98314 71.6441L42.0159 91.1568C44.2067 92.2811 47.7923 92.2811 49.9832 91.1568Z" fill="#FFD495"/>
<path d="M90.83 23.0001C90.1078 21.8887 89.1118 20.9181 88.0165 20.3559L49.9837 0.843199C47.7929 -0.281066 44.2073 -0.281066 42.0164 0.843199L3.98367 20.3559C1.7925 21.4799 0 24.2393 0 26.4876V65.5133C0 66.6376 0.448275 67.8895 1.17045 69.0007L46.0001 46.0006L90.83 23.0001Z" fill="#FFD495"/>
<path d="M45.998 73.253C29.0883 73.253 15.3313 61.0279 15.3313 46.0013C15.3313 30.9747 29.0883 18.7496 45.998 18.7496C56.9093 18.7496 67.0856 23.9675 72.5551 32.3669L59.2833 39.1916C56.5458 34.9874 51.4549 32.3755 45.998 32.3755C37.543 32.3755 30.6647 38.4879 30.6647 46.0013C30.6647 53.5145 37.543 59.6271 45.998 59.6271C51.4555 59.6271 56.5464 57.0153 59.2842 52.8102L72.556 59.6346C67.0865 68.0348 56.9099 73.253 45.998 73.253Z" fill="#00008B"/>
<path d="M76.67 44.4869H73.2624V41.459H69.8554V44.4869H66.4478V47.5148H69.8554V50.5429H73.2624V47.5148H76.67V44.4869Z" fill="#00008B"/>
<path d="M89.4439 44.4869H86.0363V41.459H82.6293V44.4869H79.2217V47.5148H82.6293V50.5429H86.0363V47.5148H89.4439V44.4869Z" fill="#00008B"/>
</svg>
