<svg width="103" height="113" viewBox="0 0 103 113" fill="none" xmlns="http://www.w3.org/2000/svg">
<g clip-path="url(#clip0_268_145)">
<path fill-rule="evenodd" clip-rule="evenodd" d="M48.9539 0.773775C50.7799 -0.250845 53.0281 -0.250845 54.8514 0.773775C63.8739 5.83771 91.0245 21.0806 100.05 26.1445C101.876 27.1665 103 29.0597 103 31.109C103 41.2368 103 71.7199 103 81.8478C103 83.897 101.876 85.7903 100.05 86.8149C91.0272 91.8788 63.8766 107.122 54.8514 112.186C53.0254 113.21 50.7772 113.21 48.9539 112.186C39.9315 107.122 12.7809 91.8788 3.75576 86.8149C1.93245 85.7903 0.80835 83.8997 0.80835 81.8505C0.80835 71.7226 0.80835 41.2395 0.80835 31.1117C0.80835 29.0624 1.93245 27.1692 3.75845 26.1445C12.7782 21.0806 39.9342 5.83771 48.9539 0.773775Z" fill="#FFD495"/>
<path fill-rule="evenodd" clip-rule="evenodd" d="M1.62588 84.4552C0.910541 83.4978 0.80835 82.5888 0.80835 81.3652C0.80835 71.2965 0.80835 40.9882 0.80835 30.9168C0.80835 28.8783 1.92977 26.9958 3.75039 25.9793C12.7406 20.9449 39.7998 5.7908 48.79 0.753758C50.6106 -0.265482 53.0766 -0.243968 54.8973 0.775273C63.8874 5.80962 90.8552 20.8347 99.8454 25.869C100.572 26.2778 101.125 26.7699 101.62 27.4181L1.62588 84.4552Z" fill="#FFD495"/>
<path fill-rule="evenodd" clip-rule="evenodd" d="M51.9041 18.8258C72.684 18.8258 89.5536 35.6957 89.5536 56.4759C89.5536 77.256 72.684 94.1259 51.9041 94.1259C31.1243 94.1259 14.2546 77.256 14.2546 56.4759C14.2546 35.6957 31.1243 18.8258 51.9041 18.8258ZM51.9041 37.6508C62.2927 37.6508 70.7289 46.0844 70.7289 56.4759C70.7289 66.8646 62.2927 75.3009 51.9041 75.3009C41.5156 75.3009 33.0794 66.8646 33.0794 56.4759C33.0794 46.0844 41.5129 37.6508 51.9041 37.6508Z" fill="#00008B"/>
<path fill-rule="evenodd" clip-rule="evenodd" d="M101.615 27.4449C103.002 28.7439 102.976 30.7017 102.976 32.2426C102.976 42.4485 102.89 71.4767 103 81.6825C103.011 82.7475 102.658 83.8689 102.131 84.7133L50.8096 56.4758L101.615 27.4449Z" fill="#FFD495"/>
</g>
<defs>
<clipPath id="clip0_268_145">
<rect width="102.192" height="112.95" fill="white" transform="translate(0.80835)"/>
</clipPath>
</defs>
</svg>
