<svg width="114" height="114" viewBox="0 0 114 114" fill="none" xmlns="http://www.w3.org/2000/svg">
<g clip-path="url(#clip0_269_481)">
<path d="M0 0H95.76C100.598 0 105.237 1.92171 108.658 5.34237C112.078 8.76304 114 13.4025 114 18.24V95.76C114 100.598 112.078 105.237 108.658 108.658C105.237 112.078 100.598 114 95.76 114H18.24C13.4025 114 8.76304 112.078 5.34237 108.658C1.92171 105.237 0 100.598 0 95.76L0 0Z" fill="#FFD495"/>
<path d="M40.8235 104.88C33.5013 104.873 28.9834 100.75 29.0701 93.162V73.9655C29.0701 70.1192 30.1964 67.1939 32.449 65.1921C36.4949 61.2944 45.8817 61.0573 49.8443 65.2514C52.2862 67.4048 53.2073 71.8041 52.9884 75.9092H44.5843C44.6482 74.2961 44.5627 71.8531 43.6142 70.9331C42.3819 69.2653 39.1272 69.4614 38.2665 71.1976C37.7375 72.1392 37.473 73.5335 37.473 75.378V92.0425C37.473 95.5366 38.6871 97.3036 41.1165 97.3424C42.2519 97.3424 43.1149 96.9297 43.702 96.1055C44.5216 95.1273 44.6493 92.9613 44.5832 91.395H52.9873C53.5618 99.383 48.8468 104.979 40.8223 104.88H40.8235ZM67.504 104.88C59.3907 104.992 55.7609 99.2188 55.9855 91.395H63.9187C63.6987 94.8059 64.8706 97.9124 67.6796 97.6958C68.9325 97.6958 69.8148 97.3036 70.3244 96.5181C71.2934 95.0829 71.4747 90.9378 70.0896 89.3339C69.1217 87.7892 65.6401 86.4257 63.8013 85.5069C61.1759 84.2506 59.2858 82.7595 58.1298 81.0312C55.5226 77.1963 55.7643 68.7785 59.4226 65.3676C62.9771 61.1588 72.2601 60.965 75.8181 65.2799C78.0126 67.504 78.9713 71.8805 78.7855 75.9081H71.1452C71.2102 74.2528 71.054 71.5818 70.411 70.6082C69.9607 69.784 69.108 69.3713 67.8551 69.3713C65.6219 69.3713 64.5058 70.7063 64.5058 73.375C64.5298 76.209 65.6344 77.3718 68.2086 78.5563C71.5419 79.8513 75.7804 82.0629 77.3171 84.7397C81.8999 92.8952 78.7558 105.353 67.5029 104.878L67.504 104.88ZM93.1267 104.88C85.0133 104.992 81.3835 99.2188 81.6081 91.395H89.5414C89.3214 94.8059 90.4933 97.9124 93.3022 97.6958C94.5551 97.6958 95.4375 97.3036 95.947 96.5181C96.916 95.0829 97.0973 90.9378 95.7122 89.3339C94.7443 87.7892 91.2628 86.4257 89.424 85.5069C86.7985 84.2506 84.9084 82.7595 83.7525 81.0312C81.1453 77.1963 81.387 68.7785 85.0452 65.3676C88.5997 61.1588 97.8828 60.965 101.441 65.2799C103.635 67.504 104.594 71.8805 104.408 75.9081H96.7678C96.8328 74.2528 96.6766 71.5818 96.0337 70.6082C95.5834 69.784 94.7307 69.3713 93.4778 69.3713C91.2445 69.3713 90.1285 70.7063 90.1285 73.375C90.1524 76.209 91.2571 77.3718 93.8312 78.5563C97.1646 79.8513 101.403 82.0629 102.94 84.7397C107.523 92.8952 104.378 105.353 93.1255 104.878L93.1267 104.88Z" fill="#00008B"/>
</g>
<defs>
<clipPath id="clip0_269_481">
<rect width="114" height="114" fill="white"/>
</clipPath>
</defs>
</svg>
