<svg width="74" height="108" viewBox="0 0 74 108" fill="none" xmlns="http://www.w3.org/2000/svg">
<g clip-path="url(#clip0_325_2)">
<path d="M37 54C37 49.5098 38.7804 45.2034 41.9496 42.0282C45.1188 38.8531 49.4171 37.0693 53.899 37.0693C58.381 37.0693 62.6792 38.8531 65.8484 42.0282C69.0176 45.2034 70.7981 49.5098 70.7981 54C70.7981 58.4904 69.0176 62.7967 65.8484 65.9718C62.6792 69.1469 58.381 70.9307 53.899 70.9307C49.4171 70.9307 45.1188 69.1469 41.9496 65.9718C38.7804 62.7967 37 58.4904 37 54Z" stroke="#FFD495" stroke-width="5"/>
<path d="M3.2019 87.8614C3.2019 83.371 4.98233 79.0647 8.15153 75.8896C11.3207 72.7144 15.6191 70.9307 20.101 70.9307H37V87.8614C37 92.3517 35.2196 96.658 32.0504 99.8331C28.8812 103.008 24.5829 104.792 20.101 104.792C15.6191 104.792 11.3207 103.008 8.15153 99.8331C4.98233 96.658 3.2019 92.3517 3.2019 87.8614Z" stroke="#FFD495" stroke-width="5"/>
<path d="M37 3.20789V37.0693H53.899C58.381 37.0693 62.6792 35.2855 65.8484 32.1103C69.0176 28.9352 70.7981 24.6289 70.7981 20.1386C70.7981 15.6483 69.0176 11.3419 65.8484 8.16676C62.6792 4.99165 58.381 3.20789 53.899 3.20789H37Z" stroke="#FFD495" stroke-width="5"/>
<path d="M3.2019 20.1386C3.2019 24.629 4.98233 28.9352 8.15153 32.1104C11.3207 35.2855 15.6191 37.0693 20.1009 37.0693H37V3.20789H20.1009C15.6191 3.20789 11.3207 4.99165 8.15153 8.16678C4.98233 11.3419 3.2019 15.6483 3.2019 20.1386Z" stroke="#FFD495" stroke-width="5"/>
<path d="M3.2019 54C3.2019 58.4904 4.98233 62.7967 8.15153 65.9718C11.3207 69.1469 15.6191 70.9307 20.101 70.9307H37V37.0693H20.101C15.6191 37.0693 11.3207 38.8531 8.15153 42.0282C4.98233 45.2034 3.2019 49.5098 3.2019 54Z" stroke="#FFD495" stroke-width="5"/>
</g>
<defs>
<clipPath id="clip0_325_2">
<rect width="74" height="108" fill="white"/>
</clipPath>
</defs>
</svg>
