<svg width="134" height="134" viewBox="0 0 134 134" fill="none" xmlns="http://www.w3.org/2000/svg">
<g clip-path="url(#clip0_269_462)">
<path d="M28.3704 0H34.3899V5.96719H39.9383V0H45.9579V18.0586H39.9383V12.0391H34.4422V18.0586H28.3704M53.9141 6.01953H48.6012V0H65.2727V6.01953H59.9336V18.0586H53.9141M67.9161 0H74.2235L78.0969 6.35977L81.9704 0H88.2778V18.0586H82.2583V9.10781L78.0446 15.5984L73.8309 9.10781V18.0586H67.9161M91.2614 0H97.2809V12.0914H105.813V18.0586H91.2614" fill="#FFD495"/>
<path d="M28.1609 123.27L19.5242 26.3289H114.476L105.839 123.217L66.9214 134" fill="#FFD495"/>
<path d="M67 125.756V34.2852H105.813L98.4062 116.988" fill="#FFD495"/>
<path d="M37.1641 46.141H67V58.023H50.1977L51.2969 70.1929H67V82.0488H40.4094M40.9328 88.016H52.8672L53.7047 97.5164L67 101.076V113.481L42.6078 106.677" fill="#00008B"/>
<path d="M96.7313 46.141H66.9478V58.023H95.6321M94.5591 70.1929H66.9478V82.075H81.604L80.2169 97.5164L66.9478 101.076V113.429L91.2876 106.677" fill="#00008B"/>
</g>
<defs>
<clipPath id="clip0_269_462">
<rect width="134" height="134" fill="white"/>
</clipPath>
</defs>
</svg>
