<svg width="183" height="76" viewBox="0 0 183 76" fill="none" xmlns="http://www.w3.org/2000/svg">
<g clip-path="url(#clip0_271_485)">
<path d="M61.8431 73.9138L60.6882 72.5726L61.7314 71.902C62.2902 71.5667 63.0725 70.9334 63.4451 70.4863C65.0471 68.6981 65.1588 67.5432 65.1961 52.8275V38.7451H67.6176H70.0392L69.8529 53.3863C69.6667 64.8981 69.4804 68.3255 69.0706 69.5549C68.4745 71.1569 66.0902 73.653 64.1529 74.6588C63.0353 75.2177 62.998 75.2177 61.8431 73.9138Z" fill="#FFD495"/>
<path d="M76.9313 67.5432C74.6215 66.8726 73.2803 64.8981 73.2803 62.0295C73.2803 57.5961 76.1862 55.3236 82.445 54.8765L85.3136 54.653V53.051C85.3136 52.1942 85.2018 51.1883 85.0901 50.853C84.4567 49.251 80.6195 48.6922 76.8567 49.6981C74.696 50.2569 74.696 50.2569 74.3607 48.5805L74.0999 47.3883L77.1548 46.5687C82.9293 45.004 87.3254 45.9726 88.9646 49.1765C89.7469 50.7412 89.7842 51.2628 89.7842 59.1236V67.4314H88.1077C86.543 67.4314 86.394 67.3569 86.2077 66.351L85.9842 65.2707L84.196 66.351C82.8548 67.1707 81.8116 67.5059 80.0234 67.6177C78.7567 67.6922 77.3411 67.655 76.9313 67.5432ZM83.4881 63.8177L85.3136 62.8491V60.2785C85.3136 57.2981 85.1646 57.1491 82.1469 57.5589C78.4214 58.0059 76.5587 60.1667 77.6764 62.7746C78.6077 65.0471 80.5822 65.4197 83.4881 63.8177Z" fill="#FFD495"/>
<path d="M115.527 67.2078C113.702 66.2392 112.882 64.6745 112.882 62.1039C112.882 59.7196 113.218 58.8627 114.671 57.2608C115.9 55.9568 119.7 54.7647 122.606 54.7647H124.804V52.9392C124.804 51.7098 124.58 50.8529 124.096 50.2568C123.463 49.4372 123.09 49.3627 120.445 49.3627C118.843 49.3627 116.831 49.5118 116.012 49.6608C114.522 49.9588 114.447 49.9216 114.224 48.9529C114.074 48.3941 114.112 47.798 114.261 47.649C114.447 47.4627 116.012 46.9784 117.725 46.5314C121.451 45.6 124.059 45.749 126.369 47.0157C129.088 48.5431 129.274 49.251 129.274 58.9372V67.4314H127.635C126.108 67.4314 125.959 67.3568 125.735 66.351L125.512 65.2333L123.873 66.3882C122.494 67.3568 121.823 67.5804 119.514 67.6921C117.465 67.8039 116.496 67.6921 115.527 67.2078ZM123.5 63.6686C124.804 62.7745 124.804 62.7372 124.804 60.0176V57.2608L122.382 57.4843C119.7 57.7451 117.949 58.4902 117.316 59.6823C116.682 60.8745 117.129 63.3706 118.173 64.1529C119.327 65.0843 121.749 64.8235 123.5 63.6686Z" fill="#FFD495"/>
<path d="M97.4215 63.0725C96.0431 58.7882 92.3921 46.6058 92.3921 46.3451C92.3921 46.2706 93.4725 46.196 94.7764 46.196H97.1235L97.7941 48.5431C98.1293 49.8098 99.1725 53.2 100.067 56.0313C100.961 58.9 101.706 61.5823 101.706 61.9921C101.706 63.4451 102.376 62.0294 103.531 58.1549C104.425 55.1372 106.176 47.3509 106.176 46.3451C106.176 46.2706 107.182 46.196 108.449 46.196H110.722L110.461 47.798C109.716 52.4921 107.108 61.247 105.245 65.3078L104.276 67.4313H101.557H98.8372L97.4215 63.0725Z" fill="#FFD495"/>
<path d="M30.9215 41.4647C30.9215 41.2784 31.1823 40.8314 31.4804 40.4588C32.1509 39.5647 32.1882 37.3667 31.5549 36.2863C31.3313 35.8392 30.4745 34.6098 29.7294 33.4922C25.5941 27.4569 28.0902 22.4274 37.3666 18.0686C41.7255 16.0196 42.7313 16.0196 39.6764 18.0686C33.7156 22.0549 31.3686 24.8863 31.8529 27.4196C31.9647 28.1275 32.8215 29.8039 33.7529 31.1451C35.8764 34.2373 36.1372 35.5412 35.0568 37.7765C33.9764 39.9373 30.8843 42.7314 30.9215 41.4647Z" fill="#FFD495"/>
<path d="M23.7313 36.1745C17.9941 30.2138 17.1 26.7863 20.2666 22.651C20.9745 21.7196 23.545 19.3353 26.0039 17.3981C33.4549 11.3628 34.796 9.38827 34.8333 4.39611C34.8333 2.83141 34.945 1.63925 35.0941 1.71376C35.8764 2.19807 36.5843 5.36474 36.398 7.41376C36.0254 11.5118 33.6039 14.9393 26.749 20.9373C22.0176 25.1098 20.9745 28.4255 23.098 32.4863C23.545 33.3804 24.7 35.2059 25.6313 36.6216C26.5627 38 27.2333 39.2294 27.1215 39.304C27.0098 39.4157 25.5196 38 23.7313 36.1745Z" fill="#FFD495"/>
<path d="M132.255 66.7981C132.255 66.4255 132.441 65.4569 132.665 64.6373C132.888 63.8177 133.484 61.3216 133.931 59.049C136.465 46.9039 137.173 43.7 137.508 42.8059C137.992 41.5392 139.967 39.6392 141.308 39.1549C141.941 38.8941 145.741 38.7451 150.733 38.7451C158.445 38.7451 159.078 38.7824 159.078 39.4157C159.078 40.4961 158.259 43.0294 157.812 43.2902C157.588 43.4392 154.273 43.5883 150.435 43.5883C142.202 43.5883 142.388 43.5137 141.42 47.6863C141.084 49.1765 140.824 50.5177 140.824 50.7039C140.824 50.8902 143.282 51.0392 146.337 51.0392H151.814L153.118 53.0137C153.825 54.0569 154.496 55.0628 154.533 55.249C154.608 55.3981 151.292 55.5098 147.194 55.5098C139.743 55.5098 139.706 55.5098 139.52 56.3667C139.408 56.8137 138.849 59.4588 138.29 62.2157L137.284 67.2451L134.788 67.3569C132.553 67.4687 132.255 67.3941 132.255 66.7981Z" fill="#FFD495"/>
<path d="M148.274 67.1706C148.274 67.0588 150.621 64.5255 153.527 61.5823L158.743 56.2549L155.576 51.598C153.825 49.0647 152.372 46.8666 152.372 46.7549C152.372 46.6431 153.602 46.5686 155.055 46.6431L157.774 46.7549L159.674 49.549C160.718 51.0764 161.761 52.3804 161.947 52.4176C162.17 52.4921 163.623 51.1137 165.188 49.3627L168.094 46.196H171C172.639 46.196 174.018 46.3451 174.129 46.4941C174.241 46.6804 172.974 48.1333 171.335 49.7725C169.696 51.3745 167.535 53.647 166.529 54.8019L164.704 56.851L166.008 58.7137C169.286 63.4078 171.745 67.0588 171.745 67.2451C171.745 67.3568 170.516 67.4313 169.025 67.4313H166.269L163.847 63.9294L161.425 60.3902L157.923 63.9294L154.421 67.4313H151.367C149.653 67.4313 148.274 67.3196 148.274 67.1706Z" fill="#FFD495"/>
<path d="M18.0684 71.4549C14.8273 71.1196 12.1076 70.4863 12.4057 70.151C12.5175 70.0393 15.3861 70.1883 18.8135 70.4118C32.1508 71.4177 49.0273 69.2196 52.641 66.0157C53.6096 65.1589 53.7586 65.6804 52.8645 66.8353C51.4116 68.6981 47.9841 69.9275 41.539 70.9706C37.2175 71.6785 22.688 71.9765 18.0684 71.4549Z" fill="#FFD495"/>
<path d="M18.2548 68.3255C3.79989 66.9844 1.60185 66.5373 1.93715 64.9726C2.23519 63.3706 7.37636 61.0981 10.543 61.1353H12.4803L10.5058 61.6942C7.93518 62.3648 6.33322 63.2216 6.33322 63.8922C6.33322 64.5628 9.38813 65.4942 13.2254 65.9785C17.0999 66.4255 31.9646 66.4255 37.5156 65.9412C42.0234 65.5314 46.7548 64.6746 48.245 64.004C48.7666 63.7804 49.2881 63.1471 49.4744 62.6255C49.7724 61.8059 49.8842 61.7687 50.1077 62.3275C50.2567 62.6628 50.294 63.2216 50.1822 63.5197C49.6234 64.8981 43.6254 66.8726 37.2548 67.7667C34.1999 68.1765 20.9744 68.5863 18.2548 68.3255Z" fill="#FFD495"/>
<path d="M24.2156 61.6197C16.0567 60.4275 13.5234 59.0863 15.8332 57.1118C16.7646 56.2922 18.143 55.9197 17.7332 56.5903C17.6215 56.7765 17.7705 57.1491 18.1058 57.4099C18.9254 58.0805 27.8666 58.3412 31.7038 57.7452C34.6469 57.3354 34.8705 57.3726 36.5842 58.155C37.5528 58.602 38.3724 59.1236 38.3724 59.2726C38.3724 59.6824 35.1313 60.5765 31.1077 61.2844C27.9038 61.8059 26.2273 61.8805 24.2156 61.6197Z" fill="#FFD495"/>
<path d="M19.5587 53.6471C13.5979 52.753 11.3999 50.8903 14.2685 49.1765C15.7587 48.2452 16.1312 48.2452 15.8332 49.1393C15.3861 50.5922 16.7646 50.853 24.5881 50.853C29.2077 50.853 32.7469 50.6667 34.3489 50.3314C36.7332 49.8844 36.9195 49.8844 38.1861 50.6667C39.3038 51.3746 39.8999 52.1569 39.3038 52.1569C39.192 52.1569 37.8881 52.4177 36.3979 52.7157C30.7352 53.8706 23.694 54.2804 19.5587 53.6471Z" fill="#FFD495"/>
<path d="M42.843 52.9765C42.843 52.8275 43.4764 52.4177 44.2587 52.0824C47.9097 50.3687 50.9646 46.3079 50.5175 43.8118C50.1077 41.651 47.5371 39.9746 45.3018 40.4216C44.445 40.6079 44.296 40.5706 44.7058 40.2726C46.6058 38.9687 50.7783 39.5647 52.3058 41.353C55.5469 45.2275 52.3803 49.9589 44.8175 52.5667C43.7371 52.9393 42.843 53.1255 42.843 52.9765Z" fill="#FFD495"/>
<path d="M15.088 46.1961C10.0214 45.7491 6.92922 44.7804 7.30176 43.8118C7.74882 42.6569 15.2743 40.0491 17.4351 40.3098C18.2547 40.4216 17.9939 40.5706 16.0194 41.2785C11.1763 42.9549 11.3625 43.7 16.7645 44.3706C20.639 44.8177 27.0841 44.5942 34.4606 43.7373C36.9194 43.4392 39.5273 43.2157 40.2351 43.2157H41.539L40.3096 43.9608C37.59 45.6373 22.9488 46.9412 15.088 46.1961Z" fill="#FFD495"/>
</g>
<defs>
<clipPath id="clip0_271_485">
<rect width="182.176" height="76" fill="white"/>
</clipPath>
</defs>
</svg>
