<svg width="91" height="95" viewBox="0 0 91 95" fill="none" xmlns="http://www.w3.org/2000/svg">
<path fill-rule="evenodd" clip-rule="evenodd" d="M29.3038 73.3411C29.3038 73.3411 24.5914 75.4493 32.6613 76.1607C42.4393 77.0187 47.4358 76.8951 58.2078 75.3301C58.2078 75.3301 61.0456 76.6946 65.0019 77.8763C40.8461 85.8309 10.3323 77.4154 29.3038 73.3411Z" fill="#FFD495"/>
<path fill-rule="evenodd" clip-rule="evenodd" d="M26.3504 62.9585C26.3504 62.9585 21.0643 65.9667 29.1402 66.6082C39.5861 67.4371 47.8323 67.5051 62.1097 65.3931C62.1097 65.3931 64.0799 66.9313 67.1824 67.7719C37.9812 74.3371 5.45679 68.2884 26.3504 62.9585Z" fill="#FFD495"/>
<path fill-rule="evenodd" clip-rule="evenodd" d="M51.2347 45.3454C57.1898 50.6143 49.6732 55.3518 49.6732 55.3518C49.6732 55.3518 64.7854 49.3566 57.8466 41.8455C51.3636 34.8442 46.3932 31.3662 73.3015 19.3719C73.3015 19.3719 31.0622 27.4784 51.2347 45.3454Z" fill="#FFD495"/>
<path fill-rule="evenodd" clip-rule="evenodd" d="M83.183 81.0217C83.183 81.0217 86.6715 83.232 79.3407 84.9414C65.4012 88.1867 21.3116 89.1655 9.06563 85.0713C4.66657 83.5985 12.9199 81.5573 15.5167 81.1262C18.2243 80.6759 19.7702 80.7582 19.7702 80.7582C14.8744 78.1083 -11.8736 85.9625 6.18524 88.215C55.4324 94.3505 95.9554 85.4514 83.183 81.0217Z" fill="#FFD495"/>
<path fill-rule="evenodd" clip-rule="evenodd" d="M31.573 52.2008C31.573 52.2008 9.14926 56.2957 23.6325 57.784C29.7498 58.4131 41.937 58.2684 53.2975 57.5358C62.5793 56.9371 71.894 55.6565 71.894 55.6565C71.894 55.6565 68.6236 56.7348 66.2558 57.9768C43.4802 62.5811 -0.509704 60.4368 12.1563 55.7295C22.8631 51.7483 31.573 52.2008 31.573 52.2008Z" fill="#FFD495"/>
<path fill-rule="evenodd" clip-rule="evenodd" d="M71.801 69.4826C94.9516 60.2386 84.2465 51.3542 76.7749 52.5509C74.9478 52.8439 74.1281 53.0978 74.1281 53.0978C74.1281 53.0978 74.8089 52.2781 76.1051 51.9255C90.8864 47.9332 102.252 63.7044 71.3384 69.9505C71.3384 69.9505 71.6938 69.7029 71.801 69.4826Z" fill="#FFD495"/>
<path fill-rule="evenodd" clip-rule="evenodd" d="M57.8484 0C57.8484 0 70.6667 9.85806 45.6868 25.0127C25.6546 37.1741 41.1194 44.1055 45.6797 52.0291C33.9854 43.9201 25.4078 36.7807 31.1612 30.1371C39.61 20.3862 63.0191 15.6571 57.8484 0Z" fill="#FFD495"/>
<path fill-rule="evenodd" clip-rule="evenodd" d="M33.8496 94.5393C56.0665 95.6311 90.1925 93.9318 91.0001 85.8508C91.0001 85.8508 89.4476 88.9142 72.6375 91.3448C53.673 94.0891 30.2773 93.7696 16.4065 92.0092C16.4065 92.0092 19.2481 93.817 33.8496 94.5393Z" fill="#FFD495"/>
</svg>
