<svg width="94" height="94" viewBox="0 0 94 94" fill="none" xmlns="http://www.w3.org/2000/svg">
<g clip-path="url(#clip0_268_18)">
<path d="M94 0H0V94H94V0Z" fill="#FFD495"/>
<path d="M63.1441 73.4379C65.0375 76.5294 67.5009 78.8018 71.8578 78.8018C75.5178 78.8018 77.8559 76.9726 77.8559 74.445C77.8559 71.4161 75.4536 70.3433 71.4251 68.5812L69.2168 67.6337C62.8427 64.9182 58.6082 61.5163 58.6082 54.3245C58.6082 47.6998 63.6559 42.6566 71.5444 42.6566C77.1606 42.6566 81.1981 44.6112 84.1076 49.729L77.2292 54.1455C75.7147 51.4299 74.0809 50.3601 71.5444 50.3601C68.9572 50.3601 67.3174 52.0014 67.3174 54.1455C67.3174 56.7954 68.9587 57.8682 72.7485 59.5095L74.9568 60.4554C82.4619 63.6738 86.6993 66.9548 86.6993 74.3316C86.6993 82.2843 80.4521 86.6411 72.0622 86.6411C63.8588 86.6411 58.559 82.7319 55.9658 77.6082L63.1441 73.4379ZM31.9405 74.2033C33.3281 76.6652 34.5904 78.7466 37.6253 78.7466C40.5274 78.7466 42.3581 77.6112 42.3581 73.1961V43.1609H51.1911V73.3155C51.1911 82.4619 45.8287 86.6247 38.0013 86.6247C30.9289 86.6247 26.8332 82.9647 24.7502 78.5564L31.9405 74.2033Z" fill="#00008B"/>
</g>
<defs>
<clipPath id="clip0_268_18">
<rect width="94" height="94" fill="white"/>
</clipPath>
</defs>
</svg>
