<svg width="112" height="132" viewBox="0 0 112 132" fill="none" xmlns="http://www.w3.org/2000/svg">
<path d="M53.6721 32.3035C53.6721 32.7362 53.2394 32.7362 53.2394 32.7362H52.8067C52.374 32.7362 52.374 32.3035 51.9413 31.8709C51.9413 31.8709 51.5086 31.4382 51.5086 31.0055C51.5086 30.5728 51.5086 30.5728 51.9413 30.5728L52.8067 31.0055C53.2394 31.4382 53.6721 31.8709 53.6721 32.3035ZM45.8836 27.9766C45.8836 25.8132 45.0182 24.5151 43.7201 24.5151C43.7201 24.5151 43.7201 24.9478 43.2875 24.9478V25.8132H44.5855C44.5855 26.6785 45.0182 27.1112 45.0182 27.9766H45.8836ZM61.0278 25.8132C61.8932 25.8132 62.3259 26.6785 62.7586 27.9766H63.624C63.1913 27.5439 63.1913 27.1112 63.1913 26.6785C63.1913 26.2459 63.1913 25.8132 62.7586 25.3805C62.3259 24.9478 61.8932 24.5151 61.4605 24.5151C61.4605 24.5151 61.0278 24.9478 60.5951 24.9478C60.5951 25.3805 61.0278 25.3805 61.0278 25.8132ZM48.0471 32.7362C47.6144 32.7362 47.6144 32.7362 47.6144 32.3035C47.6144 31.8709 47.6144 31.4382 48.0471 31.0055C48.9125 31.0055 49.3451 30.5728 49.3451 30.5728C49.7778 30.5728 49.7778 31.0055 49.7778 31.0055C49.7778 31.4382 49.3451 31.8709 48.4798 32.7362H48.0471ZM43.2875 32.3035C41.5567 31.4382 41.124 30.1401 41.124 27.9766C41.124 26.6785 41.124 25.8132 41.9894 24.9478C42.4221 24.0824 43.2875 23.6497 44.1528 23.6497C45.0182 23.6497 45.4509 24.0824 46.3163 24.9478C46.749 26.2459 47.1817 27.5439 47.1817 28.842V29.7074H47.6144V29.2747C48.0471 29.2747 48.0471 28.4093 48.0471 26.6785C48.0471 25.3805 48.0471 24.0824 47.1817 22.7843C46.3163 21.4862 45.4509 20.6209 43.7201 20.6209C42.4221 20.6209 41.124 21.4862 40.6913 22.7843C39.8259 24.5151 39.6528 25.8132 39.6528 27.9766C39.6528 29.7074 40.2586 31.4382 41.9894 33.1689C42.4221 32.7362 42.8548 32.7362 43.2875 32.3035ZM97.374 93.3132C97.8067 93.3132 97.8067 93.1401 97.8067 92.7507C97.8067 91.7987 97.374 90.6737 96.0759 89.4189C94.7778 88.1209 92.6144 87.2987 90.0182 86.9526C89.5855 86.9093 89.1528 86.9093 89.1528 86.9093C88.7201 86.8228 88.7201 86.8228 88.2875 86.8228C87.8548 86.7795 86.9894 86.693 86.5567 86.6064C87.8548 82.5824 88.2875 79.0343 88.2875 75.9189C88.2875 71.592 87.4221 68.5632 85.6913 65.967C83.9605 63.3709 82.2298 62.0728 80.0663 61.6401C79.6336 62.0728 79.6336 62.0728 79.6336 62.5055C81.7971 63.3709 83.9605 65.1016 85.2586 67.6978C86.5567 70.7266 86.9894 73.3228 86.9894 76.3516C86.9894 78.7747 86.5567 82.3661 84.8259 86.9526C83.0951 87.6449 81.3644 89.2459 80.0663 91.7555C80.0663 92.1449 80.0663 92.3612 80.499 92.3612C80.499 92.3612 80.9317 91.9718 81.3644 91.2362C82.2298 90.5007 82.6625 89.7651 83.5278 89.0295C84.8259 88.2939 85.6913 87.9045 86.9894 87.9045C89.1528 87.9045 91.3163 88.2074 92.6144 88.8132C94.3451 89.3757 95.2105 89.9814 95.6432 90.6737C96.0759 91.3228 96.5086 91.9286 96.9413 92.4911C96.9413 93.0536 97.374 93.3132 97.374 93.3132ZM57.5663 30.5728C57.1336 30.1401 57.1336 29.2747 57.1336 28.4093C57.1336 26.6785 57.1336 25.8132 57.999 24.5151C58.8644 23.6497 59.7298 23.217 60.5951 23.217C61.8932 23.217 62.7586 24.0824 63.624 24.9478C64.0567 26.2459 64.4894 27.1112 64.4894 28.4093C64.4894 30.5728 63.624 31.8709 61.8932 32.3035C61.8932 32.3035 62.3259 32.7362 62.7586 32.7362C63.624 32.7362 64.0567 33.1689 64.9221 33.6016C65.3548 31.0055 65.7875 29.2747 65.7875 27.1112C65.7875 24.5151 65.3548 22.7843 64.4894 21.4862C63.1913 20.1882 61.8932 19.7555 60.1625 19.7555C58.8644 19.7555 57.5663 20.1882 56.2682 21.0535C55.4028 22.3516 54.9701 23.217 54.9701 24.5151C54.9701 26.6785 55.4028 28.4093 56.2682 30.1401C56.7009 30.1401 57.1336 30.5728 57.5663 30.5728ZM62.7586 37.4959C57.1336 41.3901 52.8067 43.1209 49.3451 43.1209C46.3163 43.1209 43.2875 41.8228 40.6913 39.6593C41.124 40.5247 41.5567 41.3901 41.9894 41.8228L44.5855 44.4189C46.3163 46.1497 48.4798 47.0151 50.6432 47.0151C53.6721 47.0151 57.1336 45.2843 61.4605 42.2555L65.3548 39.6593C66.2201 38.7939 67.0855 37.9285 67.0855 36.6305C67.0855 36.1978 67.0855 35.7651 66.6528 35.7651C66.2201 34.8997 64.0567 33.6016 59.7298 32.3035C55.8355 30.5728 52.8067 29.7074 51.0759 29.7074C49.7778 29.7074 47.6144 30.5728 44.5855 32.3035C41.9894 34.0343 40.2586 35.7651 40.2586 37.4959C40.2586 37.4959 40.6913 37.9285 41.124 38.7939C43.7201 40.9574 46.3163 42.2555 48.9125 42.2555C52.374 42.2555 56.7009 40.5247 62.3259 36.1978V37.0632C62.7586 37.0632 62.7586 37.4959 62.7586 37.4959ZM72.7105 124.9C74.4413 128.154 77.4701 129.789 80.9317 129.789C81.7971 129.789 82.6625 129.659 83.5278 129.4C84.3932 129.227 85.2586 128.924 85.6913 128.578C86.124 128.275 86.5567 127.972 86.9894 127.626C87.8548 127.323 87.8548 127.106 88.2875 126.89L95.6432 120.53C97.374 119.149 99.1048 117.942 101.268 116.895C102.999 115.856 104.73 115.164 105.595 114.775C106.893 114.429 107.759 113.909 108.624 113.217C109.057 112.568 109.489 111.746 109.489 110.707C109.489 109.453 108.624 108.501 107.759 107.808C106.893 107.116 106.028 106.64 105.162 106.337C104.297 106.034 103.432 105.342 102.134 104.174C101.268 103.049 100.403 101.491 99.9701 99.4574L99.5375 96.9478C99.1048 95.7795 99.1048 94.9141 98.6721 94.4382C98.6721 94.3084 98.6721 94.2651 98.2394 94.2651C97.8067 94.2651 96.9413 94.6545 96.5086 95.3901C95.6432 96.1257 94.7778 96.9478 93.9125 97.8132C93.4798 98.6786 92.1817 99.4574 91.3163 100.193C90.0182 100.929 88.7201 101.318 87.8548 101.318C84.3932 101.318 82.6625 100.366 81.3644 98.5055C80.499 97.1209 80.0663 95.5199 79.6336 93.7026C78.7682 92.967 78.3355 92.5776 77.4701 92.5776C75.3067 92.5776 74.4413 94.8276 74.4413 99.3709V112.828C74.4413 113.217 74.0086 114.082 74.0086 115.424C73.5759 116.765 73.5759 118.288 73.5759 120.01L72.7105 124.813V124.887M9.97015 122.598C13.9942 123.186 18.624 124.445 23.8596 126.367C29.0951 128.27 32.2971 129.266 33.4653 129.266C36.4942 129.266 39.0038 127.924 41.0807 125.332C41.5134 124.493 41.5134 123.506 41.5134 122.373C41.5134 118.284 39.0471 113.113 34.1144 106.839L31.1721 102.902C30.5663 102.08 29.8307 100.825 28.8788 99.1372C27.9701 97.4497 27.148 96.1516 26.499 95.243C25.9365 94.2478 25.0278 93.2526 23.8596 92.2574C22.7346 91.2622 21.4365 90.6132 20.0086 90.267C18.1913 90.6132 16.9365 91.2189 16.3307 92.0411C15.725 92.8632 15.3788 93.7718 15.2923 94.7237C15.1625 95.6324 14.9028 96.2382 14.4701 96.5411C14.0375 96.8007 13.3019 97.017 12.3067 97.2334C12.0903 97.2334 11.7009 97.2334 11.1384 97.2766H9.97015C7.67688 97.2766 6.11919 97.5362 5.29707 97.9689C4.21534 99.2237 3.65284 100.652 3.65284 102.166C3.65284 102.858 3.82592 104.027 4.17207 105.671C4.51822 107.272 4.6913 108.57 4.6913 109.479C4.6913 111.253 4.17207 113.027 3.09034 114.801C2.00861 116.661 1.44611 118.046 1.44611 119.032C1.8788 120.711 4.73457 121.892 9.97015 122.585M24.3788 83.2531C24.3788 80.2675 25.1577 76.979 26.7586 73.0848C28.3163 69.1906 29.874 66.5944 31.3884 64.8636C31.3019 64.431 31.0855 64.431 30.7394 64.431L30.3067 63.9983C29.0519 65.2963 27.5375 68.3252 25.7201 72.6521C23.9028 76.5463 22.9509 80.1377 22.9509 82.7771C22.9509 84.7242 23.4269 86.4117 24.2923 87.8829C25.2442 89.3108 27.5375 91.3877 31.1721 94.0271L35.7586 97.0127C40.648 101.253 43.2442 104.195 43.2442 105.926C43.2442 106.835 42.8115 107.743 41.5134 108.739C40.648 109.777 39.4798 110.296 38.4846 110.296C38.398 110.296 38.3548 110.383 38.3548 110.599C38.3548 110.643 38.7875 111.508 39.6961 113.195C41.5134 115.662 45.4077 116.873 50.6 116.873C60.1192 116.873 67.475 112.979 73.1 105.191C73.1 103.027 73.1 101.686 72.6673 101.123V99.5223C72.6673 96.7098 73.1 94.5896 73.9653 93.205C74.8307 91.8204 75.6961 91.1713 76.9942 91.1713C77.8596 91.1713 78.725 91.4742 79.5903 92.1233C80.023 88.7915 80.023 85.8925 80.023 83.2963C80.023 79.3588 80.023 76.1136 79.1576 73.0848C78.725 70.4886 77.8596 68.3252 76.9942 66.5944L74.398 62.7002C73.5326 61.4021 73.1 60.104 72.2346 58.806C71.8019 57.0752 71.3692 55.7771 71.3692 53.6136C70.0711 51.4502 69.2057 49.2867 67.9076 47.1233C67.0423 44.9598 66.1769 42.7963 65.3115 41.0656L61.4173 44.0944C57.0903 47.1233 53.6288 48.4213 50.6 48.4213C48.0038 48.4213 45.8403 47.9886 44.5423 46.2579L41.9461 44.0944C41.9461 45.3925 41.5134 47.1233 40.648 48.854L37.9221 54.0463C36.7105 57.0752 36.0615 58.806 35.9317 60.104C35.7586 60.9694 35.6288 61.8348 35.5423 61.8348L32.2971 68.3252C28.7923 74.8156 27.0182 80.83 27.0182 85.806C27.0182 86.8012 27.1048 87.8396 27.2778 88.8781C25.3307 87.5367 24.3788 85.6761 24.3788 83.2531ZM55.3596 124.186C49.7346 124.186 45.4077 124.947 42.3788 126.457V126.328C40.2153 128.924 37.7923 130.265 34.4173 130.265C32.2971 130.265 28.9653 129.443 24.4653 127.799C19.9221 126.241 15.898 125.047 12.3932 124.259C12.0471 124.16 11.2682 124.013 10.0134 123.814C8.80188 123.619 7.67688 123.42 6.68169 123.221C5.77303 123.026 4.73457 122.732 3.60957 122.334C2.52784 121.992 1.66246 121.546 1.01342 121.005C0.416301 120.46 0.12207 119.846 0.12207 119.158C0.12207 118.466 0.269186 117.726 0.563417 116.938C0.84034 116.462 1.14322 115.986 1.44611 115.554C1.74899 115.078 2.00861 114.645 2.18169 114.212C2.4413 113.823 2.61438 113.433 2.78745 113.001C2.96053 112.611 3.13361 112.222 3.22015 111.746C3.30669 111.313 3.39322 110.88 3.39322 110.448C3.39322 110.015 3.22015 108.717 2.87399 106.424C2.52784 104.174 2.35476 102.746 2.35476 102.14C2.35476 100.236 2.78746 98.7218 3.73938 97.6401C4.6913 96.5584 5.59996 95.9959 6.55188 95.9959H11.5278C11.9173 95.9959 12.523 95.7795 13.4317 95.2603C13.7346 94.568 13.9942 94.0055 14.1673 93.4862C14.3836 92.967 14.4701 92.5776 14.5567 92.4045C14.6432 92.1449 14.7298 91.8853 14.8163 91.6689C14.9894 91.3661 15.2057 91.0199 15.5086 90.6737C15.1625 90.2411 14.9894 89.6786 14.9894 88.9862C14.9894 88.5103 14.9894 88.0776 15.0759 87.818C15.0759 86.2603 15.8115 84.0536 17.3692 81.1545L18.8836 78.4286C20.1384 76.092 21.0903 74.3612 21.7826 72.6305C22.5182 70.8997 23.2971 68.3035 24.1625 64.842C24.8548 61.8132 26.499 58.7843 29.0951 55.7555L32.3403 51.8612C34.5903 49.2651 36.0615 47.1016 36.8836 45.3709C37.7057 43.6401 38.1384 41.4766 38.1384 39.7459C38.1384 38.8805 37.9221 36.2843 37.4461 31.9574C37.0134 27.6305 36.7971 23.3035 36.7971 19.4093C36.7971 16.3805 37.0567 14.217 37.6192 12.0535C38.1817 9.89008 39.1769 7.72662 40.648 5.99585C41.9461 4.26508 43.6769 2.53431 46.273 1.66893C48.8692 0.803542 51.898 0.37085 55.3596 0.37085C56.6576 0.37085 57.9557 0.37085 59.2538 0.803542C60.5519 0.803542 62.2826 1.23623 64.4461 2.10162C66.1769 2.967 67.9076 3.83239 69.2057 5.13047C70.9365 6.42854 72.2346 8.592 73.5326 10.7555C74.398 13.3516 75.2634 15.9478 75.6961 19.4093C76.1288 21.5728 76.1288 23.7362 76.5615 26.7651C76.5615 29.3612 76.9942 31.092 76.9942 32.3901C77.4269 33.6882 77.4269 35.4189 77.8596 37.5824C78.2923 39.3132 78.725 41.0439 79.5903 42.342C80.4557 44.0728 81.3211 45.8035 82.6192 47.5343C83.9173 49.6978 85.648 51.8612 87.3788 54.4574C91.273 58.7843 94.3019 63.5439 96.0326 68.3035C98.1961 72.6305 99.4942 78.2555 99.4942 84.2699C99.4942 87.2555 99.0615 90.1545 98.1961 92.967C99.0615 92.967 99.4942 93.3132 99.9269 93.9189C100.36 94.5247 100.792 95.8228 101.225 97.8564L101.658 101.058C102.09 102.01 102.523 102.919 103.821 103.698C104.686 104.477 105.552 105.126 106.85 105.645C107.715 106.078 109.013 106.683 109.879 107.462C110.744 108.328 111.177 109.236 111.177 110.188C111.177 111.659 110.744 112.741 109.879 113.52C109.013 114.385 108.148 114.991 106.85 115.38C105.985 115.813 104.254 116.679 101.658 117.899C99.4942 119.18 97.3307 120.733 95.1673 122.572L90.8403 126.254C89.1096 127.942 87.3788 129.153 86.0807 129.889C84.7826 130.667 83.0519 131.057 81.3211 131.057L78.2923 130.711C74.8307 129.802 72.6673 128.071 71.3692 125.432C64.4461 124.592 58.8211 124.177 55.3596 124.177" fill="#00004C"/>
</svg>
