<svg width="112" height="131" viewBox="0 0 112 131" fill="none" xmlns="http://www.w3.org/2000/svg">
<mask id="path-1-inside-1_6_3" fill="white">
<path d="M53.55 31.9327C53.55 32.3654 53.1173 32.3653 53.1173 32.3653H52.6846C52.2519 32.3653 52.2519 31.9326 51.8192 31.5C51.8192 31.5 51.3865 31.0674 51.3865 30.6347C51.3865 30.202 51.3865 30.202 51.8192 30.202L52.6846 30.6347C53.1173 31.0674 53.55 31.5001 53.55 31.9327ZM45.7615 27.6058C45.7615 25.4424 44.8961 24.1443 43.598 24.1443C43.598 24.1443 43.598 24.577 43.1654 24.577V25.4424H44.4634C44.4634 26.3077 44.8961 26.7404 44.8961 27.6058H45.7615ZM60.9057 25.4424C61.7711 25.4424 62.2038 26.3077 62.6365 27.6058H63.5019C63.0692 27.1731 63.0692 26.7403 63.0692 26.3076C63.0692 25.875 63.0692 25.4424 62.6365 25.0097C62.2038 24.577 61.7711 24.1443 61.3384 24.1443C61.3384 24.1443 60.9057 24.577 60.473 24.577C60.473 25.0097 60.9057 25.0097 60.9057 25.4424ZM47.925 32.3653C47.4923 32.3653 47.4923 32.3654 47.4923 31.9327C47.4923 31.5001 47.4923 31.0674 47.925 30.6347C48.7904 30.6347 49.223 30.202 49.223 30.202C49.6557 30.202 49.6557 30.6347 49.6557 30.6347C49.6557 31.0674 49.223 31.5 48.3577 32.3653H47.925ZM43.1654 31.9327C41.4346 31.0674 41.0019 29.7693 41.0019 27.6058C41.0019 26.3077 41.0019 25.4424 41.8673 24.577C42.3 23.7116 43.1654 23.2789 44.0307 23.2789C44.8961 23.2789 45.3288 23.7116 46.1942 24.577C46.6269 25.8751 47.0596 27.173 47.0596 28.4711V29.3365H47.4923V28.9039C47.925 28.9039 47.925 28.0384 47.925 26.3076C47.925 25.0096 47.925 23.7116 47.0596 22.4135C46.1942 21.1154 45.3288 20.25 43.598 20.25C42.3 20.25 41.0019 21.1154 40.5692 22.4135C39.7038 24.1443 39.5307 25.4424 39.5307 27.6058C39.5307 29.3366 40.1365 31.0673 41.8673 32.798C42.3 32.3653 42.7327 32.3654 43.1654 31.9327ZM97.2519 92.9424C97.6846 92.9424 97.6846 92.7693 97.6846 92.3799C97.6846 91.4279 97.2519 90.3028 95.9538 89.048C94.6557 87.75 92.4923 86.9278 89.8961 86.5817C89.4634 86.5384 89.0307 86.5385 89.0307 86.5385C88.598 86.452 88.598 86.452 88.1654 86.452C87.7327 86.4087 86.8673 86.3221 86.4346 86.2355C87.7327 82.2115 88.1654 78.6635 88.1654 75.548C88.1654 71.2211 87.3 68.1924 85.5692 65.5962C83.8384 63.0001 82.1077 61.7019 79.9442 61.2692C79.5115 61.7019 79.5115 61.702 79.5115 62.1347C81.675 63.0001 83.8384 64.7308 85.1365 67.327C86.4346 70.3558 86.8673 72.952 86.8673 75.9808C86.8673 78.4039 86.4346 81.9952 84.7038 86.5817C82.973 87.274 81.2423 88.8751 79.9442 91.3847C79.9442 91.7741 79.9442 91.9903 80.3769 91.9903C80.3769 91.9903 80.8096 91.6009 81.2423 90.8653C82.1077 90.1298 82.5404 89.3943 83.4057 88.6587C84.7038 87.9231 85.5692 87.5337 86.8673 87.5337C89.0307 87.5337 91.1942 87.8366 92.4923 88.4424C94.223 89.0049 95.0884 89.6105 95.5211 90.3028C95.9538 90.9519 96.3865 91.5577 96.8192 92.1202C96.8192 92.6827 97.2519 92.9424 97.2519 92.9424ZM57.4442 30.202C57.0115 29.7693 57.0115 28.9039 57.0115 28.0385C57.0115 26.3077 57.0115 25.4424 57.8769 24.1443C58.7423 23.2789 59.6077 22.8461 60.473 22.8461C61.7711 22.8461 62.6365 23.7116 63.5019 24.577C63.9346 25.8751 64.3673 26.7404 64.3673 28.0385C64.3673 30.202 63.5019 31.5001 61.7711 31.9327C61.7711 31.9327 62.2038 32.3653 62.6365 32.3653C63.5019 32.3653 63.9346 32.7981 64.8 33.2308C65.2327 30.6347 65.6654 28.9039 65.6654 26.7404C65.6654 24.1443 65.2327 22.4135 64.3673 21.1154C63.0692 19.8174 61.7711 19.3847 60.0404 19.3847C58.7423 19.3847 57.4442 19.8173 56.1461 20.6826C55.2807 21.9807 54.848 22.8462 54.848 24.1443C54.848 26.3077 55.2807 28.0385 56.1461 29.7693C56.5788 29.7693 57.0115 30.202 57.4442 30.202ZM62.6365 37.125C57.0115 41.0192 52.6846 42.75 49.223 42.75C46.1942 42.75 43.1654 41.452 40.5692 39.2885C41.0019 40.1539 41.4346 41.0193 41.8673 41.452L44.4634 44.048C46.1942 45.7788 48.3577 46.6442 50.5211 46.6442C53.55 46.6442 57.0115 44.9135 61.3384 41.8847L65.2327 39.2885C66.098 38.4231 66.9634 37.5577 66.9634 36.2597C66.9634 35.827 66.9634 35.3942 66.5307 35.3942C66.098 34.5288 63.9346 33.2308 59.6077 31.9327C55.7134 30.202 52.6846 29.3365 50.9538 29.3365C49.6557 29.3365 47.4923 30.202 44.4634 31.9327C41.8673 33.6635 40.1365 35.3942 40.1365 37.125C40.1365 37.125 40.5692 37.5576 41.0019 38.423C43.598 40.5865 46.1942 41.8847 48.7904 41.8847C52.2519 41.8847 56.5788 40.1539 62.2038 35.827V36.6924C62.6365 36.6924 62.6365 37.125 62.6365 37.125ZM72.5884 124.529C74.3192 127.783 77.348 129.418 80.8096 129.418C81.675 129.418 82.5404 129.288 83.4057 129.029C84.2711 128.856 85.1365 128.553 85.5692 128.207C86.0019 127.904 86.4346 127.601 86.8673 127.255C87.7327 126.952 87.7327 126.735 88.1654 126.519L95.5211 120.159C97.2519 118.778 98.9827 117.571 101.146 116.524C102.877 115.485 104.608 114.793 105.473 114.404C106.771 114.058 107.637 113.538 108.502 112.846C108.935 112.197 109.367 111.375 109.367 110.336C109.367 109.082 108.502 108.13 107.637 107.437C106.771 106.745 105.906 106.269 105.04 105.966C104.175 105.663 103.31 104.971 102.012 103.803C101.146 102.678 100.281 101.12 99.848 99.0865L99.4154 96.577C98.9827 95.4087 98.9827 94.5433 98.55 94.0674C98.55 93.9376 98.55 93.8942 98.1173 93.8942C97.6846 93.8942 96.8192 94.2836 96.3865 95.0192C95.5211 95.7548 94.6557 96.577 93.7904 97.4424C93.3577 98.3078 92.0596 99.0866 91.1942 99.8222C89.8961 100.558 88.598 100.947 87.7327 100.947C84.2711 100.947 82.5404 99.9952 81.2423 98.1347C80.3769 96.7501 79.9442 95.149 79.5115 93.3317C78.6461 92.5961 78.2134 92.2067 77.348 92.2067C75.1846 92.2067 74.3192 94.4568 74.3192 99.0001V112.457C74.3192 112.846 73.8865 113.711 73.8865 115.053C73.4538 116.394 73.4538 117.917 73.4538 119.639L72.5884 124.442V124.516M9.84808 122.227C13.8721 122.815 18.5019 124.074 23.7375 125.996C28.973 127.899 32.175 128.895 33.3432 128.895C36.3721 128.895 38.8817 127.553 40.9586 124.961C41.3913 124.122 41.3913 123.135 41.3913 122.002C41.3913 117.913 38.925 112.742 33.9923 106.468L31.05 102.531C30.4442 101.709 29.7086 100.454 28.7567 98.7663C27.848 97.0788 27.0259 95.7807 26.3769 94.8721C25.8144 93.8769 24.9057 92.8818 23.7375 91.8866C22.6125 90.8914 21.3144 90.2423 19.8865 89.8961C18.0692 90.2423 16.8144 90.848 16.2086 91.6702C15.6029 92.4923 15.2567 93.401 15.1702 94.3529C15.0404 95.2616 14.7807 95.8673 14.348 96.1702C13.9154 96.4298 13.1798 96.6461 12.1846 96.8625C11.9682 96.8625 11.5788 96.8626 11.0163 96.9058H9.84808C7.55481 96.9058 5.99712 97.1654 5.175 97.5981C4.09327 98.8529 3.53077 100.281 3.53077 101.795C3.53077 102.487 3.70385 103.656 4.05 105.3C4.39615 106.901 4.56923 108.199 4.56923 109.108C4.56923 110.882 4.05 112.656 2.96827 114.43C1.88654 116.29 1.32404 117.675 1.32404 118.661C1.75673 120.34 4.6125 121.521 9.84808 122.214M24.2567 82.8822C24.2567 79.8966 25.0356 76.6082 26.6365 72.714C28.1942 68.8198 29.7519 66.2236 31.2663 64.4928C31.1798 64.0602 30.9634 64.0602 30.6173 64.0602L30.1846 63.6274C28.9298 64.9254 27.4154 67.9543 25.598 72.2812C23.7807 76.1755 22.8288 79.7668 22.8288 82.4062C22.8288 84.3534 23.3048 86.0408 24.1702 87.512C25.1221 88.9399 27.4154 91.0168 31.05 93.6562L35.6365 96.6419C40.5259 100.882 43.1221 103.824 43.1221 105.555C43.1221 106.464 42.6894 107.372 41.3913 108.368C40.5259 109.406 39.3577 109.925 38.3625 109.925C38.2759 109.925 38.2327 110.012 38.2327 110.228C38.2327 110.272 38.6654 111.137 39.574 112.824C41.3913 115.291 45.2856 116.502 50.4779 116.502C59.9971 116.502 67.3529 112.608 72.9779 104.82C72.9779 102.656 72.9779 101.315 72.5452 100.752V99.1515C72.5452 96.339 72.9779 94.2188 73.8432 92.8342C74.7086 91.4496 75.574 90.8005 76.8721 90.8005C77.7375 90.8005 78.6029 91.1033 79.4682 91.7524C79.9009 88.4206 79.9009 85.5217 79.9009 82.9255C79.9009 78.988 79.9009 75.7428 79.0355 72.714C78.6029 70.1178 77.7375 67.9543 76.8721 66.2235L74.2759 62.3293C73.4105 61.0312 72.9779 59.7332 72.1125 58.4352C71.6798 56.7044 71.2471 55.4063 71.2471 53.2428C69.949 51.0794 69.0836 48.9158 67.7855 46.7524C66.9202 44.5889 66.0548 42.4255 65.1894 40.6948L61.2952 43.7235C56.9682 46.7524 53.5067 48.0504 50.4779 48.0504C47.8817 48.0504 45.7182 47.6178 44.4202 45.8871L41.824 43.7235C41.824 45.0216 41.3913 46.7525 40.5259 48.4832L37.8 53.6754C36.5884 56.7043 35.9394 58.4352 35.8096 59.7332C35.6365 60.5986 35.5067 61.464 35.4202 61.464L32.175 67.9544C28.6702 74.4448 26.8961 80.4592 26.8961 85.4352C26.8961 86.4304 26.9827 87.4687 27.1557 88.5072C25.2086 87.1658 24.2567 85.3052 24.2567 82.8822ZM55.2375 123.815C49.6125 123.815 45.2856 124.576 42.2567 126.086V125.957C40.0932 128.553 37.6702 129.894 34.2952 129.894C32.175 129.894 28.8432 129.072 24.3432 127.428C19.8 125.87 15.7759 124.676 12.2711 123.888C11.925 123.789 11.1461 123.642 9.89133 123.443C8.67981 123.248 7.55481 123.049 6.55962 122.85C5.65096 122.655 4.6125 122.361 3.4875 121.963C2.40577 121.621 1.54039 121.175 0.89135 120.634C0.294231 120.089 0 119.475 0 118.787C0 118.095 0.147116 117.355 0.441347 116.567C0.71827 116.091 1.02115 115.615 1.32404 115.183C1.62692 114.707 1.88654 114.274 2.05962 113.841C2.31923 113.452 2.49231 113.062 2.66538 112.63C2.83846 112.24 3.01154 111.851 3.09808 111.375C3.18462 110.942 3.27115 110.509 3.27115 110.077C3.27115 109.644 3.09808 108.346 2.75192 106.053C2.40577 103.803 2.23269 102.375 2.23269 101.769C2.23269 99.8651 2.66539 98.3509 3.61731 97.2692C4.56923 96.1875 5.47789 95.6251 6.42981 95.6251H11.4057C11.7952 95.6251 12.4009 95.4087 13.3096 94.8895C13.6125 94.1972 13.8721 93.6346 14.0452 93.1153C14.2615 92.5961 14.348 92.2068 14.4346 92.0337C14.5211 91.7741 14.6077 91.5144 14.6942 91.298C14.8673 90.9952 15.0836 90.649 15.3865 90.3028C15.0404 89.8702 14.8673 89.3077 14.8673 88.6153C14.8673 88.1394 14.8673 87.7068 14.9538 87.4472C14.9538 85.8895 15.6894 83.6828 17.2471 80.7837L18.7615 78.0577C20.0163 75.7211 20.9682 73.9904 21.6605 72.2597C22.3961 70.5289 23.175 67.9327 24.0404 64.4712C24.7327 61.4424 26.3769 58.4135 28.973 55.3847L32.2182 51.4903C34.4682 48.8942 35.9394 46.7307 36.7615 45C37.5836 43.2692 38.0163 41.1057 38.0163 39.375C38.0163 38.5096 37.8 35.9134 37.324 31.5865C36.8913 27.2596 36.675 22.9327 36.675 19.0385C36.675 16.0097 36.9346 13.8462 37.4971 11.6827C38.0596 9.51923 39.0548 7.35577 40.5259 5.625C41.824 3.89423 43.5548 2.16346 46.1509 1.29808C48.7471 0.432692 51.7759 0 55.2375 0C56.5355 0 57.8336 2.98023e-08 59.1317 0.432692C60.4298 0.432692 62.1605 0.86538 64.324 1.73077C66.0548 2.59615 67.7855 3.46154 69.0836 4.75962C70.8144 6.05769 72.1125 8.22115 73.4105 10.3847C74.2759 12.9808 75.1413 15.577 75.574 19.0385C76.0067 21.202 76.0067 23.3654 76.4394 26.3943C76.4394 28.9904 76.8721 30.7211 76.8721 32.0192C77.3048 33.3173 77.3048 35.0481 77.7375 37.2116C78.1702 38.9424 78.6029 40.673 79.4682 41.9711C80.3336 43.7019 81.199 45.4327 82.4971 47.1635C83.7952 49.327 85.5259 51.4904 87.2567 54.0866C91.1509 58.4135 94.1798 63.173 95.9105 67.9326C98.074 72.2596 99.3721 77.8846 99.3721 83.899C99.3721 86.8846 98.9394 89.7837 98.074 92.5962C98.9394 92.5962 99.3721 92.9423 99.8048 93.548C100.238 94.1538 100.67 95.4519 101.103 97.4855L101.536 100.687C101.968 101.639 102.401 102.548 103.699 103.327C104.564 104.106 105.43 104.755 106.728 105.274C107.593 105.707 108.891 106.312 109.757 107.091C110.622 107.957 111.055 108.865 111.055 109.817C111.055 111.288 110.622 112.37 109.757 113.149C108.891 114.014 108.026 114.62 106.728 115.009C105.863 115.442 104.132 116.308 101.536 117.528C99.3721 118.809 97.2086 120.362 95.0452 122.201L90.7182 125.883C88.9875 127.571 87.2567 128.782 85.9586 129.518C84.6605 130.296 82.9298 130.686 81.199 130.686L78.1702 130.34C74.7086 129.431 72.5452 127.7 71.2471 125.061C64.324 124.221 58.699 123.806 55.2375 123.806"/>
</mask>
<path d="M53.1173 32.3653L53.1173 31.3653H53.1173V32.3653ZM51.8192 31.5L51.1121 32.2072L51.1122 32.2072L51.8192 31.5ZM51.8192 30.202L52.2664 29.3075L52.0553 29.202H51.8192V30.202ZM52.6846 30.6347L53.3917 29.9275L53.277 29.8128L53.1318 29.7402L52.6846 30.6347ZM45.7615 27.6058V28.6058H46.7615V27.6058H45.7615ZM43.598 24.1443V23.1443H42.598L42.598 24.1442L43.598 24.1443ZM43.1654 24.577V23.577H42.1654V24.577H43.1654ZM43.1654 25.4424H42.1654V26.4424H43.1654V25.4424ZM44.4634 25.4424H45.4634V24.4424H44.4634V25.4424ZM44.8961 27.6058H43.8961V28.6058H44.8961V27.6058ZM60.9057 25.4424H59.9057V26.4424H60.9057V25.4424ZM62.6365 27.6058L61.6878 27.922L61.9158 28.6058H62.6365V27.6058ZM63.5019 27.6058V28.6058H65.9161L64.209 26.8986L63.5019 27.6058ZM61.3384 24.1443V23.1443H60.9242L60.6313 23.4371L61.3384 24.1443ZM60.473 24.577V23.577H59.473V24.577H60.473ZM47.925 30.6347V29.6347H47.5108L47.2179 29.9275L47.925 30.6347ZM49.223 30.202V29.202H48.8088L48.5158 29.4949L49.223 30.202ZM49.6557 30.6347H50.6557V30.6346L49.6557 30.6347ZM48.3577 32.3653V33.3653H48.7719L49.0648 33.0725L48.3577 32.3653ZM43.1654 31.9327L43.8725 32.6398L44.8536 31.6587L43.6126 31.0382L43.1654 31.9327ZM41.8673 24.577L42.5744 25.2841L42.6892 25.1693L42.7618 25.0242L41.8673 24.577ZM46.1942 24.577L47.1429 24.2607L47.0683 24.0368L46.9013 23.8698L46.1942 24.577ZM47.0596 29.3365H46.0596V30.3365H47.0596V29.3365ZM47.4923 29.3365V30.3365H48.4923V29.3365H47.4923ZM47.4923 28.9039V27.9039H46.4923V28.9039H47.4923ZM40.5692 22.4135L41.4637 22.8607L41.4954 22.7971L41.5179 22.7297L40.5692 22.4135ZM41.8673 32.798L41.1602 33.5052L41.8673 34.2122L42.5744 33.5052L41.8673 32.798ZM97.2519 92.9424L96.7375 93.7999L96.975 93.9424H97.2519V92.9424ZM95.9538 89.048L95.2467 89.7552L95.2527 89.7612L95.2588 89.767L95.9538 89.048ZM89.8961 86.5817L90.0283 85.5905L90.012 85.5883L89.9957 85.5867L89.8961 86.5817ZM89.0307 86.5385L88.8347 87.5191L88.9318 87.5385H89.0307L89.0307 86.5385ZM88.1654 86.452L88.0659 87.447L88.1155 87.452H88.1654V86.452ZM86.4346 86.2355L85.4829 85.9285L85.1386 86.996L86.2384 87.2161L86.4346 86.2355ZM85.5692 65.5962L86.4013 65.0415L86.4013 65.0414L85.5692 65.5962ZM79.9442 61.2692L80.1403 60.2887L79.6156 60.1837L79.2371 60.5621L79.9442 61.2692ZM79.5115 62.1347H78.5115V62.8117L79.1401 63.0631L79.5115 62.1347ZM85.1365 67.327L86.0557 66.933L86.0441 66.906L86.031 66.8797L85.1365 67.327ZM84.7038 86.5817L85.0752 87.5102L85.484 87.3467L85.6394 86.9348L84.7038 86.5817ZM79.9442 91.3847L79.056 90.9252L78.9442 91.1413V91.3847H79.9442ZM80.3769 91.9903V92.9903H80.7606L81.0459 92.7337L80.3769 91.9903ZM81.2423 90.8653L80.5947 90.1034L80.466 90.2128L80.3804 90.3583L81.2423 90.8653ZM83.4057 88.6587L82.9127 87.7886L82.8303 87.8354L82.758 87.8968L83.4057 88.6587ZM92.4923 88.4424L92.0694 89.3485L92.125 89.3744L92.1832 89.3934L92.4923 88.4424ZM95.5211 90.3028L94.6731 90.8329L94.6809 90.8453L94.6891 90.8575L95.5211 90.3028ZM96.8192 92.1202H97.8192V91.7801L97.6118 91.5105L96.8192 92.1202ZM57.4442 30.202V31.202H59.8584L58.1513 29.4948L57.4442 30.202ZM57.8769 24.1443L57.1698 23.4371L57.0998 23.5072L57.0449 23.5896L57.8769 24.1443ZM63.5019 24.577L64.4506 24.2607L64.376 24.0368L64.209 23.8698L63.5019 24.577ZM61.7711 31.9327L61.5286 30.9625L59.8151 31.3908L61.064 32.6398L61.7711 31.9327ZM64.8 33.2308L64.3528 34.1252L65.5638 34.7307L65.7864 33.3952L64.8 33.2308ZM64.3673 21.1154L65.1994 20.5606L65.1444 20.4782L65.0744 20.4082L64.3673 21.1154ZM56.1461 20.6826L55.5915 19.8506L55.425 19.9615L55.3141 20.1279L56.1461 20.6826ZM56.1461 29.7693L55.2517 30.2165L55.5281 30.7693H56.1461V29.7693ZM62.6365 37.125L63.2057 37.9472L63.6365 37.649L63.6365 37.1251L62.6365 37.125ZM40.5692 39.2885L41.2094 38.5202L39.6748 39.7357L40.5692 39.2885ZM61.3384 41.8847L60.7837 41.0526L60.7743 41.0589L60.765 41.0654L61.3384 41.8847ZM65.2327 39.2885L65.7874 40.1205L65.8698 40.0656L65.9399 39.9955L65.2327 39.2885ZM66.5307 35.3942L65.6363 35.8415L65.9127 36.3942H66.5307V35.3942ZM59.6077 31.9327L59.2016 32.8465L59.2596 32.8722L59.3204 32.8905L59.6077 31.9327ZM44.4634 31.9327L43.9673 31.0644L43.9374 31.0815L43.9087 31.1006L44.4634 31.9327ZM40.1365 37.125H39.1365V37.5393L39.4295 37.8322L40.1365 37.125ZM41.0019 38.423L40.1075 38.8703L40.201 39.0574L40.3617 39.1913L41.0019 38.423ZM62.2038 35.827H63.2038V33.7961L61.5941 35.0343L62.2038 35.827ZM62.2038 36.6924H61.2038V37.6924H62.2038V36.6924ZM83.4057 129.029L83.2097 128.049L83.1638 128.058L83.119 128.071L83.4057 129.029ZM85.5692 128.207L84.9956 127.388L84.9696 127.406L84.9447 127.426L85.5692 128.207ZM86.8673 127.255L86.5369 126.311L86.376 126.368L86.2428 126.474L86.8673 127.255ZM88.1654 126.519L88.6121 127.414L88.7245 127.358L88.8195 127.276L88.1654 126.519ZM95.5211 120.159L94.8974 119.377L94.882 119.39L94.8671 119.403L95.5211 120.159ZM101.146 116.524L101.582 117.424L101.622 117.405L101.661 117.382L101.146 116.524ZM105.473 114.404L105.215 113.438L105.137 113.459L105.063 113.492L105.473 114.404ZM108.502 112.846L109.127 113.627L109.248 113.53L109.334 113.401L108.502 112.846ZM107.637 107.437L108.262 106.657L108.261 106.656L107.637 107.437ZM105.04 105.966L104.709 106.91L104.71 106.91L105.04 105.966ZM102.012 103.803L101.22 104.413L101.275 104.485L101.343 104.547L102.012 103.803ZM99.848 99.0865L98.8626 99.2564L98.8659 99.2757L98.8699 99.2948L99.848 99.0865ZM99.4154 96.577L100.401 96.4071L100.385 96.3162L100.353 96.2296L99.4154 96.577ZM98.55 94.0674H97.55V94.454L97.8101 94.7401L98.55 94.0674ZM96.3865 95.0192L97.0342 95.7812L97.1628 95.6718L97.2485 95.5263L96.3865 95.0192ZM93.7904 97.4424L93.0833 96.7353L92.9686 96.85L92.896 96.9951L93.7904 97.4424ZM91.1942 99.8222L91.6874 100.692L91.7698 100.645L91.8419 100.584L91.1942 99.8222ZM81.2423 98.1347L80.3943 98.6647L80.4077 98.6861L80.4222 98.7069L81.2423 98.1347ZM79.5115 93.3317L80.4843 93.1001L80.4085 92.7818L80.1592 92.5698L79.5115 93.3317ZM73.8865 115.053L74.8382 115.36L74.8865 115.21V115.053H73.8865ZM73.4538 119.639L74.438 119.816L74.4538 119.729V119.639H73.4538ZM72.5884 124.442L71.6043 124.265L71.5884 124.353V124.442H72.5884ZM23.7375 125.996L23.3929 126.935L23.3959 126.936L23.7375 125.996ZM40.9586 124.961L41.739 125.586L41.8016 125.508L41.8474 125.42L40.9586 124.961ZM33.9923 106.468L33.1913 107.067L33.1986 107.077L33.2062 107.086L33.9923 106.468ZM31.05 102.531L30.245 103.124L30.249 103.13L31.05 102.531ZM28.7567 98.7663L27.8763 99.2405L27.8809 99.2491L27.8857 99.2576L28.7567 98.7663ZM26.3769 94.8721L25.5064 95.3642L25.5324 95.4103L25.5632 95.4534L26.3769 94.8721ZM23.7375 91.8866L23.075 92.6355L23.0819 92.6417L23.089 92.6478L23.7375 91.8866ZM19.8865 89.8961L20.1222 88.9243L19.9119 88.8733L19.6994 88.9138L19.8865 89.8961ZM16.2086 91.6702L15.4036 91.0771L15.4035 91.0771L16.2086 91.6702ZM15.1702 94.3529L16.1602 94.4943L16.1638 94.4689L16.1661 94.4434L15.1702 94.3529ZM14.348 96.1702L14.8626 97.0277L14.8927 97.0096L14.9215 96.9895L14.348 96.1702ZM12.1846 96.8625V97.8625H12.2921L12.3971 97.8397L12.1846 96.8625ZM11.0163 96.9058V97.9058H11.0547L11.0929 97.9028L11.0163 96.9058ZM5.175 97.5981L4.70925 96.7131L4.54142 96.8015L4.41759 96.9451L5.175 97.5981ZM4.05 105.3L3.07144 105.506L3.07258 105.511L4.05 105.3ZM2.96827 114.43L2.11448 113.91L2.10906 113.918L2.10383 113.927L2.96827 114.43ZM1.32404 118.661H0.32404V118.788L0.355679 118.911L1.32404 118.661ZM26.6365 72.714L27.5615 73.0942L27.565 73.0853L26.6365 72.714ZM31.2663 64.4928L32.0189 65.1512L32.3436 64.7802L32.2469 64.2967L31.2663 64.4928ZM30.6173 64.0602L29.9102 64.7673L30.2031 65.0602H30.6173V64.0602ZM30.1846 63.6274L30.8917 62.9203L30.1726 62.2012L29.4657 62.9324L30.1846 63.6274ZM25.598 72.2812L26.5042 72.7041L26.5125 72.6865L26.52 72.6685L25.598 72.2812ZM24.1702 87.512L23.3083 88.0191L23.3226 88.0433L23.3382 88.0667L24.1702 87.512ZM31.05 93.6562L30.4624 94.4654L30.4831 94.4804L30.5045 94.4943L31.05 93.6562ZM35.6365 96.6419L36.2917 95.8864L36.2397 95.8413L36.1821 95.8038L35.6365 96.6419ZM41.3913 108.368L40.7826 107.575L40.6944 107.642L40.6233 107.728L41.3913 108.368ZM39.574 112.824L38.6936 113.298L38.7271 113.36L38.7689 113.417L39.574 112.824ZM72.9779 104.82L73.7886 105.406L73.9779 105.144V104.82H72.9779ZM72.5452 100.752H71.5452V101.092L71.7523 101.362L72.5452 100.752ZM73.8432 92.8342L72.9952 92.3041L72.9952 92.3042L73.8432 92.8342ZM79.4682 91.7524L78.8682 92.5524L80.2392 93.5809L80.4599 91.8812L79.4682 91.7524ZM79.0355 72.714L78.0491 72.8783L78.0584 72.9342L78.074 72.9887L79.0355 72.714ZM76.8721 66.2235L77.7666 65.7763L77.7387 65.7206L77.7042 65.6688L76.8721 66.2235ZM74.2759 62.3293L73.4439 62.884V62.8841L74.2759 62.3293ZM72.1125 58.4352L71.1424 58.6777L71.1844 58.8457L71.2805 58.9899L72.1125 58.4352ZM71.2471 53.2428H72.2471V52.9658L72.1046 52.7282L71.2471 53.2428ZM67.7855 46.7524L66.857 47.1238L66.8868 47.1982L66.928 47.267L67.7855 46.7524ZM65.1894 40.6948L66.0838 40.2475L65.5383 39.1565L64.5755 39.9054L65.1894 40.6948ZM61.2952 43.7235L61.8687 44.5428L61.8893 44.5284L61.9092 44.5129L61.2952 43.7235ZM44.4202 45.8871L45.2202 45.2871L45.1502 45.1936L45.0604 45.1188L44.4202 45.8871ZM41.824 43.7235L42.4642 42.9553L40.824 41.5885V43.7235H41.824ZM40.5259 48.4832L41.4113 48.948L41.4159 48.9392L41.4203 48.9304L40.5259 48.4832ZM37.8 53.6754L36.9146 53.2106L36.8907 53.2562L36.8716 53.304L37.8 53.6754ZM35.8096 59.7332L36.7902 59.9293L36.7998 59.8813L36.8047 59.8327L35.8096 59.7332ZM35.4202 61.464V60.464H34.8022L34.5258 61.0167L35.4202 61.464ZM32.175 67.9544L33.0549 68.4295L33.0624 68.4156L33.0695 68.4016L32.175 67.9544ZM27.1557 88.5072L26.5884 89.3307L28.5295 90.668L28.1421 88.3429L27.1557 88.5072ZM42.2567 126.086H41.2567V127.702L42.7029 126.981L42.2567 126.086ZM42.2567 125.957H43.2567V123.195L41.4885 125.317L42.2567 125.957ZM24.3432 127.428L24.6864 126.489L24.677 126.485L24.6676 126.482L24.3432 127.428ZM12.2711 123.888L11.9961 124.85L12.0237 124.857L12.0518 124.864L12.2711 123.888ZM9.89133 123.443L9.73242 124.43L9.7347 124.431L9.89133 123.443ZM6.55962 122.85L6.34978 123.828L6.36354 123.831L6.55962 122.85ZM3.4875 121.963L3.82102 121.02L3.80508 121.015L3.78895 121.01L3.4875 121.963ZM0.89135 120.634L0.217213 121.373L0.233811 121.388L0.251072 121.402L0.89135 120.634ZM0.441347 116.567L-0.423019 116.064L-0.465752 116.138L-0.495477 116.217L0.441347 116.567ZM1.32404 115.183L2.14284 115.757L2.1557 115.739L2.16772 115.72L1.32404 115.183ZM2.05962 113.841L1.22784 113.286L1.16984 113.373L1.13105 113.47L2.05962 113.841ZM2.66538 112.63L1.75135 112.225L1.74392 112.241L1.7371 112.258L2.66538 112.63ZM3.09808 111.375L2.11747 111.179L2.11577 111.188L2.11421 111.196L3.09808 111.375ZM2.75192 106.053L3.74072 105.904L3.74029 105.901L2.75192 106.053ZM13.3096 94.8895L13.8057 95.7577L14.0931 95.5935L14.2258 95.2903L13.3096 94.8895ZM14.0452 93.1153L13.1221 92.7308L13.1081 92.7645L13.0965 92.7991L14.0452 93.1153ZM14.4346 92.0337L15.329 92.4811L15.3608 92.4174L15.3833 92.3498L14.4346 92.0337ZM14.6942 91.298L13.8261 90.8018L13.7915 90.8622L13.7657 90.9269L14.6942 91.298ZM15.3865 90.3028L16.1391 90.9613L16.6901 90.3315L16.1674 89.6781L15.3865 90.3028ZM14.9538 87.4472L15.9025 87.7633L15.9538 87.6094V87.4472H14.9538ZM17.2471 80.7837L16.3729 80.298L16.3662 80.3103L17.2471 80.7837ZM18.7615 78.0577L19.6357 78.5434L19.6392 78.5371L19.6425 78.5309L18.7615 78.0577ZM21.6605 72.2597L20.7402 71.8685L20.736 71.8783L20.7321 71.8883L21.6605 72.2597ZM24.0404 64.4712L25.0106 64.7137L25.013 64.7039L25.0153 64.694L24.0404 64.4712ZM28.973 55.3847L29.7324 56.0355L29.7413 56.0248L28.973 55.3847ZM32.2182 51.4903L31.4625 50.8354L31.4562 50.8427L31.45 50.8502L32.2182 51.4903ZM36.7615 45L37.6648 45.4291L37.6648 45.4291L36.7615 45ZM37.324 31.5865L36.3289 31.6861L36.33 31.6959L37.324 31.5865ZM37.4971 11.6827L36.5293 11.431V11.431L37.4971 11.6827ZM40.5259 5.625L41.2879 6.27263L41.3076 6.2494L41.3259 6.22501L40.5259 5.625ZM46.1509 1.29808L45.8347 0.349395L45.8347 0.349398L46.1509 1.29808ZM59.1317 0.432692L58.8155 1.38138L58.9695 1.43269H59.1317V0.432692ZM64.324 1.73077L64.7712 0.836339L64.734 0.817739L64.6954 0.802292L64.324 1.73077ZM69.0836 4.75962L68.3765 5.46673L68.4268 5.51699L68.4836 5.55963L69.0836 4.75962ZM73.4105 10.3847L74.3592 10.0684L74.3245 9.96429L74.268 9.87018L73.4105 10.3847ZM75.574 19.0385L74.5817 19.1625L74.5863 19.1987L74.5934 19.2346L75.574 19.0385ZM76.4394 26.3943H77.4394V26.3232L77.4294 26.2528L76.4394 26.3943ZM76.8721 32.0192H75.8721V32.1815L75.9234 32.3355L76.8721 32.0192ZM77.7375 37.2116L76.7569 37.4077L76.7616 37.431L76.7674 37.4541L77.7375 37.2116ZM79.4682 41.9711L80.3627 41.5239L80.3348 41.4683L80.3003 41.4165L79.4682 41.9711ZM82.4971 47.1635L83.3546 46.649L83.3281 46.6047L83.2971 46.5635L82.4971 47.1635ZM87.2567 54.0866L86.4247 54.6413L86.4649 54.7016L86.5134 54.7555L87.2567 54.0866ZM95.9105 67.9326L94.9707 68.2744L94.9904 68.3284L95.0161 68.3799L95.9105 67.9326ZM98.074 92.5962L97.1182 92.3021L96.7201 93.5962H98.074V92.5962ZM99.8048 93.548L98.9911 94.1293L98.9913 94.1296L99.8048 93.548ZM101.103 97.4855L102.094 97.3515L102.089 97.3142L102.081 97.2773L101.103 97.4855ZM101.536 100.687L100.545 100.821L100.565 100.967L100.625 101.1L101.536 100.687ZM103.699 103.327L104.368 102.584L104.296 102.519L104.214 102.47L103.699 103.327ZM106.728 105.274L107.176 104.38L107.138 104.361L107.099 104.346L106.728 105.274ZM109.757 107.091L110.464 106.384L110.446 106.366L110.426 106.348L109.757 107.091ZM109.757 113.149L109.088 112.406L109.069 112.423L109.05 112.442L109.757 113.149ZM106.728 115.009L106.441 114.051L106.358 114.076L106.28 114.115L106.728 115.009ZM101.536 117.528L101.111 116.623L101.067 116.643L101.026 116.668L101.536 117.528ZM95.0452 122.201L94.3976 121.439L94.3972 121.44L95.0452 122.201ZM90.7182 125.883L90.0702 125.122L90.0443 125.144L90.02 125.167L90.7182 125.883ZM85.9586 129.518L85.4654 128.648L85.4549 128.654L85.4446 128.66L85.9586 129.518ZM81.199 130.686L81.0855 131.68L81.1421 131.686H81.199V130.686ZM78.1702 130.34L77.9162 131.307L77.9855 131.326L78.0567 131.334L78.1702 130.34ZM71.2471 125.061L72.1444 124.62L71.9053 124.134L71.3676 124.068L71.2471 125.061ZM53.55 31.9327H52.55C52.55 31.8658 52.5696 31.7493 52.6504 31.6281C52.727 31.5132 52.8219 31.4491 52.8865 31.4168C52.9471 31.3865 52.9956 31.3763 53.0205 31.3722C53.0354 31.3697 53.0499 31.3681 53.0647 31.367C53.0722 31.3665 53.0803 31.3661 53.0889 31.3658C53.0932 31.3657 53.0977 31.3655 53.1024 31.3655C53.1048 31.3654 53.1072 31.3654 53.1097 31.3654C53.111 31.3654 53.1122 31.3654 53.1135 31.3654C53.1141 31.3654 53.1147 31.3654 53.1154 31.3654C53.1157 31.3654 53.1162 31.3653 53.1164 31.3653C53.1168 31.3653 53.1173 31.3653 53.1173 32.3653C53.1173 33.3653 53.1178 33.3653 53.1183 33.3653C53.1185 33.3653 53.119 33.3653 53.1193 33.3653C53.12 33.3653 53.1207 33.3653 53.1213 33.3653C53.1227 33.3653 53.1241 33.3653 53.1256 33.3653C53.1285 33.3653 53.1315 33.3653 53.1347 33.3652C53.1411 33.3651 53.148 33.3649 53.1555 33.3647C53.1705 33.3642 53.1878 33.3633 53.2072 33.362C53.2456 33.3592 53.2939 33.3542 53.3493 33.345C53.4554 33.3273 53.6121 33.2901 53.7809 33.2057C53.9536 33.1193 54.1567 32.9741 54.3145 32.7375C54.4764 32.4947 54.55 32.2158 54.55 31.9327H53.55ZM53.1173 32.3653V31.3653H52.6846V32.3653V33.3653H53.1173V32.3653ZM52.6846 32.3653V31.3653C52.7148 31.3653 52.7656 31.3693 52.8283 31.3881C52.8927 31.4074 52.9515 31.437 53.0012 31.4717C53.0892 31.5334 53.1184 31.5919 53.084 31.5402C53.0685 31.517 53.0515 31.4896 53.0197 31.4381C52.991 31.3917 52.9525 31.3295 52.9082 31.263C52.8167 31.1259 52.6948 30.9614 52.5263 30.7929L51.8192 31.5L51.1122 32.2072C51.2351 32.3302 51.2385 32.3776 51.4199 32.6497C51.4936 32.7602 51.631 32.954 51.8543 33.1102C52.1055 33.2861 52.3912 33.3653 52.6846 33.3653V32.3653ZM51.8192 31.5C52.5263 30.7929 52.5265 30.7931 52.5267 30.7933C52.5267 30.7933 52.5269 30.7935 52.527 30.7936C52.5272 30.7938 52.5274 30.794 52.5276 30.7943C52.5281 30.7947 52.5284 30.7951 52.5288 30.7954C52.5295 30.7962 52.5302 30.7968 52.5307 30.7974C52.5318 30.7985 52.5326 30.7992 52.533 30.7997C52.5338 30.8005 52.5333 30.8 52.5317 30.7983C52.5284 30.7948 52.521 30.7867 52.5109 30.7749C52.4897 30.7502 52.4616 30.7149 52.4349 30.6749C52.36 30.5625 52.3865 30.5504 52.3865 30.6347H51.3865H50.3865C50.3865 31.1516 50.6294 31.5722 50.7708 31.7843C50.8524 31.9066 50.9324 32.0066 50.9924 32.0765C51.0228 32.112 51.0492 32.1411 51.0696 32.1629C51.0798 32.1739 51.0886 32.1831 51.0958 32.1905C51.0993 32.1942 51.1025 32.1974 51.1052 32.2002C51.1066 32.2016 51.1079 32.2029 51.109 32.204C51.1096 32.2046 51.1101 32.2052 51.1107 32.2057C51.1109 32.2059 51.1112 32.2062 51.1114 32.2064C51.1115 32.2066 51.1117 32.2067 51.1118 32.2068C51.1119 32.207 51.1121 32.2072 51.8192 31.5ZM51.3865 30.6347H52.3865C52.3865 30.502 52.388 30.4874 52.3872 30.4949C52.3872 30.4951 52.3685 30.7424 52.1477 30.9631C51.9269 31.1839 51.6797 31.2026 51.6795 31.2026C51.672 31.2034 51.6866 31.202 51.8192 31.202V30.202V29.202C51.7355 29.202 51.5879 29.2005 51.4586 29.2148C51.3368 29.2284 51.0084 29.2741 50.7335 29.5489C50.4586 29.8238 50.4129 30.1522 50.3994 30.2741C50.385 30.4033 50.3865 30.5509 50.3865 30.6347H51.3865ZM51.8192 30.202L51.372 31.0964L52.2374 31.5291L52.6846 30.6347L53.1318 29.7402L52.2664 29.3075L51.8192 30.202ZM52.6846 30.6347L51.9775 31.3418C52.2069 31.5712 52.3683 31.7353 52.4796 31.8837C52.5988 32.0426 52.55 32.0427 52.55 31.9327H53.55H54.55C54.55 31.39 54.2849 30.9574 54.0796 30.6837C53.8664 30.3994 53.595 30.1308 53.3917 29.9275L52.6846 30.6347ZM45.7615 27.6058H46.7615C46.7615 26.4086 46.5248 25.3354 46.0102 24.5268C45.4739 23.6841 44.6345 23.1443 43.598 23.1443V24.1443V25.1443C43.8596 25.1443 44.102 25.2535 44.3229 25.6006C44.5656 25.9819 44.7615 26.6395 44.7615 27.6058H45.7615ZM43.598 24.1443C42.598 24.1442 42.598 24.1438 42.598 24.1433C42.598 24.1431 42.598 24.1426 42.598 24.1423C42.598 24.1417 42.598 24.141 42.598 24.1404C42.598 24.1391 42.598 24.1379 42.5981 24.1366C42.5981 24.1341 42.5981 24.1317 42.5981 24.1294C42.5982 24.1246 42.5983 24.1201 42.5985 24.1158C42.5988 24.1072 42.5992 24.0992 42.5997 24.0916C42.6008 24.0769 42.6024 24.0623 42.6049 24.0475C42.609 24.0226 42.6192 23.9741 42.6495 23.9135C42.6817 23.8489 42.7458 23.754 42.8607 23.6773C42.9819 23.5965 43.0985 23.577 43.1654 23.577V24.577V25.577C43.4486 25.577 43.7275 25.5033 43.9703 25.3413C44.2069 25.1836 44.3521 24.9804 44.4384 24.8077C44.5228 24.6389 44.56 24.4823 44.5777 24.3762C44.5869 24.3208 44.5919 24.2725 44.5946 24.2341C44.596 24.2147 44.5969 24.1974 44.5974 24.1824C44.5976 24.1749 44.5978 24.168 44.5979 24.1616C44.5979 24.1584 44.598 24.1554 44.598 24.1525C44.598 24.1511 44.598 24.1496 44.598 24.1483C44.598 24.1476 44.598 24.1469 44.598 24.1462C44.598 24.1459 44.598 24.1454 44.598 24.1452C44.598 24.1447 44.598 24.1443 43.598 24.1443ZM43.1654 24.577H42.1654V25.4424H43.1654H44.1654V24.577H43.1654ZM43.1654 25.4424V26.4424H44.4634V25.4424V24.4424H43.1654V25.4424ZM44.4634 25.4424H43.4634C43.4634 26.0534 43.6228 26.5154 43.7311 26.8403C43.8391 27.1644 43.8961 27.3514 43.8961 27.6058H44.8961H45.8961C45.8961 26.9947 45.7368 26.5327 45.6285 26.2078C45.5204 25.8836 45.4634 25.6966 45.4634 25.4424H44.4634ZM44.8961 27.6058V28.6058H45.7615V27.6058V26.6058H44.8961V27.6058ZM60.9057 25.4424V26.4424C60.9241 26.4424 60.9766 26.4183 61.1197 26.6185C61.2946 26.8634 61.4724 27.2756 61.6878 27.922L62.6365 27.6058L63.5852 27.2895C63.368 26.6378 63.1131 25.9683 62.7471 25.456C62.3493 24.8991 61.7528 24.4424 60.9057 24.4424V25.4424ZM62.6365 27.6058V28.6058H63.5019V27.6058V26.6058H62.6365V27.6058ZM63.5019 27.6058L64.209 26.8986C64.1236 26.8132 64.1045 26.7585 64.0935 26.7142C64.074 26.6363 64.0692 26.5426 64.0692 26.3076H63.0692H62.0692C62.0692 26.7552 62.0512 27.5693 62.7948 28.3129L63.5019 27.6058ZM63.0692 26.3076H64.0692C64.0692 25.8602 64.0872 25.0461 63.3436 24.3025L62.6365 25.0097L61.9294 25.7168C62.0149 25.8022 62.0339 25.857 62.045 25.9012C62.0645 25.9791 62.0692 26.0728 62.0692 26.3076H63.0692ZM62.6365 25.0097L63.3436 24.3025C63.1404 24.0993 62.8718 23.8279 62.5875 23.6147C62.3137 23.4093 61.8811 23.1443 61.3384 23.1443V24.1443V25.1443C61.2285 25.1443 61.2286 25.0955 61.3875 25.2147C61.5359 25.326 61.7 25.4873 61.9294 25.7168L62.6365 25.0097ZM61.3384 24.1443C60.6313 23.4371 60.6315 23.437 60.6317 23.4368C60.6317 23.4368 60.6319 23.4366 60.632 23.4365C60.6322 23.4363 60.6324 23.436 60.6326 23.4358C60.633 23.4354 60.6334 23.435 60.6338 23.4347C60.6345 23.4339 60.6352 23.4333 60.6357 23.4328C60.6369 23.4317 60.6376 23.4309 60.638 23.4305C60.6389 23.4297 60.6384 23.4302 60.6367 23.4318C60.6332 23.4351 60.6251 23.4425 60.6133 23.4526C60.5885 23.4738 60.5533 23.5019 60.5133 23.5286C60.4008 23.6035 60.3888 23.577 60.473 23.577V24.577V25.577C60.99 25.577 61.4106 25.334 61.6227 25.1926C61.745 25.1111 61.8449 25.031 61.9149 24.9711C61.9503 24.9407 61.9795 24.9143 62.0013 24.8939C62.0123 24.8837 62.0215 24.8749 62.0289 24.8677C62.0326 24.8641 62.0358 24.861 62.0386 24.8582C62.04 24.8569 62.0413 24.8556 62.0424 24.8545C62.043 24.8539 62.0435 24.8533 62.0441 24.8528C62.0443 24.8526 62.0446 24.8523 62.0448 24.8521C62.0449 24.8519 62.0451 24.8518 62.0452 24.8517C62.0454 24.8515 62.0455 24.8514 61.3384 24.1443ZM60.473 24.577H59.473C59.473 24.8702 59.5513 25.1287 59.6831 25.3484C59.7971 25.5384 59.9413 25.6758 59.9823 25.7168C60.0495 25.784 60.0135 25.7547 59.9806 25.6999C59.9299 25.6155 59.9057 25.5193 59.9057 25.4424H60.9057H61.9057C61.9057 25.1491 61.8274 24.8906 61.6956 24.6709C61.5816 24.4809 61.4374 24.3435 61.3965 24.3025C61.3293 24.2353 61.3653 24.2646 61.3981 24.3194C61.4488 24.4038 61.473 24.5 61.473 24.577H60.473ZM47.925 32.3653V31.3653C47.7924 31.3653 47.7778 31.3639 47.7853 31.3647C47.7855 31.3647 48.0327 31.3834 48.2535 31.6041C48.4743 31.8249 48.493 32.0722 48.493 32.0724C48.4938 32.0799 48.4923 32.0653 48.4923 31.9327H47.4923H46.4923C46.4923 32.0164 46.4908 32.164 46.5052 32.2932C46.5187 32.4151 46.5644 32.7435 46.8393 33.0184C47.1142 33.2932 47.4426 33.3389 47.5644 33.3525C47.6937 33.3668 47.8413 33.3653 47.925 33.3653V32.3653ZM47.4923 31.9327H48.4923C48.4923 31.6978 48.4971 31.6041 48.5166 31.5262C48.5276 31.482 48.5467 31.4272 48.6321 31.3418L47.925 30.6347L47.2179 29.9275C46.4743 30.6711 46.4923 31.4852 46.4923 31.9327H47.4923ZM47.925 30.6347V31.6347C48.5305 31.6347 49.0072 31.482 49.3458 31.3127C49.5135 31.2289 49.6454 31.1419 49.742 31.0695C49.7903 31.0332 49.8301 31.0004 49.8613 30.9731C49.877 30.9594 49.8905 30.947 49.902 30.9363C49.9077 30.9309 49.9129 30.9259 49.9176 30.9214C49.92 30.9191 49.9222 30.9169 49.9243 30.9148C49.9254 30.9138 49.9264 30.9128 49.9274 30.9118C49.9279 30.9113 49.9283 30.9109 49.9288 30.9104C49.9291 30.9101 49.9294 30.9098 49.9295 30.9097C49.9299 30.9093 49.9302 30.909 49.223 30.202C48.5158 29.4949 48.5162 29.4946 48.5165 29.4942C48.5166 29.4941 48.517 29.4938 48.5172 29.4936C48.5177 29.4931 48.5181 29.4927 48.5185 29.4922C48.5194 29.4914 48.5203 29.4905 48.5211 29.4897C48.5228 29.488 48.5244 29.4865 48.5259 29.485C48.5289 29.4821 48.5316 29.4796 48.5339 29.4773C48.5386 29.4729 48.5421 29.4699 48.5442 29.468C48.5484 29.4643 48.5476 29.4653 48.5418 29.4696C48.5302 29.4783 48.4999 29.4996 48.4513 29.5239C48.3573 29.5709 48.185 29.6347 47.925 29.6347V30.6347ZM49.223 30.202V31.202C49.1562 31.202 49.0396 31.1824 48.9185 31.1016C48.8036 31.025 48.7395 30.9301 48.7072 30.8655C48.6769 30.8049 48.6667 30.7564 48.6626 30.7314C48.6601 30.7166 48.6585 30.7021 48.6574 30.6873C48.6569 30.6798 48.6565 30.6717 48.6562 30.6631C48.656 30.6588 48.6559 30.6543 48.6558 30.6495C48.6558 30.6472 48.6558 30.6448 48.6558 30.6423C48.6558 30.641 48.6557 30.6398 48.6557 30.6385C48.6557 30.6379 48.6557 30.6372 48.6557 30.6366C48.6557 30.6363 48.6557 30.6358 48.6557 30.6356C48.6557 30.6351 48.6557 30.6347 49.6557 30.6347C50.6557 30.6346 50.6557 30.6342 50.6557 30.6337C50.6557 30.6335 50.6557 30.633 50.6557 30.6327C50.6557 30.632 50.6557 30.6313 50.6557 30.6306C50.6557 30.6293 50.6557 30.6278 50.6557 30.6264C50.6557 30.6235 50.6556 30.6205 50.6556 30.6173C50.6555 30.6109 50.6553 30.604 50.6551 30.5965C50.6546 30.5815 50.6537 30.5642 50.6523 30.5448C50.6496 30.5064 50.6446 30.458 50.6354 30.4026C50.6177 30.2966 50.5805 30.1399 50.4961 29.9711C50.4097 29.7984 50.2645 29.5952 50.0279 29.4375C49.785 29.2756 49.5062 29.202 49.223 29.202V30.202ZM49.6557 30.6347H48.6557C48.6557 30.5005 48.7283 30.4906 48.5503 30.7131C48.377 30.9298 48.1006 31.2083 47.6506 31.6582L48.3577 32.3653L49.0648 33.0725C49.4802 32.6571 49.8528 32.2866 50.1121 31.9625C50.3668 31.6441 50.6557 31.2015 50.6557 30.6347H49.6557ZM48.3577 32.3653V31.3653H47.925V32.3653V33.3653H48.3577V32.3653ZM43.1654 31.9327L43.6126 31.0382C42.914 30.6889 42.5562 30.2998 42.3426 29.837C42.1098 29.3326 42.0019 28.6421 42.0019 27.6058H41.0019H40.0019C40.0019 28.7329 40.1104 29.7733 40.5267 30.6751C40.9621 31.6185 41.6861 32.3111 42.7183 32.8271L43.1654 31.9327ZM41.0019 27.6058H42.0019C42.0019 26.2704 42.0361 25.8224 42.5744 25.2841L41.8673 24.577L41.1602 23.8698C39.9678 25.0623 40.0019 26.3449 40.0019 27.6058H41.0019ZM41.8673 24.577L42.7618 25.0242C43.0016 24.5444 43.4888 24.2789 44.0307 24.2789V23.2789V22.2789C42.8421 22.2789 41.5984 22.8787 40.9729 24.1297L41.8673 24.577ZM44.0307 23.2789V24.2789C44.2598 24.2789 44.3923 24.3251 44.5578 24.4354C44.7815 24.5846 45.0289 24.8258 45.4871 25.2841L46.1942 24.577L46.9013 23.8698C46.0933 23.0618 45.3752 22.2789 44.0307 22.2789V23.2789ZM46.1942 24.577L45.2455 24.8932C45.6894 26.2249 46.0596 27.3646 46.0596 28.4711H47.0596H48.0596C48.0596 26.9815 47.5644 25.5252 47.1429 24.2607L46.1942 24.577ZM47.0596 28.4711H46.0596V29.3365H47.0596H48.0596V28.4711H47.0596ZM47.0596 29.3365V30.3365H47.4923V29.3365V28.3365H47.0596V29.3365ZM47.4923 29.3365H48.4923V28.9039H47.4923H46.4923V29.3365H47.4923ZM47.4923 28.9039V29.9039C47.7234 29.9039 47.9641 29.8428 48.1819 29.7006C48.3909 29.5641 48.5267 29.3872 48.6141 29.2318C48.774 28.9475 48.8325 28.6243 48.8632 28.3788C48.927 27.8684 48.925 27.141 48.925 26.3076H47.925H46.925C46.925 27.2051 46.923 27.7758 46.8787 28.1308C46.8553 28.318 46.8327 28.3193 46.8709 28.2513C46.8974 28.2042 46.9623 28.1084 47.0884 28.026C47.2234 27.9378 47.3694 27.9039 47.4923 27.9039V28.9039ZM47.925 26.3076H48.925C48.925 25.0294 48.9447 23.4383 47.8917 21.8587L47.0596 22.4135L46.2276 22.9682C46.9053 23.9848 46.925 24.9899 46.925 26.3076H47.925ZM47.0596 22.4135L47.8917 21.8587C47.4394 21.1803 46.9233 20.5133 46.2268 20.0257C45.5023 19.5186 44.6487 19.25 43.598 19.25V20.25V21.25C44.2782 21.25 44.7227 21.4142 45.0799 21.6642C45.4651 21.9338 45.8145 22.3485 46.2276 22.9682L47.0596 22.4135ZM43.598 20.25V19.25C41.8925 19.25 40.1965 20.3694 39.6205 22.0972L40.5692 22.4135L41.5179 22.7297C41.8074 21.8613 42.7075 21.25 43.598 21.25V20.25ZM40.5692 22.4135L39.6748 21.9662C38.7139 23.888 38.5307 25.3583 38.5307 27.6058H39.5307H40.5307C40.5307 25.5264 40.6937 24.4005 41.4637 22.8607L40.5692 22.4135ZM39.5307 27.6058H38.5307C38.5307 29.6149 39.2514 31.5964 41.1602 33.5052L41.8673 32.798L42.5744 32.0909C41.0217 30.5383 40.5307 29.0582 40.5307 27.6058H39.5307ZM41.8673 32.798L42.5744 33.5052C42.6646 33.4149 42.7476 33.3678 42.9636 33.2598C43.1803 33.1514 43.53 32.9822 43.8725 32.6398L43.1654 31.9327L42.4583 31.2255C42.3681 31.3158 42.2851 31.3629 42.0692 31.4709C41.8524 31.5793 41.5027 31.7485 41.1602 32.0909L41.8673 32.798ZM97.2519 92.9424V93.9424C97.5279 93.9424 98.1476 93.9004 98.4925 93.3141C98.6286 93.0827 98.6613 92.854 98.6734 92.7268C98.6856 92.5984 98.6846 92.4618 98.6846 92.3799H97.6846H96.6846C96.6846 92.4309 96.6846 92.4657 96.684 92.4957C96.6837 92.5097 96.6833 92.5199 96.683 92.5273C96.6826 92.5347 96.6823 92.5377 96.6824 92.5372C96.6824 92.5368 96.683 92.5311 96.6845 92.5215C96.6861 92.5119 96.689 92.4964 96.6942 92.4765C96.7045 92.4372 96.7255 92.3734 96.7686 92.3001C96.8136 92.2236 96.875 92.1499 96.9524 92.0877C97.028 92.0269 97.1016 91.991 97.1578 91.9704C97.2561 91.9343 97.3093 91.9424 97.2519 91.9424V92.9424ZM97.6846 92.3799H98.6846C98.6846 91.0877 98.0859 89.7181 96.6488 88.3291L95.9538 89.048L95.2588 89.767C96.418 90.8876 96.6846 91.768 96.6846 92.3799H97.6846ZM95.9538 89.048L96.6609 88.3409C95.1386 86.8187 92.7201 85.9494 90.0283 85.5905L89.8961 86.5817L89.764 87.573C92.2645 87.9063 94.1729 88.6814 95.2467 89.7552L95.9538 89.048ZM89.8961 86.5817L89.9957 85.5867C89.7495 85.5621 89.5093 85.5502 89.3345 85.5444C89.2461 85.5415 89.1721 85.54 89.1194 85.5392C89.093 85.5389 89.0719 85.5387 89.0568 85.5386C89.0493 85.5385 89.0433 85.5385 89.0389 85.5385C89.0367 85.5385 89.0349 85.5385 89.0336 85.5385C89.0329 85.5385 89.0323 85.5385 89.0318 85.5385C89.0316 85.5385 89.0314 85.5385 89.0312 85.5385C89.0311 85.5385 89.031 85.5385 89.0309 85.5385C89.0309 85.5385 89.0308 85.5385 89.0308 85.5385C89.0308 85.5385 89.0307 85.5385 89.0307 86.5385C89.0307 87.5385 89.0307 87.5385 89.0306 87.5385C89.0306 87.5385 89.0306 87.5385 89.0306 87.5385C89.0305 87.5385 89.0305 87.5385 89.0304 87.5385C89.0303 87.5385 89.0303 87.5385 89.0303 87.5385C89.0302 87.5385 89.0303 87.5385 89.0304 87.5385C89.0307 87.5385 89.0314 87.5385 89.0325 87.5385C89.0346 87.5385 89.0384 87.5385 89.0435 87.5385C89.0538 87.5386 89.0699 87.5387 89.0908 87.539C89.1328 87.5396 89.194 87.5408 89.2678 87.5433C89.4176 87.5483 89.6101 87.5581 89.7966 87.5768L89.8961 86.5817ZM89.0307 86.5385L89.2268 85.5579C89.0288 85.5183 88.8655 85.4845 88.6975 85.4677C88.5285 85.4508 88.3632 85.452 88.1654 85.452V86.452V87.452C88.4002 87.452 88.4512 87.4531 88.4986 87.4578C88.547 87.4626 88.5999 87.4721 88.8347 87.5191L89.0307 86.5385ZM88.1654 86.452L88.265 85.4569C87.8073 85.4111 87.0032 85.3295 86.6309 85.255L86.4346 86.2355L86.2384 87.2161C86.7315 87.3148 87.6582 87.4062 88.0659 87.447L88.1654 86.452ZM86.4346 86.2355L87.3863 86.5426C88.7186 82.4128 89.1654 78.7605 89.1654 75.548H88.1654H87.1654C87.1654 78.5664 86.7469 82.0103 85.4829 85.9285L86.4346 86.2355ZM88.1654 75.548H89.1654C89.1654 71.0728 88.266 67.8385 86.4013 65.0415L85.5692 65.5962L84.7372 66.1509C86.3341 68.5462 87.1654 71.3695 87.1654 75.548H88.1654ZM85.5692 65.5962L86.4013 65.0414C84.5774 62.3057 82.6459 60.7898 80.1403 60.2887L79.9442 61.2692L79.7481 62.2498C81.5695 62.6141 83.0995 63.6944 84.7372 66.1509L85.5692 65.5962ZM79.9442 61.2692L79.2371 60.5621C79.1365 60.6627 79.0334 60.7655 78.9508 60.8572C78.8663 60.9511 78.7571 61.0829 78.6712 61.2547C78.4896 61.618 78.5115 61.9942 78.5115 62.1347H79.5115H80.5115C80.5115 62.0777 80.5116 62.0412 80.5122 62.011C80.5128 61.9814 80.5137 61.9737 80.5133 61.9772C80.5128 61.9826 80.5101 62.0064 80.5011 62.0407C80.4914 62.077 80.4775 62.1142 80.46 62.1492C80.4282 62.2128 80.4002 62.2365 80.4374 62.1951C80.4541 62.1765 80.4784 62.1508 80.5156 62.1128C80.5528 62.0749 80.5962 62.0315 80.6513 61.9764L79.9442 61.2692ZM79.5115 62.1347L79.1401 63.0631C81.0995 63.8469 83.0642 65.4184 84.2421 67.7742L85.1365 67.327L86.031 66.8797C84.6126 64.043 82.2505 62.1532 79.8829 61.2062L79.5115 62.1347ZM85.1365 67.327L84.2174 67.7209C85.4557 70.6101 85.8673 73.0699 85.8673 75.9808H86.8673H87.8673C87.8673 72.834 87.4136 70.1014 86.0557 66.933L85.1365 67.327ZM86.8673 75.9808H85.8673C85.8673 78.2826 85.4567 81.7544 83.7682 86.2287L84.7038 86.5817L85.6394 86.9348C87.4126 82.2361 87.8673 78.5251 87.8673 75.9808H86.8673ZM84.7038 86.5817L84.3324 85.6533C82.3266 86.4556 80.4357 88.2579 79.056 90.9252L79.9442 91.3847L80.8324 91.8441C82.049 89.4922 83.6194 88.0925 85.0752 87.5102L84.7038 86.5817ZM79.9442 91.3847H78.9442C78.9442 91.4686 78.9434 91.6042 78.955 91.7333C78.9665 91.8609 78.9964 92.0771 79.1134 92.2993C79.2478 92.5546 79.4614 92.752 79.7292 92.868C79.9653 92.9703 80.1992 92.9903 80.3769 92.9903V91.9903V90.9903C80.3383 90.9903 80.41 90.9833 80.5243 91.0329C80.5874 91.0602 80.6593 91.103 80.7284 91.1668C80.7978 91.2309 80.8483 91.3015 80.8832 91.3677C80.9461 91.4872 80.949 91.5763 80.947 91.5538C80.9451 91.5328 80.9442 91.4954 80.9442 91.3847H79.9442ZM80.3769 91.9903C81.0459 92.7337 81.046 92.7335 81.0462 92.7334C81.0462 92.7333 81.0464 92.7332 81.0465 92.7331C81.0468 92.7329 81.047 92.7327 81.0472 92.7324C81.0477 92.732 81.0482 92.7315 81.0488 92.7311C81.0498 92.7301 81.051 92.729 81.0523 92.7279C81.0548 92.7255 81.0578 92.7228 81.0612 92.7196C81.068 92.7133 81.0764 92.7055 81.0864 92.696C81.1062 92.6771 81.1322 92.6517 81.1634 92.6201C81.2257 92.5569 81.3092 92.4681 81.4066 92.3545C81.601 92.1277 81.8535 91.7987 82.1043 91.3724L81.2423 90.8653L80.3804 90.3583C80.1985 90.6676 80.0182 90.9011 79.8881 91.0529C79.8233 91.1285 79.7715 91.1831 79.7392 91.2159C79.7231 91.2323 79.7119 91.2431 79.7064 91.2484C79.7036 91.251 79.7023 91.2522 79.7026 91.252C79.7027 91.2519 79.7032 91.2514 79.7041 91.2506C79.7045 91.2502 79.7051 91.2497 79.7057 91.2491C79.7061 91.2488 79.7064 91.2485 79.7068 91.2481C79.707 91.2479 79.7072 91.2478 79.7074 91.2476C79.7075 91.2475 79.7076 91.2474 79.7077 91.2473C79.7078 91.2472 79.708 91.247 80.3769 91.9903ZM81.2423 90.8653L81.8899 91.6273C82.3843 91.2072 82.7521 90.7884 83.0739 90.4237C83.4012 90.0528 83.6824 89.736 84.0534 89.4206L83.4057 88.6587L82.758 87.8968C82.2638 88.3169 81.896 88.7357 81.5742 89.1004C81.247 89.4713 80.9658 89.788 80.5947 90.1034L81.2423 90.8653ZM83.4057 88.6587L83.8988 89.5287C85.1552 88.8167 85.8344 88.5337 86.8673 88.5337V87.5337V86.5337C85.304 86.5337 84.2525 87.0294 82.9127 87.7886L83.4057 88.6587ZM86.8673 87.5337V88.5337C88.9846 88.5337 90.9715 88.8361 92.0694 89.3485L92.4923 88.4424L92.9152 87.5362C91.417 86.837 89.0769 86.5337 86.8673 86.5337V87.5337ZM92.4923 88.4424L92.1832 89.3934C93.8414 89.9323 94.429 90.4423 94.6731 90.8329L95.5211 90.3028L96.3691 89.7728C95.7478 88.7788 94.6047 88.0774 92.8014 87.4913L92.4923 88.4424ZM95.5211 90.3028L94.6891 90.8575C95.1331 91.5236 95.5789 92.1479 96.0266 92.73L96.8192 92.1202L97.6118 91.5105C97.1942 90.9676 96.7746 90.3803 96.3532 89.7482L95.5211 90.3028ZM96.8192 92.1202H95.8192C95.8192 92.6773 96.0384 93.0966 96.2547 93.3669C96.3609 93.4996 96.4676 93.5988 96.5518 93.6675C96.5943 93.7023 96.6325 93.7304 96.6638 93.7521C96.6796 93.763 96.6937 93.7724 96.7061 93.7803C96.7122 93.7843 96.7179 93.7879 96.7232 93.7911C96.7258 93.7928 96.7283 93.7943 96.7307 93.7958C96.7319 93.7965 96.733 93.7972 96.7342 93.7979C96.7347 93.7982 96.7353 93.7986 96.7358 93.7989C96.7361 93.799 96.7365 93.7993 96.7366 93.7994C96.7371 93.7996 96.7375 93.7999 97.2519 92.9424C97.7664 92.0848 97.7668 92.0851 97.7672 92.0853C97.7673 92.0854 97.7677 92.0856 97.768 92.0858C97.7685 92.0861 97.769 92.0864 97.7695 92.0867C97.7706 92.0874 97.7716 92.088 97.7726 92.0886C97.7745 92.0898 97.7764 92.0909 97.7782 92.092C97.7818 92.0943 97.7851 92.0964 97.7881 92.0983C97.7941 92.1021 97.7989 92.1054 97.8028 92.1081C97.8105 92.1134 97.8149 92.1168 97.8168 92.1185C97.8199 92.121 97.8185 92.1201 97.8164 92.1175C97.8164 92.1174 97.8192 92.1257 97.8192 92.1202H96.8192ZM57.4442 30.202L58.1513 29.4948C58.1657 29.5092 58.0995 29.4486 58.0556 29.141C58.0135 28.8465 58.0115 28.4896 58.0115 28.0385H57.0115H56.0115C56.0115 28.4527 56.0096 28.9612 56.0757 29.4239C56.1399 29.8736 56.29 30.462 56.7371 30.9091L57.4442 30.202ZM57.0115 28.0385H58.0115C58.0115 27.1461 58.0149 26.5959 58.1036 26.108C58.1844 25.6636 58.3423 25.249 58.709 24.699L57.8769 24.1443L57.0449 23.5896C56.5462 24.3376 56.2714 25.0047 56.1358 25.7502C56.0082 26.4522 56.0115 27.2 56.0115 28.0385H57.0115ZM57.8769 24.1443L58.584 24.8514C59.3405 24.0949 59.9665 23.8461 60.473 23.8461V22.8461V21.8461C59.249 21.8461 58.1442 22.4628 57.1698 23.4371L57.8769 24.1443ZM60.473 22.8461V23.8461C61.2921 23.8461 61.8721 24.3613 62.7948 25.2841L63.5019 24.577L64.209 23.8698C63.401 23.0618 62.2502 21.8461 60.473 21.8461V22.8461ZM63.5019 24.577L62.5532 24.8932C63.03 26.3234 63.3673 26.9529 63.3673 28.0385H64.3673H65.3673C65.3673 26.5278 64.8393 25.4267 64.4506 24.2607L63.5019 24.577ZM64.3673 28.0385H63.3673C63.3673 28.9966 63.1746 29.6474 62.8862 30.0799C62.6114 30.4922 62.1898 30.7973 61.5286 30.9625L61.7711 31.9327L62.0136 32.9028C63.0833 32.6355 63.9598 32.0751 64.5503 31.1893C65.1273 30.3238 65.3673 29.2438 65.3673 28.0385H64.3673ZM61.7711 31.9327C61.064 32.6398 61.0642 32.6399 61.0644 32.6401C61.0644 32.6402 61.0646 32.6404 61.0647 32.6405C61.065 32.6407 61.0652 32.641 61.0655 32.6412C61.066 32.6417 61.0666 32.6423 61.0671 32.6429C61.0683 32.644 61.0696 32.6453 61.071 32.6466C61.0737 32.6494 61.077 32.6525 61.0807 32.6561C61.0881 32.6633 61.0973 32.6721 61.1082 32.6823C61.1301 32.7027 61.1592 32.7291 61.1947 32.7595C61.2646 32.8195 61.3646 32.8995 61.4869 32.9811C61.6989 33.1224 62.1196 33.3653 62.6365 33.3653V32.3653V31.3653C62.7208 31.3653 62.7087 31.3919 62.5963 31.3169C62.5563 31.2903 62.521 31.2622 62.4963 31.241C62.4844 31.2309 62.4764 31.2235 62.4729 31.2202C62.4712 31.2186 62.4707 31.2181 62.4715 31.2189C62.4719 31.2193 62.4727 31.2201 62.4738 31.2212C62.4744 31.2217 62.475 31.2223 62.4757 31.2231C62.4761 31.2234 62.4765 31.2238 62.4769 31.2242C62.4771 31.2244 62.4773 31.2247 62.4776 31.2249C62.4777 31.225 62.4778 31.2251 62.4779 31.2252C62.4781 31.2254 62.4782 31.2255 61.7711 31.9327ZM62.6365 32.3653V33.3653C62.8741 33.3653 63.0447 33.417 63.2711 33.5302C63.4006 33.595 63.5333 33.6721 63.7189 33.7792C63.8962 33.8815 64.1077 34.0026 64.3528 34.1252L64.8 33.2308L65.2472 32.3363C65.0597 32.2425 64.8926 32.1473 64.7183 32.0468C64.5523 31.951 64.3605 31.8389 64.1655 31.7414C63.7428 31.53 63.2644 31.3653 62.6365 31.3653V32.3653ZM64.8 33.2308L65.7864 33.3952C66.2046 30.886 66.6654 29.0136 66.6654 26.7404H65.6654H64.6654C64.6654 28.7941 64.2608 30.3833 63.8136 33.0663L64.8 33.2308ZM65.6654 26.7404H66.6654C66.6654 24.0435 66.2178 22.0883 65.1994 20.5606L64.3673 21.1154L63.5353 21.6701C64.2476 22.7386 64.6654 24.245 64.6654 26.7404H65.6654ZM64.3673 21.1154L65.0744 20.4082C64.3428 19.6767 63.5788 19.1583 62.7251 18.8299C61.8757 18.5032 60.9893 18.3847 60.0404 18.3847V19.3847V20.3847C60.8223 20.3847 61.4502 20.4824 62.0071 20.6966C62.5596 20.9091 63.0937 21.256 63.6603 21.8225L64.3673 21.1154ZM60.0404 19.3847V18.3847C58.508 18.3847 57.0202 18.8982 55.5915 19.8506L56.1461 20.6826L56.7008 21.5147C57.8683 20.7365 58.9766 20.3847 60.0404 20.3847V19.3847ZM56.1461 20.6826L55.3141 20.1279C54.4155 21.4759 53.848 22.5456 53.848 24.1443H54.848H55.848C55.848 23.1467 56.146 22.4856 56.9782 21.2374L56.1461 20.6826ZM54.848 24.1443H53.848C53.848 26.4619 54.3164 28.3459 55.2517 30.2165L56.1461 29.7693L57.0406 29.322C56.245 27.731 55.848 26.1534 55.848 24.1443H54.848ZM56.1461 29.7693V30.7693C56.0905 30.7693 56.0735 30.7559 56.1195 30.7732C56.1698 30.792 56.2303 30.8212 56.348 30.88C56.4467 30.9294 56.6025 31.0084 56.7686 31.0707C56.9389 31.1345 57.1722 31.202 57.4442 31.202V30.202V29.202C57.4999 29.202 57.5169 29.2153 57.4708 29.198C57.4205 29.1792 57.3601 29.15 57.2424 29.0912C57.1437 29.0418 56.9878 28.9628 56.8218 28.9005C56.6515 28.8367 56.4181 28.7693 56.1461 28.7693V29.7693ZM62.6365 37.125L62.0673 36.3029C56.491 40.1633 52.3735 41.75 49.223 41.75V42.75V43.75C52.9958 43.75 57.532 41.8752 63.2057 37.9472L62.6365 37.125ZM49.223 42.75V41.75C46.4811 41.75 43.6713 40.5718 41.2094 38.5202L40.5692 39.2885L39.929 40.0567C42.6596 42.3321 45.9073 43.75 49.223 43.75V42.75ZM40.5692 39.2885L39.6748 39.7357C39.8881 40.1623 40.1173 40.6213 40.35 41.0286C40.5759 41.4238 40.8458 41.8446 41.1602 42.1591L41.8673 41.452L42.5744 40.7448C42.4562 40.6266 42.2934 40.3983 42.0865 40.0363C41.8866 39.6864 41.683 39.28 41.4637 38.8412L40.5692 39.2885ZM41.8673 41.452L41.1602 42.1591L43.7563 44.7552L44.4634 44.048L45.1705 43.3409L42.5744 40.7448L41.8673 41.452ZM44.4634 44.048L43.7563 44.7552C45.6687 46.6675 48.0842 47.6442 50.5211 47.6442V46.6442V45.6442C48.6313 45.6442 46.7198 44.8902 45.1705 43.3409L44.4634 44.048ZM50.5211 46.6442V47.6442C53.8917 47.6442 57.5821 45.7347 61.9119 42.7039L61.3384 41.8847L60.765 41.0654C56.4409 44.0922 53.2083 45.6442 50.5211 45.6442V46.6442ZM61.3384 41.8847L61.8931 42.7167L65.7874 40.1205L65.2327 39.2885L64.678 38.4564L60.7837 41.0526L61.3384 41.8847ZM65.2327 39.2885L65.9399 39.9955C66.7478 39.1875 67.9634 38.0367 67.9634 36.2597H66.9634H65.9634C65.9634 37.0786 65.4483 37.6586 64.5256 38.5814L65.2327 39.2885ZM66.9634 36.2597H67.9634C67.9634 36.1 67.9746 35.6983 67.858 35.3485C67.7902 35.145 67.658 34.8839 67.3948 34.6793C67.123 34.4679 66.8118 34.3942 66.5307 34.3942V35.3942V36.3942C66.466 36.3942 66.317 36.3747 66.1669 36.258C66.0255 36.148 65.9744 36.0221 65.9607 35.9809C65.9489 35.9456 65.9546 35.9438 65.9589 36.0084C65.963 36.0706 65.9634 36.1444 65.9634 36.2597H66.9634ZM66.5307 35.3942L67.4252 34.947C67.2235 34.5437 66.8796 34.1924 66.4977 33.8884C66.1024 33.5738 65.5983 33.2566 64.9936 32.9399C63.7834 32.306 62.0966 31.6353 59.8951 30.9748L59.6077 31.9327L59.3204 32.8905C61.4458 33.5281 63.0041 34.1555 64.0655 34.7115C64.5966 34.9897 64.985 35.2405 65.2522 35.4532C65.5328 35.6766 65.6216 35.8121 65.6363 35.8415L66.5307 35.3942ZM59.6077 31.9327L60.0139 31.0188C56.1082 29.2831 52.912 28.3365 50.9538 28.3365V29.3365V30.3365C52.4572 30.3365 55.3186 31.1208 59.2016 32.8465L59.6077 31.9327ZM50.9538 29.3365V28.3365C50.1138 28.3365 49.1074 28.6087 47.9863 29.0571C46.8462 29.5131 45.5043 30.1862 43.9673 31.0644L44.4634 31.9327L44.9595 32.8009C46.4515 31.9484 47.7057 31.3234 48.7291 30.9141C49.7714 30.4971 50.4957 30.3365 50.9538 30.3365V29.3365ZM44.4634 31.9327L43.9087 31.1006C42.5787 31.9873 41.4146 32.9095 40.5739 33.8704C39.7389 34.8246 39.1365 35.9169 39.1365 37.125H40.1365H41.1365C41.1365 36.6024 41.3996 35.9639 42.079 35.1873C42.7527 34.4174 43.7521 33.6088 45.0181 32.7647L44.4634 31.9327ZM40.1365 37.125C39.4295 37.8322 39.4293 37.8321 39.4292 37.8319C39.4291 37.8318 39.4289 37.8317 39.4288 37.8316C39.4286 37.8313 39.4284 37.8311 39.4282 37.8309C39.4278 37.8305 39.4274 37.8301 39.4271 37.8298C39.4263 37.8291 39.4257 37.8284 39.4252 37.8279C39.4242 37.8269 39.4236 37.8262 39.4233 37.826C39.4229 37.8255 39.424 37.8266 39.4265 37.8293C39.4316 37.8348 39.4425 37.8466 39.4584 37.8647C39.4902 37.9011 39.5419 37.9627 39.607 38.0496C39.7374 38.2234 39.9209 38.4971 40.1075 38.8703L41.0019 38.423L41.8964 37.9758C41.6502 37.4836 41.4011 37.1083 41.2069 36.8495C41.1098 36.72 41.0263 36.6194 40.9634 36.5476C40.932 36.5117 40.9057 36.4829 40.8854 36.4613C40.8753 36.4505 40.8667 36.4415 40.8597 36.4342C40.8561 36.4306 40.853 36.4274 40.8504 36.4247C40.849 36.4234 40.8478 36.4221 40.8466 36.421C40.8461 36.4204 40.8455 36.4198 40.845 36.4193C40.8448 36.4191 40.8445 36.4188 40.8443 36.4186C40.8441 36.4184 40.844 36.4183 40.8439 36.4182C40.8437 36.418 40.8436 36.4179 40.1365 37.125ZM41.0019 38.423L40.3617 39.1913C43.0377 41.4213 45.8569 42.8847 48.7904 42.8847V41.8847V40.8847C46.5316 40.8847 44.1584 39.7518 41.6421 37.6548L41.0019 38.423ZM48.7904 41.8847V42.8847C52.578 42.8847 57.1215 40.998 62.8135 36.6196L62.2038 35.827L61.5941 35.0343C56.0361 39.3097 51.9259 40.8847 48.7904 40.8847V41.8847ZM62.2038 35.827H61.2038V36.6924H62.2038H63.2038V35.827H62.2038ZM62.2038 36.6924V37.6924C62.137 37.6924 62.0204 37.6728 61.8993 37.592C61.7844 37.5154 61.7203 37.4205 61.688 37.3559C61.6577 37.2953 61.6475 37.2468 61.6434 37.2218C61.6409 37.207 61.6393 37.1925 61.6382 37.1777C61.6377 37.1702 61.6373 37.1621 61.637 37.1535C61.6368 37.1492 61.6367 37.1447 61.6366 37.1399C61.6366 37.1376 61.6366 37.1351 61.6366 37.1327C61.6365 37.1314 61.6365 37.1302 61.6365 37.1289C61.6365 37.1283 61.6365 37.1276 61.6365 37.127C61.6365 37.1267 61.6365 37.1262 61.6365 37.126C61.6365 37.1255 61.6365 37.125 62.6365 37.125C63.6365 37.1251 63.6365 37.1246 63.6365 37.1241C63.6365 37.1239 63.6365 37.1234 63.6365 37.1231C63.6365 37.1224 63.6365 37.1217 63.6365 37.121C63.6365 37.1197 63.6365 37.1183 63.6365 37.1168C63.6365 37.1139 63.6364 37.1109 63.6364 37.1077C63.6363 37.1013 63.6361 37.0944 63.6359 37.0869C63.6354 37.0719 63.6345 37.0546 63.6331 37.0352C63.6304 36.9968 63.6254 36.9484 63.6162 36.893C63.5985 36.787 63.5613 36.6303 63.4769 36.4615C63.3905 36.2888 63.2453 36.0856 63.0087 35.9279C62.7658 35.766 62.487 35.6924 62.2038 35.6924V36.6924ZM72.5884 124.529L71.7056 124.999C73.6211 128.6 77.0027 130.418 80.8096 130.418V129.418V128.418C77.6934 128.418 75.0173 126.966 73.4713 124.06L72.5884 124.529ZM80.8096 129.418V130.418C81.7767 130.418 82.7386 130.273 83.6925 129.987L83.4057 129.029L83.119 128.071C82.3423 128.304 81.5734 128.418 80.8096 128.418V129.418ZM83.4057 129.029L83.6018 130.01C84.0783 129.914 84.5627 129.782 84.9979 129.62C85.4177 129.465 85.8564 129.258 86.1937 128.988L85.5692 128.207L84.9447 127.426C84.8494 127.502 84.639 127.62 84.3016 127.746C83.9795 127.865 83.5986 127.971 83.2097 128.049L83.4057 129.029ZM85.5692 128.207L86.1428 129.026C86.5721 128.726 87.0305 128.405 87.4919 128.036L86.8673 127.255L86.2428 126.474C85.8388 126.797 85.4317 127.083 84.9956 127.388L85.5692 128.207ZM86.8673 127.255L87.1978 128.199C87.713 128.019 88.0195 127.845 88.2704 127.661C88.5407 127.462 88.4971 127.471 88.6121 127.414L88.1654 126.519L87.7188 125.624C87.401 125.783 87.1411 126.009 87.0868 126.048C87.0133 126.102 86.8871 126.189 86.5369 126.311L86.8673 127.255ZM88.1654 126.519L88.8195 127.276L96.1752 120.916L95.5211 120.159L94.8671 119.403L87.5114 125.763L88.1654 126.519ZM95.5211 120.159L96.1448 120.941C97.8405 119.588 99.5073 118.428 101.582 117.424L101.146 116.524L100.71 115.624C98.4581 116.714 96.6634 117.968 94.8974 119.377L95.5211 120.159ZM101.146 116.524L101.661 117.382C103.325 116.382 104.974 115.725 105.883 115.316L105.473 114.404L105.063 113.492C104.242 113.861 102.428 114.588 100.631 115.667L101.146 116.524ZM105.473 114.404L105.73 115.37C107.19 114.981 108.179 114.385 109.127 113.627L108.502 112.846L107.877 112.065C107.095 112.691 106.351 113.135 105.215 113.438L105.473 114.404ZM108.502 112.846L109.334 113.401C109.809 112.688 110.367 111.666 110.367 110.336H109.367H108.367C108.367 111.084 108.061 111.706 107.67 112.291L108.502 112.846ZM109.367 110.336H110.367C110.367 108.597 109.172 107.385 108.262 106.657L107.637 107.437L107.012 108.218C107.832 108.875 108.367 109.567 108.367 110.336H109.367ZM107.637 107.437L108.261 106.656C107.315 105.899 106.351 105.366 105.37 105.022L105.04 105.966L104.71 106.91C105.461 107.173 106.227 107.591 107.013 108.218L107.637 107.437ZM105.04 105.966L105.371 105.022C104.725 104.796 104.003 104.25 102.681 103.06L102.012 103.803L101.343 104.547C102.616 105.692 103.625 106.53 104.709 106.91L105.04 105.966ZM102.012 103.803L102.804 103.193C102.015 102.168 101.223 100.744 100.826 98.8783L99.848 99.0865L98.8699 99.2948C99.3386 101.496 100.277 103.189 101.22 104.413L102.012 103.803ZM99.848 99.0865L100.833 98.9167L100.401 96.4071L99.4154 96.577L98.43 96.7468L98.8626 99.2564L99.848 99.0865ZM99.4154 96.577L100.353 96.2296C100.16 95.7091 100.07 95.2778 99.9514 94.8141C99.8476 94.4095 99.6941 93.8392 99.2899 93.3946L98.55 94.0674L97.8101 94.7401C97.8387 94.7714 97.9015 94.8717 98.0141 95.3109C98.1115 95.6909 98.2378 96.2765 98.4777 96.9243L99.4154 96.577ZM98.55 94.0674H99.55C99.55 94.059 99.5504 94.0112 99.5473 93.9607C99.544 93.9076 99.535 93.81 99.5003 93.6956C99.4106 93.3994 99.2057 93.169 98.9433 93.0378C98.7486 92.9404 98.5593 92.9172 98.467 92.908C98.356 92.8969 98.2354 92.8942 98.1173 92.8942V93.8942V94.8942C98.2156 94.8942 98.2572 94.897 98.2679 94.8981C98.2973 94.901 98.1892 94.8968 98.0486 94.8265C97.9651 94.7847 97.8618 94.7158 97.7679 94.6063C97.6723 94.4947 97.6168 94.3764 97.5862 94.2755C97.5583 94.1834 97.5527 94.1105 97.5511 94.0846C97.5497 94.0613 97.55 94.0433 97.55 94.0674H98.55ZM98.1173 93.8942V92.8942C97.6634 92.8942 97.163 93.0751 96.7481 93.3171C96.3115 93.5718 95.8467 93.9647 95.5246 94.5122L96.3865 95.0192L97.2485 95.5263C97.3591 95.3382 97.5433 95.1686 97.7558 95.0447C97.859 94.9845 97.9556 94.943 98.0323 94.9183C98.1168 94.891 98.1447 94.8942 98.1173 94.8942V93.8942ZM96.3865 95.0192L95.7389 94.2573C94.8454 95.0167 93.9592 95.8593 93.0833 96.7353L93.7904 97.4424L94.4976 98.1494C95.3523 97.2946 96.1968 96.493 97.0342 95.7812L96.3865 95.0192ZM93.7904 97.4424L92.896 96.9951C92.7845 97.2182 92.5066 97.5134 92.0247 97.9043C91.7968 98.0891 91.5555 98.2708 91.2993 98.4653C91.0506 98.6542 90.7866 98.8562 90.5466 99.0602L91.1942 99.8222L91.8419 100.584C92.0346 100.42 92.2574 100.249 92.5089 100.058C92.7531 99.8726 93.0256 99.6676 93.2845 99.4576C93.7762 99.0588 94.3637 98.5319 94.6849 97.8896L93.7904 97.4424ZM91.1942 99.8222L90.701 98.9522C89.4876 99.6403 88.3627 99.9472 87.7327 99.9472V100.947V101.947C88.8334 101.947 90.3047 101.476 91.6874 100.692L91.1942 99.8222ZM87.7327 100.947V99.9472C86.0865 99.9472 84.9447 99.7196 84.0926 99.3294C83.2582 98.9473 82.6309 98.3772 82.0624 97.5624L81.2423 98.1347L80.4222 98.7069C81.1519 99.7526 82.0389 100.589 83.2599 101.148C84.463 101.699 85.9174 101.947 87.7327 101.947V100.947ZM81.2423 98.1347L82.0903 97.6046C81.322 96.3753 80.9186 94.9241 80.4843 93.1001L79.5115 93.3317L78.5387 93.5634C78.9698 95.374 79.4319 97.1248 80.3943 98.6647L81.2423 98.1347ZM79.5115 93.3317L80.1592 92.5698C79.3477 91.88 78.6396 91.2067 77.348 91.2067V92.2067V93.2067C77.7872 93.2067 77.9446 93.3123 78.8639 94.0937L79.5115 93.3317ZM77.348 92.2067V91.2067C76.6233 91.2067 75.9499 91.3992 75.3716 91.8222C74.8039 92.2376 74.3964 92.8248 74.1039 93.5042C73.5325 94.8312 73.3192 96.7018 73.3192 99.0001H74.3192H75.3192C75.3192 96.7551 75.5387 95.229 75.9408 94.2952C76.135 93.8441 76.3496 93.5849 76.5525 93.4364C76.745 93.2956 76.9911 93.2067 77.348 93.2067V92.2067ZM74.3192 99.0001H73.3192V112.457H74.3192H75.3192V99.0001H74.3192ZM74.3192 112.457H73.3192C73.3192 112.41 73.3267 112.421 73.2835 112.588C73.2585 112.684 73.1823 112.957 73.1327 113.155C73.0131 113.634 72.8865 114.272 72.8865 115.053H73.8865H74.8865C74.8865 114.492 74.9763 114.027 75.073 113.64C75.1317 113.406 75.1636 113.306 75.2197 113.089C75.2577 112.942 75.3192 112.699 75.3192 112.457H74.3192ZM73.8865 115.053L72.9348 114.746C72.4444 116.266 72.4538 117.959 72.4538 119.639H73.4538H74.4538C74.4538 117.875 74.4633 116.522 74.8382 115.36L73.8865 115.053ZM73.4538 119.639L72.4697 119.462L71.6043 124.265L72.5884 124.442L73.5726 124.619L74.438 119.816L73.4538 119.639ZM72.5884 124.442H71.5884V124.516H72.5884H73.5884V124.442H72.5884ZM9.84808 122.227L9.70349 123.217C13.639 123.792 18.1994 125.028 23.3929 126.935L23.7375 125.996L24.0821 125.057C18.8044 123.12 14.1053 121.839 9.99267 121.238L9.84808 122.227ZM23.7375 125.996L23.3959 126.936C26.0191 127.889 28.1481 128.621 29.7747 129.116C31.3508 129.595 32.5857 129.895 33.3432 129.895V128.895V127.895C32.9326 127.895 31.9824 127.697 30.3566 127.203C28.7812 126.723 26.6914 126.006 24.0791 125.056L23.7375 125.996ZM33.3432 128.895V129.895C36.7224 129.895 39.5036 128.376 41.739 125.586L40.9586 124.961L40.1782 124.336C38.2598 126.73 36.0219 127.895 33.3432 127.895V128.895ZM40.9586 124.961L41.8474 125.42C42.4125 124.324 42.3913 123.071 42.3913 122.002H41.3913H40.3913C40.3913 123.199 40.3701 123.921 40.0699 124.503L40.9586 124.961ZM41.3913 122.002H42.3913C42.3913 117.557 39.737 112.157 34.7785 105.85L33.9923 106.468L33.2062 107.086C38.113 113.327 40.3913 118.269 40.3913 122.002H41.3913ZM33.9923 106.468L34.7933 105.87L31.851 101.933L31.05 102.531L30.249 103.13L33.1913 107.067L33.9923 106.468ZM31.05 102.531L31.855 101.938C31.2918 101.174 30.5857 99.9736 29.6278 98.2751L28.7567 98.7663L27.8857 99.2576C28.8316 100.935 29.5967 102.245 30.245 103.124L31.05 102.531ZM28.7567 98.7663L29.6372 98.2922C28.7115 96.5732 27.8675 95.2385 27.1907 94.2909L26.3769 94.8721L25.5632 95.4534C26.1843 96.323 26.9846 97.5845 27.8763 99.2405L28.7567 98.7663ZM26.3769 94.8721L27.2475 94.3801C26.6046 93.2427 25.5999 92.1594 24.386 91.1253L23.7375 91.8866L23.089 92.6478C24.2116 93.6041 25.0242 94.5112 25.5064 95.3642L26.3769 94.8721ZM23.7375 91.8866L24.4001 91.1376C23.1456 90.0278 21.6984 89.3065 20.1222 88.9243L19.8865 89.8961L19.6509 90.868C20.9305 91.1782 22.0795 91.7549 23.075 92.6355L23.7375 91.8866ZM19.8865 89.8961L19.6994 88.9138C17.8151 89.2728 16.2406 89.941 15.4036 91.0771L16.2086 91.6702L17.0137 92.2634C17.3883 91.7551 18.3234 91.2119 20.0737 90.8785L19.8865 89.8961ZM16.2086 91.6702L15.4035 91.0771C14.6938 92.0403 14.278 93.1215 14.1743 94.2624L15.1702 94.3529L16.1661 94.4434C16.2355 93.6804 16.512 92.9444 17.0137 92.2634L16.2086 91.6702ZM15.1702 94.3529L14.1803 94.2114C14.0587 95.0628 13.8486 95.2992 13.7746 95.351L14.348 96.1702L14.9215 96.9895C15.7128 96.4355 16.0222 95.4603 16.1602 94.4943L15.1702 94.3529ZM14.348 96.1702L13.8335 95.3128C13.5605 95.4766 12.9796 95.6663 11.9722 95.8854L12.1846 96.8625L12.3971 97.8397C13.3801 97.626 14.2704 97.3831 14.8626 97.0277L14.348 96.1702ZM12.1846 96.8625V95.8625C11.9588 95.8625 11.5399 95.8626 10.9398 95.9087L11.0163 96.9058L11.0929 97.9028C11.6178 97.8625 11.9777 97.8625 12.1846 97.8625V96.8625ZM11.0163 96.9058V95.9058H9.84808V96.9058V97.9058H11.0163V96.9058ZM9.84808 96.9058V95.9058C7.53966 95.9058 5.7648 96.1576 4.70925 96.7131L5.175 97.5981L5.64075 98.483C6.22944 98.1731 7.56996 97.9058 9.84808 97.9058V96.9058ZM5.175 97.5981L4.41759 96.9451C3.19658 98.3615 2.53077 100.016 2.53077 101.795H3.53077H4.53077C4.53077 100.546 4.98996 99.3442 5.93241 98.251L5.175 97.5981ZM3.53077 101.795H2.53077C2.53077 102.602 2.72548 103.863 3.07146 105.506L4.05 105.3L5.02854 105.094C4.68222 103.449 4.53077 102.372 4.53077 101.795H3.53077ZM4.05 105.3L3.07258 105.511C3.4128 107.085 3.56923 108.303 3.56923 109.108H4.56923H5.56923C5.56923 108.095 5.3795 106.717 5.02742 105.089L4.05 105.3ZM4.56923 109.108H3.56923C3.56923 110.676 3.11287 112.272 2.11448 113.91L2.96827 114.43L3.82206 114.951C4.98712 113.04 5.56923 111.088 5.56923 109.108H4.56923ZM2.96827 114.43L2.10383 113.927C1.54923 114.881 1.11117 115.741 0.80978 116.508C0.511727 117.266 0.32404 117.992 0.32404 118.661H1.32404H2.32404C2.32404 118.345 2.4176 117.885 2.67123 117.239C2.92152 116.602 3.30558 115.839 3.83271 114.933L2.96827 114.43ZM1.32404 118.661L0.355679 118.911C0.694767 120.226 1.90689 121.109 3.40089 121.731C4.94202 122.372 7.06504 122.854 9.71686 123.206L9.84808 122.214L9.9793 121.223C7.39554 120.881 5.47288 120.426 4.16907 119.884C2.81811 119.322 2.386 118.775 2.2924 118.412L1.32404 118.661ZM24.2567 82.8822H25.2567C25.2567 80.071 25.9901 76.9164 27.5614 73.0942L26.6365 72.714L25.7116 72.3337C24.0812 76.2999 23.2567 79.7223 23.2567 82.8822H24.2567ZM26.6365 72.714L27.565 73.0853C29.0972 69.255 30.6034 66.769 32.0189 65.1512L31.2663 64.4928L30.5137 63.8343C28.9005 65.6781 27.2913 68.3845 25.7081 72.3426L26.6365 72.714ZM31.2663 64.4928L32.2469 64.2967C32.1737 63.9303 31.9849 63.469 31.4863 63.2198C31.1211 63.0372 30.7064 63.0602 30.6173 63.0602V64.0602V65.0602C30.6629 65.0602 30.693 65.0602 30.7195 65.0608C30.7317 65.061 30.7407 65.0614 30.7473 65.0617C30.7505 65.0619 30.7528 65.062 30.7545 65.0621C30.7561 65.0622 30.7569 65.0623 30.7569 65.0623C30.7569 65.0623 30.756 65.0622 30.7543 65.062C30.7525 65.0618 30.7499 65.0614 30.7464 65.0609C30.7395 65.0598 30.7285 65.0578 30.7144 65.0543C30.6861 65.0474 30.6429 65.0341 30.592 65.0087C30.4756 64.9505 30.3846 64.8619 30.3281 64.771C30.2815 64.6962 30.2784 64.6519 30.2857 64.6888L31.2663 64.4928ZM30.6173 64.0602L31.3244 63.353L30.8917 62.9203L30.1846 63.6274L29.4775 64.3346L29.9102 64.7673L30.6173 64.0602ZM30.1846 63.6274L29.4657 62.9324C28.7336 63.6897 27.9872 64.8786 27.2159 66.3556C26.4346 67.8517 25.5893 69.7198 24.6761 71.894L25.598 72.2812L26.52 72.6685C27.4242 70.5158 28.2448 68.706 28.9887 67.2814C29.7426 65.8378 30.3809 64.8632 30.9036 64.3225L30.1846 63.6274ZM25.598 72.2812L24.6918 71.8584C22.8425 75.8213 21.8288 79.5638 21.8288 82.4062H22.8288H23.8288C23.8288 79.9699 24.719 76.5296 26.5042 72.7041L25.598 72.2812ZM22.8288 82.4062H21.8288C21.8288 84.5254 22.3494 86.3889 23.3083 88.0191L24.1702 87.512L25.0322 87.005C24.2603 85.6928 23.8288 84.1813 23.8288 82.4062H22.8288ZM24.1702 87.512L23.3382 88.0667C24.4002 89.6599 26.8308 91.8282 30.4624 94.4654L31.05 93.6562L31.6376 92.8471C28.0001 90.2055 25.844 88.22 25.0023 86.9574L24.1702 87.512ZM31.05 93.6562L30.5045 94.4943L35.091 97.4799L35.6365 96.6419L36.1821 95.8038L31.5956 92.8182L31.05 93.6562ZM35.6365 96.6419L34.9813 97.3973C37.4136 99.5067 39.24 101.263 40.4511 102.687C41.0566 103.399 41.4873 104.004 41.7625 104.508C42.0434 105.022 42.1221 105.359 42.1221 105.555H43.1221H44.1221C44.1221 104.886 43.8763 104.206 43.5177 103.549C43.1533 102.882 42.6294 102.162 41.9746 101.392C40.6652 99.8519 38.7489 98.0173 36.2917 95.8864L35.6365 96.6419ZM43.1221 105.555H42.1221C42.1221 106.059 41.9204 106.702 40.7826 107.575L41.3913 108.368L42.0001 109.162C43.4585 108.043 44.1221 106.87 44.1221 105.555H43.1221ZM41.3913 108.368L40.6233 107.728C39.9272 108.563 39.0302 108.925 38.3625 108.925V109.925V110.925C39.6853 110.925 41.1247 110.25 42.1594 109.009L41.3913 108.368ZM38.3625 109.925V108.925C38.1641 108.925 37.9354 108.978 37.7265 109.127C37.5266 109.269 37.4136 109.449 37.3511 109.59C37.2407 109.839 37.2327 110.091 37.2327 110.228H38.2327H39.2327C39.2327 110.15 39.2463 110.25 39.1793 110.401C39.1384 110.493 39.0524 110.638 38.885 110.757C38.7085 110.883 38.5176 110.925 38.3625 110.925V109.925ZM38.2327 110.228H37.2327C37.2327 110.38 37.2694 110.499 37.2721 110.508C37.2828 110.546 37.2937 110.576 37.3 110.593C37.313 110.628 37.3268 110.661 37.3367 110.683C37.3576 110.731 37.3843 110.788 37.4137 110.849C37.4736 110.973 37.5602 111.147 37.6727 111.366C37.8985 111.807 38.2372 112.451 38.6936 113.298L39.574 112.824L40.4545 112.35C40.0022 111.51 39.6703 110.879 39.4526 110.454C39.3433 110.241 39.265 110.084 39.2154 109.981C39.19 109.928 39.1758 109.897 39.1695 109.883C39.1658 109.874 39.1694 109.882 39.1757 109.899C39.1785 109.907 39.1869 109.93 39.1959 109.961C39.1969 109.965 39.2327 110.079 39.2327 110.228H38.2327ZM39.574 112.824L38.7689 113.417C40.8867 116.292 45.2221 117.502 50.4779 117.502V116.502V115.502C45.3492 115.502 41.896 114.29 40.3792 112.231L39.574 112.824ZM50.4779 116.502V117.502C60.3304 117.502 67.9828 113.444 73.7886 105.406L72.9779 104.82L72.1673 104.235C66.723 111.772 59.6638 115.502 50.4779 115.502V116.502ZM72.9779 104.82H73.9779C73.9779 103.754 73.9787 102.831 73.9207 102.106C73.8668 101.433 73.752 100.681 73.3381 100.143L72.5452 100.752L71.7523 101.362C71.7476 101.355 71.7841 101.402 71.8264 101.568C71.8676 101.73 71.9022 101.956 71.927 102.266C71.9772 102.893 71.9779 103.722 71.9779 104.82H72.9779ZM72.5452 100.752H73.5452V99.1515H72.5452H71.5452V100.752H72.5452ZM72.5452 99.1515H73.5452C73.5452 96.4054 73.9742 94.5115 74.6913 93.3641L73.8432 92.8342L72.9952 92.3042C71.9817 93.926 71.5452 96.2725 71.5452 99.1515H72.5452ZM73.8432 92.8342L74.6912 93.3642C75.0877 92.7298 75.4339 92.3481 75.7627 92.1216C76.0687 91.9108 76.4081 91.8005 76.8721 91.8005V90.8005V89.8005C76.0381 89.8005 75.2957 90.0147 74.6281 90.4746C73.9834 90.9187 73.4641 91.554 72.9952 92.3041L73.8432 92.8342ZM76.8721 90.8005V91.8005C77.486 91.8005 78.1456 92.0104 78.8682 92.5524L79.4682 91.7524L80.0683 90.9525C79.0603 90.1963 77.989 89.8005 76.8721 89.8005V90.8005ZM79.4682 91.7524L80.4599 91.8812C80.9019 88.4779 80.9009 85.5198 80.9009 82.9255H79.9009H78.9009C78.9009 85.5235 78.9 88.3634 78.4766 91.6237L79.4682 91.7524ZM79.9009 82.9255H80.9009C80.9009 79.0228 80.9083 75.6283 79.9971 72.4392L79.0355 72.714L78.074 72.9887C78.8936 75.8572 78.9009 78.9531 78.9009 82.9255H79.9009ZM79.0355 72.714L80.0219 72.5496C79.5684 69.8276 78.6621 67.5674 77.7666 65.7763L76.8721 66.2235L75.9777 66.6708C76.813 68.3413 77.6375 70.4079 78.0491 72.8783L79.0355 72.714ZM76.8721 66.2235L77.7042 65.6688L75.108 61.7746L74.2759 62.3293L73.4439 62.8841L76.0401 66.7783L76.8721 66.2235ZM74.2759 62.3293L75.108 61.7747C74.7149 61.1851 74.4163 60.5904 74.0887 59.935C73.7673 59.2923 73.4169 58.5889 72.9446 57.8804L72.1125 58.4352L71.2805 58.9899C71.6735 59.5794 71.9721 60.174 72.2998 60.8294C72.6211 61.4721 72.9715 62.1755 73.4439 62.884L74.2759 62.3293ZM72.1125 58.4352L73.0827 58.1926C72.638 56.4139 72.2471 55.2546 72.2471 53.2428H71.2471H70.2471C70.2471 55.5579 70.7217 56.9948 71.1424 58.6777L72.1125 58.4352ZM71.2471 53.2428L72.1046 52.7282C71.4784 51.6846 70.954 50.6368 70.4108 49.5504C69.8722 48.4733 69.3149 47.3577 68.643 46.2379L67.7855 46.7524L66.928 47.267C67.5543 48.3106 68.0787 49.3584 68.6219 50.4448C69.1605 51.5219 69.7178 52.6375 70.3896 53.7573L71.2471 53.2428ZM67.7855 46.7524L68.714 46.3811C67.8534 44.2293 66.9717 42.0232 66.0838 40.2475L65.1894 40.6948L64.295 41.142C65.1379 42.8277 65.9871 44.9486 66.857 47.1238L67.7855 46.7524ZM65.1894 40.6948L64.5755 39.9054L60.6813 42.9342L61.2952 43.7235L61.9092 44.5129L65.8034 41.4841L65.1894 40.6948ZM61.2952 43.7235L60.7218 42.9043C56.474 45.8778 53.2147 47.0504 50.4779 47.0504V48.0504V49.0504C53.7987 49.0504 57.4625 47.6271 61.8687 44.5428L61.2952 43.7235ZM50.4779 48.0504V47.0504C47.9252 47.0504 46.2111 46.6082 45.2202 45.2871L44.4202 45.8871L43.6202 46.487C45.2254 48.6273 47.8382 49.0504 50.4779 49.0504V48.0504ZM44.4202 45.8871L45.0604 45.1188L42.4642 42.9553L41.824 43.7235L41.1838 44.4918L43.78 46.6553L44.4202 45.8871ZM41.824 43.7235H40.824C40.824 44.8294 40.4462 46.4067 39.6315 48.0359L40.5259 48.4832L41.4203 48.9304C42.3365 47.0982 42.824 45.2139 42.824 43.7235H41.824ZM40.5259 48.4832L39.6405 48.0183L36.9146 53.2106L37.8 53.6754L38.6854 54.1403L41.4113 48.948L40.5259 48.4832ZM37.8 53.6754L36.8716 53.304C35.6817 56.2786 34.9618 58.1619 34.8146 59.6336L35.8096 59.7332L36.8047 59.8327C36.9171 58.7084 37.4952 57.1301 38.7285 54.0469L37.8 53.6754ZM35.8096 59.7332L34.8291 59.537C34.7844 59.7604 34.7427 59.9825 34.7049 60.1852C34.6665 60.3909 34.6328 60.5725 34.6019 60.727C34.5697 60.8877 34.5466 60.9882 34.5317 61.0405C34.5223 61.0735 34.5278 61.0451 34.5531 60.9925C34.5637 60.9704 34.604 60.8871 34.6852 60.7946C34.7472 60.7239 34.9936 60.464 35.4202 60.464V61.464V62.464C35.8577 62.464 36.1152 62.1973 36.1888 62.1134C36.2814 62.0078 36.3335 61.9051 36.3563 61.8577C36.4059 61.7543 36.4371 61.6516 36.4548 61.5899C36.4939 61.4529 36.5303 61.2829 36.563 61.1192C36.5971 60.9491 36.6336 60.7522 36.6709 60.5522C36.7088 60.3492 36.7483 60.1386 36.7902 59.9293L35.8096 59.7332ZM35.4202 61.464L34.5258 61.0167L31.2806 67.5071L32.175 67.9544L33.0695 68.4016L36.3147 61.9112L35.4202 61.464ZM32.175 67.9544L31.2951 67.4792C27.7428 74.0576 25.8961 80.238 25.8961 85.4352H26.8961H27.8961C27.8961 80.6803 29.5977 74.8319 33.0549 68.4295L32.175 67.9544ZM26.8961 85.4352H25.8961C25.8961 86.4874 25.9876 87.5807 26.1693 88.6716L27.1557 88.5072L28.1421 88.3429C27.9779 87.3568 27.8961 86.3733 27.8961 85.4352H26.8961ZM27.1557 88.5072L27.7231 87.6838C26.0575 86.5363 25.2567 84.9894 25.2567 82.8822H24.2567H23.2567C23.2567 85.6211 24.3598 87.7954 26.5884 89.3307L27.1557 88.5072ZM55.2375 123.815V122.815C49.5466 122.815 45.0402 123.581 41.8106 125.191L42.2567 126.086L42.7029 126.981C45.5311 125.571 49.6785 124.815 55.2375 124.815V123.815ZM42.2567 126.086H43.2567V125.957H42.2567H41.2567V126.086H42.2567ZM42.2567 125.957L41.4885 125.317C39.4836 127.723 37.3277 128.894 34.2952 128.894V129.894V130.894C38.0128 130.894 40.7028 129.384 43.0249 126.597L42.2567 125.957ZM34.2952 129.894V128.894C32.366 128.894 29.1786 128.13 24.6864 126.489L24.3432 127.428L24.0001 128.367C28.5079 130.014 31.9841 130.894 34.2952 130.894V129.894ZM24.3432 127.428L24.6676 126.482C20.1042 124.917 16.0429 123.711 12.4905 122.913L12.2711 123.888L12.0518 124.864C15.5089 125.641 19.4959 126.823 24.0188 128.374L24.3432 127.428ZM12.2711 123.888L12.5461 122.927C12.1305 122.808 11.288 122.652 10.048 122.455L9.89133 123.443L9.7347 124.431C11.0042 124.632 11.7196 124.77 11.9961 124.85L12.2711 123.888ZM9.89133 123.443L10.0502 122.456C8.8475 122.262 7.73538 122.065 6.7557 121.87L6.55962 122.85L6.36354 123.831C7.37424 124.033 8.51213 124.234 9.73242 124.43L9.89133 123.443ZM6.55962 122.85L6.76944 121.872C5.90786 121.688 4.91085 121.406 3.82102 121.02L3.4875 121.963L3.15398 122.906C4.31415 123.316 5.39406 123.623 6.3498 123.828L6.55962 122.85ZM3.4875 121.963L3.78895 121.01C2.79417 120.695 2.05485 120.302 1.53163 119.866L0.89135 120.634L0.251072 121.402C1.02593 122.048 2.01737 122.547 3.18605 122.917L3.4875 121.963ZM0.89135 120.634L1.56549 119.896C1.13861 119.506 1 119.147 1 118.787H0H-1C-1 119.803 -0.550144 120.672 0.217213 121.373L0.89135 120.634ZM0 118.787H1C1 118.237 1.11699 117.616 1.37817 116.917L0.441347 116.567L-0.495477 116.217C-0.822757 117.094 -1 117.953 -1 118.787H0ZM0.441347 116.567L1.30571 117.07C1.56964 116.616 1.85743 116.164 2.14284 115.757L1.32404 115.183L0.505245 114.609C0.18487 115.066 -0.133101 115.566 -0.423019 116.064L0.441347 116.567ZM1.32404 115.183L2.16772 115.72C2.4716 115.242 2.77712 114.74 2.98819 114.212L2.05962 113.841L1.13105 113.47C0.99596 113.808 0.782236 114.172 0.480355 114.646L1.32404 115.183ZM2.05962 113.841L2.8914 114.396C3.20958 113.919 3.41325 113.452 3.59366 113.002L2.66538 112.63L1.7371 112.258C1.57137 112.672 1.42888 112.985 1.22784 113.286L2.05962 113.841ZM2.66538 112.63L3.57941 113.036C3.74842 112.655 3.97114 112.164 4.08195 111.554L3.09808 111.375L2.11421 111.196C2.05194 111.539 1.9285 111.825 1.75135 112.225L2.66538 112.63ZM3.09808 111.375L4.07869 111.571C4.16159 111.156 4.27115 110.625 4.27115 110.077H3.27115H2.27115C2.27115 110.393 2.20765 110.728 2.11747 111.179L3.09808 111.375ZM3.27115 110.077H4.27115C4.27115 109.784 4.21768 109.285 4.13299 108.634C4.04509 107.958 3.91404 107.052 3.74072 105.904L2.75192 106.053L1.76312 106.202C1.93596 107.347 2.06453 108.237 2.1497 108.892C2.23808 109.571 2.27115 109.937 2.27115 110.077H3.27115ZM2.75192 106.053L3.74029 105.901C3.39027 103.626 3.23269 102.282 3.23269 101.769H2.23269H1.23269C1.23269 102.468 1.42127 103.98 1.76355 106.205L2.75192 106.053ZM2.23269 101.769H3.23269C3.23269 100.004 3.63449 98.7634 4.36802 97.9299L3.61731 97.2692L2.8666 96.6086C1.69629 97.9385 1.23269 99.7265 1.23269 101.769H2.23269ZM3.61731 97.2692L4.36802 97.9299C5.24997 96.9277 5.9071 96.6251 6.42981 96.6251V95.6251V94.6251C5.04868 94.6251 3.88849 95.4474 2.8666 96.6086L3.61731 97.2692ZM6.42981 95.6251V96.6251H11.4057V95.6251V94.6251H6.42981V95.6251ZM11.4057 95.6251V96.6251C12.0836 96.6251 12.893 96.2792 13.8057 95.7577L13.3096 94.8895L12.8135 94.0212C12.3864 94.2652 12.057 94.4226 11.8083 94.517C11.5504 94.6148 11.4301 94.6251 11.4057 94.6251V95.6251ZM13.3096 94.8895L14.2258 95.2903C14.5143 94.6308 14.8021 94.0069 14.9939 93.4316L14.0452 93.1153L13.0965 92.7991C12.9421 93.2624 12.7107 93.7635 12.3935 94.4886L13.3096 94.8895ZM14.0452 93.1153L14.9683 93.4999C15.0924 93.2022 15.178 92.9443 15.24 92.7525C15.2728 92.6511 15.2937 92.5851 15.3135 92.5273C15.3346 92.4657 15.3387 92.4616 15.329 92.4811L14.4346 92.0337L13.5403 91.5862C13.4873 91.6923 13.448 91.8017 13.4218 91.8781C13.3943 91.9582 13.3638 92.0545 13.3371 92.1369C13.2802 92.3129 13.2144 92.5093 13.1221 92.7308L14.0452 93.1153ZM14.4346 92.0337L15.3833 92.3498C15.4724 92.0826 15.5493 91.853 15.6228 91.6692L14.6942 91.298L13.7657 90.9269C13.6661 91.1759 13.5699 91.4655 13.4859 91.7175L14.4346 92.0337ZM14.6942 91.298L15.5624 91.7943C15.7201 91.5185 15.8985 91.2364 16.1391 90.9613L15.3865 90.3028L14.6339 89.6444C14.2688 90.0617 14.0146 90.472 13.8261 90.8018L14.6942 91.298ZM15.3865 90.3028L16.1674 89.6781C15.9956 89.4634 15.8673 89.1386 15.8673 88.6153H14.8673H13.8673C13.8673 89.4769 14.0853 90.2771 14.6057 90.9276L15.3865 90.3028ZM14.8673 88.6153H15.8673C15.8673 88.3701 15.8676 88.1719 15.8767 88.0041C15.8865 87.8229 15.9034 87.7606 15.9025 87.7633L14.9538 87.4472L14.0051 87.131C13.9177 87.3933 13.8914 87.6771 13.8796 87.8962C13.867 88.1286 13.8673 88.3847 13.8673 88.6153H14.8673ZM14.9538 87.4472H15.9538C15.9538 86.1494 16.5861 84.1268 18.128 81.257L17.2471 80.7837L16.3662 80.3103C14.7928 83.2387 13.9538 85.6295 13.9538 87.4472H14.9538ZM17.2471 80.7837L18.1213 81.2693L19.6357 78.5434L18.7615 78.0577L17.8874 77.5721L16.373 80.298L17.2471 80.7837ZM18.7615 78.0577L19.6425 78.5309C20.8849 76.2174 21.8706 74.4269 22.589 72.6311L21.6605 72.2597L20.7321 71.8883C20.0658 73.5538 19.1478 75.2249 17.8805 77.5846L18.7615 78.0577ZM21.6605 72.2597L22.5809 72.6508C23.349 70.8434 24.1432 68.1829 25.0106 64.7137L24.0404 64.4712L23.0703 64.2286C22.2068 67.6824 21.4432 70.2143 20.7402 71.8685L21.6605 72.2597ZM24.0404 64.4712L25.0153 64.694C25.6627 61.8617 27.2126 58.9751 29.7323 56.0354L28.973 55.3847L28.2138 54.7339C25.5413 57.8518 23.8028 61.023 23.0656 64.2483L24.0404 64.4712ZM28.973 55.3847L29.7413 56.0248L32.9865 52.1305L32.2182 51.4903L31.45 50.8502L28.2048 54.7445L28.973 55.3847ZM32.2182 51.4903L32.9739 52.1453C35.2552 49.513 36.7892 47.2725 37.6648 45.4291L36.7615 45L35.8583 44.571C35.0897 46.189 33.6812 48.2755 31.4625 50.8354L32.2182 51.4903ZM36.7615 45L37.6648 45.4291C38.5554 43.5541 39.0163 41.2425 39.0163 39.375H38.0163H37.0163C37.0163 40.969 36.6119 42.9844 35.8582 44.571L36.7615 45ZM38.0163 39.375H39.0163C39.0163 38.4426 38.7919 35.7845 38.318 31.4772L37.324 31.5865L36.33 31.6959C36.8082 36.0424 37.0163 38.5767 37.0163 39.375H38.0163ZM37.324 31.5865L38.3191 31.487C37.8895 27.1913 37.675 22.8976 37.675 19.0385H36.675H35.675C35.675 22.9677 35.8932 27.328 36.329 31.6861L37.324 31.5865ZM36.675 19.0385H37.675C37.675 16.0747 37.9283 13.9984 38.465 11.9343L37.4971 11.6827L36.5293 11.431C35.941 13.6939 35.675 15.9446 35.675 19.0385H36.675ZM37.4971 11.6827L38.465 11.9343C38.9983 9.88291 39.9347 7.86468 41.2879 6.27263L40.5259 5.625L39.764 4.97737C38.175 6.84686 37.1209 9.15555 36.5293 11.431L37.4971 11.6827ZM40.5259 5.625L41.3259 6.22501C42.5615 4.57762 44.1405 3.02232 46.4672 2.24676L46.1509 1.29808L45.8347 0.349398C42.9691 1.3046 41.0866 3.21084 39.7259 5.02499L40.5259 5.625ZM46.1509 1.29808L46.4672 2.24676C48.9385 1.423 51.8563 1 55.2375 1V0V-1C51.6956 -1 48.5558 -0.557612 45.8347 0.349395L46.1509 1.29808ZM55.2375 0V1C56.5581 1 57.695 1.00789 58.8155 1.38138L59.1317 0.432692L59.448 -0.515993C57.9722 -1.00789 56.513 -1 55.2375 -1V0ZM59.1317 0.432692V1.43269C60.2389 1.43269 61.8285 1.8096 63.9526 2.65925L64.324 1.73077L64.6954 0.802292C62.4926 -0.0788392 60.6208 -0.567308 59.1317 -0.567308V0.432692ZM64.324 1.73077L63.8768 2.6252C65.6393 3.5064 67.2139 4.30408 68.3765 5.46673L69.0836 4.75962L69.7907 4.05251C68.3572 2.619 66.4704 1.6859 64.7712 0.836339L64.324 1.73077ZM69.0836 4.75962L68.4836 5.55963C70.0259 6.71631 71.2251 8.68567 72.553 10.8991L73.4105 10.3847L74.268 9.87018C73 7.75663 71.6029 5.39907 69.6836 3.95961L69.0836 4.75962ZM73.4105 10.3847L72.4619 10.7009C73.3268 13.2955 74.1625 15.8087 74.5817 19.1625L75.574 19.0385L76.5663 18.9144C76.1201 15.3452 75.2251 12.666 74.3592 10.0684L73.4105 10.3847ZM75.574 19.0385L74.5934 19.2346C74.7981 20.258 74.9026 21.2914 75.0108 22.4824C75.1183 23.6644 75.2287 24.9905 75.4495 26.5357L76.4394 26.3943L77.4294 26.2528C77.2174 24.7691 77.1115 23.4991 77.0026 22.3013C76.8945 21.1125 76.7826 19.9824 76.5546 18.8423L75.574 19.0385ZM76.4394 26.3943H75.4394C75.4394 27.7492 75.5526 28.8752 75.6626 29.8103C75.7763 30.7767 75.8721 31.4467 75.8721 32.0192H76.8721H77.8721C77.8721 31.2937 77.7516 30.4492 77.6489 29.5767C77.5426 28.6729 77.4394 27.6354 77.4394 26.3943H76.4394ZM76.8721 32.0192L75.9234 32.3355C76.1039 32.877 76.203 33.5389 76.3126 34.4149C76.4188 35.2647 76.5317 36.2815 76.7569 37.4077L77.7375 37.2116L78.7181 37.0154C78.5106 35.9781 78.4072 35.0478 78.2971 34.1668C78.1903 33.3121 78.073 32.4596 77.8208 31.703L76.8721 32.0192ZM77.7375 37.2116L76.7674 37.4541C77.1883 39.1379 77.6557 41.055 78.6362 42.5258L79.4682 41.9711L80.3003 41.4165C79.5501 40.2911 79.1521 38.7468 78.7077 36.969L77.7375 37.2116ZM79.4682 41.9711L78.5738 42.4184C79.4358 44.1423 80.3375 45.9506 81.6971 47.7635L82.4971 47.1635L83.2971 46.5635C82.0605 44.9147 81.2315 43.2616 80.3627 41.5239L79.4682 41.9711ZM82.4971 47.1635L81.6396 47.6779C82.3112 48.7973 83.0892 49.9076 83.9009 51.044C84.7185 52.1886 85.5708 53.3604 86.4247 54.6413L87.2567 54.0866L88.0888 53.5319C87.2119 52.2165 86.3334 51.0085 85.5284 49.8815C84.7175 48.7462 83.9811 47.6931 83.3546 46.649L82.4971 47.1635ZM87.2567 54.0866L86.5134 54.7555C90.3407 59.0081 93.2927 63.6596 94.9707 68.2744L95.9105 67.9326L96.8503 67.5909C95.067 62.6865 91.9611 57.8188 88 53.4176L87.2567 54.0866ZM95.9105 67.9326L95.0161 68.3799C97.1014 72.5504 98.3721 78.0189 98.3721 83.899H99.3721H100.372C100.372 77.7504 99.0467 71.9689 96.805 67.4854L95.9105 67.9326ZM99.3721 83.899H98.3721C98.3721 86.7864 97.9539 89.5862 97.1182 92.3021L98.074 92.5962L99.0298 92.8902C99.9249 89.9811 100.372 86.9829 100.372 83.899H99.3721ZM98.074 92.5962V93.5962C98.3648 93.5962 98.5028 93.6518 98.5872 93.7025C98.6873 93.7625 98.8087 93.8739 98.9911 94.1293L99.8048 93.548L100.619 92.9668C100.368 92.6165 100.057 92.2519 99.6162 91.9875C99.1598 91.7136 98.6486 91.5962 98.074 91.5962V92.5962ZM99.8048 93.548L98.9913 94.1296C99.1196 94.3091 99.2982 94.6712 99.5044 95.2951C99.7052 95.9026 99.9127 96.6972 100.125 97.6938L101.103 97.4855L102.081 97.2773C101.86 96.2403 101.635 95.369 101.403 94.6676C101.177 93.9827 100.923 93.3928 100.618 92.9665L99.8048 93.548ZM101.103 97.4855L100.112 97.6196L100.545 100.821L101.536 100.687L102.527 100.553L102.094 97.3515L101.103 97.4855ZM101.536 100.687L100.625 101.1C101.077 102.096 101.615 103.243 103.184 104.185L103.699 103.327L104.214 102.47C103.187 101.854 102.859 101.183 102.447 100.274L101.536 100.687ZM103.699 103.327L103.03 104.07C103.948 104.897 104.913 105.626 106.357 106.203L106.728 105.274L107.099 104.346C105.946 103.885 105.18 103.315 104.368 102.584L103.699 103.327ZM106.728 105.274L106.28 106.168C107.205 106.631 108.348 107.169 109.088 107.835L109.757 107.091L110.426 106.348C109.434 105.455 107.98 104.783 107.176 104.38L106.728 105.274ZM109.757 107.091L109.049 107.798C109.784 108.533 110.055 109.201 110.055 109.817H111.055H112.055C112.055 108.53 111.46 107.381 110.464 106.384L109.757 107.091ZM111.055 109.817H110.055C110.055 111.074 109.696 111.859 109.088 112.406L109.757 113.149L110.426 113.892C111.548 112.882 112.055 111.502 112.055 109.817H111.055ZM109.757 113.149L109.05 112.442C108.274 113.217 107.547 113.72 106.441 114.051L106.728 115.009L107.015 115.967C108.505 115.521 109.508 114.811 110.464 113.857L109.757 113.149ZM106.728 115.009L106.28 114.115C105.419 114.546 103.696 115.408 101.111 116.623L101.536 117.528L101.961 118.433C104.568 117.208 106.307 116.338 107.176 115.903L106.728 115.009ZM101.536 117.528L101.026 116.668C98.8093 117.98 96.5999 119.567 94.3976 121.439L95.0452 122.201L95.6929 122.963C97.8174 121.157 99.935 119.638 102.045 118.389L101.536 117.528ZM95.0452 122.201L94.3972 121.44L90.0702 125.122L90.7182 125.883L91.3663 126.645L95.6933 122.963L95.0452 122.201ZM90.7182 125.883L90.02 125.167C88.3536 126.793 86.6924 127.953 85.4654 128.648L85.9586 129.518L86.4519 130.388C87.8211 129.612 89.6215 128.35 91.4165 126.599L90.7182 125.883ZM85.9586 129.518L85.4446 128.66C84.34 129.322 82.7992 129.686 81.199 129.686V130.686V131.686C83.0604 131.686 84.981 131.27 86.4727 130.376L85.9586 129.518ZM81.199 130.686L81.3125 129.693L78.2837 129.347L78.1702 130.34L78.0567 131.334L81.0855 131.68L81.199 130.686ZM78.1702 130.34L78.4242 129.373C75.2021 128.527 73.2969 126.963 72.1444 124.62L71.2471 125.061L70.3498 125.503C71.7936 128.438 74.2152 130.335 77.9162 131.307L78.1702 130.34ZM71.2471 125.061L71.3676 124.068C64.4297 123.227 58.7585 122.806 55.2375 122.806V123.806V124.806C58.6396 124.806 64.2184 125.216 71.1267 126.054L71.2471 125.061Z" fill="#FFD495" mask="url(#path-1-inside-1_6_3)"/>
</svg>
