<svg width="112" height="131" viewBox="0 0 112 131" fill="none" xmlns="http://www.w3.org/2000/svg">
<path d="M53.55 31.9327C53.55 32.3654 53.1173 32.3653 53.1173 32.3653H52.6846C52.2519 32.3653 52.2519 31.9326 51.8192 31.5C51.8192 31.5 51.3865 31.0674 51.3865 30.6347C51.3865 30.202 51.3865 30.202 51.8192 30.202L52.6846 30.6347C53.1173 31.0674 53.55 31.5001 53.55 31.9327ZM45.7615 27.6058C45.7615 25.4424 44.8961 24.1443 43.598 24.1443C43.598 24.1443 43.598 24.577 43.1654 24.577V25.4424H44.4634C44.4634 26.3077 44.8961 26.7404 44.8961 27.6058H45.7615ZM60.9057 25.4424C61.7711 25.4424 62.2038 26.3077 62.6365 27.6058H63.5019C63.0692 27.1731 63.0692 26.7403 63.0692 26.3076C63.0692 25.875 63.0692 25.4424 62.6365 25.0097C62.2038 24.577 61.7711 24.1443 61.3384 24.1443C61.3384 24.1443 60.9057 24.577 60.473 24.577C60.473 25.0097 60.9057 25.0097 60.9057 25.4424ZM47.925 32.3653C47.4923 32.3653 47.4923 32.3654 47.4923 31.9327C47.4923 31.5001 47.4923 31.0674 47.925 30.6347C48.7904 30.6347 49.223 30.202 49.223 30.202C49.6557 30.202 49.6557 30.6347 49.6557 30.6347C49.6557 31.0674 49.223 31.5 48.3577 32.3653H47.925ZM43.1654 31.9327C41.4346 31.0674 41.0019 29.7693 41.0019 27.6058C41.0019 26.3077 41.0019 25.4424 41.8673 24.577C42.3 23.7116 43.1654 23.2789 44.0307 23.2789C44.8961 23.2789 45.3288 23.7116 46.1942 24.577C46.6269 25.8751 47.0596 27.173 47.0596 28.4711V29.3365H47.4923V28.9039C47.925 28.9039 47.925 28.0384 47.925 26.3076C47.925 25.0096 47.925 23.7116 47.0596 22.4135C46.1942 21.1154 45.3288 20.25 43.598 20.25C42.3 20.25 41.0019 21.1154 40.5692 22.4135C39.7038 24.1443 39.5307 25.4424 39.5307 27.6058C39.5307 29.3366 40.1365 31.0673 41.8673 32.798C42.3 32.3653 42.7327 32.3654 43.1654 31.9327ZM97.2519 92.9424C97.6846 92.9424 97.6846 92.7693 97.6846 92.3799C97.6846 91.4279 97.2519 90.3028 95.9538 89.048C94.6557 87.75 92.4923 86.9278 89.8961 86.5817C89.4634 86.5384 89.0307 86.5385 89.0307 86.5385C88.598 86.452 88.598 86.452 88.1654 86.452C87.7327 86.4087 86.8673 86.3221 86.4346 86.2355C87.7327 82.2115 88.1654 78.6635 88.1654 75.548C88.1654 71.2211 87.3 68.1924 85.5692 65.5962C83.8384 63.0001 82.1077 61.7019 79.9442 61.2692C79.5115 61.7019 79.5115 61.702 79.5115 62.1347C81.675 63.0001 83.8384 64.7308 85.1365 67.327C86.4346 70.3558 86.8673 72.952 86.8673 75.9808C86.8673 78.4039 86.4346 81.9952 84.7038 86.5817C82.973 87.274 81.2423 88.8751 79.9442 91.3847C79.9442 91.7741 79.9442 91.9903 80.3769 91.9903C80.3769 91.9903 80.8096 91.6009 81.2423 90.8653C82.1077 90.1298 82.5404 89.3943 83.4057 88.6587C84.7038 87.9231 85.5692 87.5337 86.8673 87.5337C89.0307 87.5337 91.1942 87.8366 92.4923 88.4424C94.223 89.0049 95.0884 89.6105 95.5211 90.3028C95.9538 90.9519 96.3865 91.5577 96.8192 92.1202C96.8192 92.6827 97.2519 92.9424 97.2519 92.9424ZM57.4442 30.202C57.0115 29.7693 57.0115 28.9039 57.0115 28.0385C57.0115 26.3077 57.0115 25.4424 57.8769 24.1443C58.7423 23.2789 59.6077 22.8461 60.473 22.8461C61.7711 22.8461 62.6365 23.7116 63.5019 24.577C63.9346 25.8751 64.3673 26.7404 64.3673 28.0385C64.3673 30.202 63.5019 31.5001 61.7711 31.9327C61.7711 31.9327 62.2038 32.3653 62.6365 32.3653C63.5019 32.3653 63.9346 32.7981 64.8 33.2308C65.2327 30.6347 65.6654 28.9039 65.6654 26.7404C65.6654 24.1443 65.2327 22.4135 64.3673 21.1154C63.0692 19.8174 61.7711 19.3847 60.0404 19.3847C58.7423 19.3847 57.4442 19.8173 56.1461 20.6826C55.2807 21.9807 54.848 22.8462 54.848 24.1443C54.848 26.3077 55.2807 28.0385 56.1461 29.7693C56.5788 29.7693 57.0115 30.202 57.4442 30.202ZM62.6365 37.125C57.0115 41.0192 52.6846 42.75 49.223 42.75C46.1942 42.75 43.1654 41.452 40.5692 39.2885C41.0019 40.1539 41.4346 41.0193 41.8673 41.452L44.4634 44.048C46.1942 45.7788 48.3577 46.6442 50.5211 46.6442C53.55 46.6442 57.0115 44.9135 61.3384 41.8847L65.2327 39.2885C66.098 38.4231 66.9634 37.5577 66.9634 36.2597C66.9634 35.827 66.9634 35.3942 66.5307 35.3942C66.098 34.5288 63.9346 33.2308 59.6077 31.9327C55.7134 30.202 52.6846 29.3365 50.9538 29.3365C49.6557 29.3365 47.4923 30.202 44.4634 31.9327C41.8673 33.6635 40.1365 35.3942 40.1365 37.125C40.1365 37.125 40.5692 37.5576 41.0019 38.423C43.598 40.5865 46.1942 41.8847 48.7904 41.8847C52.2519 41.8847 56.5788 40.1539 62.2038 35.827V36.6924C62.6365 36.6924 62.6365 37.125 62.6365 37.125ZM72.5884 124.529C74.3192 127.783 77.348 129.418 80.8096 129.418C81.675 129.418 82.5404 129.288 83.4057 129.029C84.2711 128.856 85.1365 128.553 85.5692 128.207C86.0019 127.904 86.4346 127.601 86.8673 127.255C87.7327 126.952 87.7327 126.735 88.1654 126.519L95.5211 120.159C97.2519 118.778 98.9827 117.571 101.146 116.524C102.877 115.485 104.608 114.793 105.473 114.404C106.771 114.058 107.637 113.538 108.502 112.846C108.935 112.197 109.367 111.375 109.367 110.336C109.367 109.082 108.502 108.13 107.637 107.437C106.771 106.745 105.906 106.269 105.04 105.966C104.175 105.663 103.31 104.971 102.012 103.803C101.146 102.678 100.281 101.12 99.848 99.0865L99.4154 96.577C98.9827 95.4087 98.9827 94.5433 98.55 94.0674C98.55 93.9376 98.55 93.8942 98.1173 93.8942C97.6846 93.8942 96.8192 94.2836 96.3865 95.0192C95.5211 95.7548 94.6557 96.577 93.7904 97.4424C93.3577 98.3078 92.0596 99.0866 91.1942 99.8222C89.8961 100.558 88.598 100.947 87.7327 100.947C84.2711 100.947 82.5404 99.9952 81.2423 98.1347C80.3769 96.7501 79.9442 95.149 79.5115 93.3317C78.6461 92.5961 78.2134 92.2067 77.348 92.2067C75.1846 92.2067 74.3192 94.4568 74.3192 99.0001V112.457C74.3192 112.846 73.8865 113.711 73.8865 115.053C73.4538 116.394 73.4538 117.917 73.4538 119.639L72.5884 124.442V124.516M9.84808 122.227C13.8721 122.815 18.5019 124.074 23.7375 125.996C28.973 127.899 32.175 128.895 33.3432 128.895C36.3721 128.895 38.8817 127.553 40.9586 124.961C41.3913 124.122 41.3913 123.135 41.3913 122.002C41.3913 117.913 38.925 112.742 33.9923 106.468L31.05 102.531C30.4442 101.709 29.7086 100.454 28.7567 98.7663C27.848 97.0788 27.0259 95.7807 26.3769 94.8721C25.8144 93.8769 24.9057 92.8818 23.7375 91.8866C22.6125 90.8914 21.3144 90.2423 19.8865 89.8961C18.0692 90.2423 16.8144 90.848 16.2086 91.6702C15.6029 92.4923 15.2567 93.401 15.1702 94.3529C15.0404 95.2616 14.7807 95.8673 14.348 96.1702C13.9154 96.4298 13.1798 96.6461 12.1846 96.8625C11.9682 96.8625 11.5788 96.8626 11.0163 96.9058H9.84808C7.55481 96.9058 5.99712 97.1654 5.175 97.5981C4.09327 98.8529 3.53077 100.281 3.53077 101.795C3.53077 102.487 3.70385 103.656 4.05 105.3C4.39615 106.901 4.56923 108.199 4.56923 109.108C4.56923 110.882 4.05 112.656 2.96827 114.43C1.88654 116.29 1.32404 117.675 1.32404 118.661C1.75673 120.34 4.6125 121.521 9.84808 122.214M24.2567 82.8822C24.2567 79.8966 25.0356 76.6082 26.6365 72.714C28.1942 68.8198 29.7519 66.2236 31.2663 64.4928C31.1798 64.0602 30.9634 64.0602 30.6173 64.0602L30.1846 63.6274C28.9298 64.9254 27.4154 67.9543 25.598 72.2812C23.7807 76.1755 22.8288 79.7668 22.8288 82.4062C22.8288 84.3534 23.3048 86.0408 24.1702 87.512C25.1221 88.9399 27.4154 91.0168 31.05 93.6562L35.6365 96.6419C40.5259 100.882 43.1221 103.824 43.1221 105.555C43.1221 106.464 42.6894 107.372 41.3913 108.368C40.5259 109.406 39.3577 109.925 38.3625 109.925C38.2759 109.925 38.2327 110.012 38.2327 110.228C38.2327 110.272 38.6654 111.137 39.574 112.824C41.3913 115.291 45.2856 116.502 50.4779 116.502C59.9971 116.502 67.3529 112.608 72.9779 104.82C72.9779 102.656 72.9779 101.315 72.5452 100.752V99.1515C72.5452 96.339 72.9779 94.2188 73.8432 92.8342C74.7086 91.4496 75.574 90.8005 76.8721 90.8005C77.7375 90.8005 78.6029 91.1033 79.4682 91.7524C79.9009 88.4206 79.9009 85.5217 79.9009 82.9255C79.9009 78.988 79.9009 75.7428 79.0355 72.714C78.6029 70.1178 77.7375 67.9543 76.8721 66.2235L74.2759 62.3293C73.4105 61.0312 72.9779 59.7332 72.1125 58.4352C71.6798 56.7044 71.2471 55.4063 71.2471 53.2428C69.949 51.0794 69.0836 48.9158 67.7855 46.7524C66.9202 44.5889 66.0548 42.4255 65.1894 40.6948L61.2952 43.7235C56.9682 46.7524 53.5067 48.0504 50.4779 48.0504C47.8817 48.0504 45.7182 47.6178 44.4202 45.8871L41.824 43.7235C41.824 45.0216 41.3913 46.7525 40.5259 48.4832L37.8 53.6754C36.5884 56.7043 35.9394 58.4352 35.8096 59.7332C35.6365 60.5986 35.5067 61.464 35.4202 61.464L32.175 67.9544C28.6702 74.4448 26.8961 80.4592 26.8961 85.4352C26.8961 86.4304 26.9827 87.4687 27.1557 88.5072C25.2086 87.1658 24.2567 85.3052 24.2567 82.8822ZM55.2375 123.815C49.6125 123.815 45.2856 124.576 42.2567 126.086V125.957C40.0932 128.553 37.6702 129.894 34.2952 129.894C32.175 129.894 28.8432 129.072 24.3432 127.428C19.8 125.87 15.7759 124.676 12.2711 123.888C11.925 123.789 11.1461 123.642 9.89133 123.443C8.67981 123.248 7.55481 123.049 6.55962 122.85C5.65096 122.655 4.6125 122.361 3.4875 121.963C2.40577 121.621 1.54039 121.175 0.89135 120.634C0.294231 120.089 0 119.475 0 118.787C0 118.095 0.147116 117.355 0.441347 116.567C0.71827 116.091 1.02115 115.615 1.32404 115.183C1.62692 114.707 1.88654 114.274 2.05962 113.841C2.31923 113.452 2.49231 113.062 2.66538 112.63C2.83846 112.24 3.01154 111.851 3.09808 111.375C3.18462 110.942 3.27115 110.509 3.27115 110.077C3.27115 109.644 3.09808 108.346 2.75192 106.053C2.40577 103.803 2.23269 102.375 2.23269 101.769C2.23269 99.8651 2.66539 98.3509 3.61731 97.2692C4.56923 96.1875 5.47789 95.6251 6.42981 95.6251H11.4057C11.7952 95.6251 12.4009 95.4087 13.3096 94.8895C13.6125 94.1972 13.8721 93.6346 14.0452 93.1153C14.2615 92.5961 14.348 92.2068 14.4346 92.0337C14.5211 91.7741 14.6077 91.5144 14.6942 91.298C14.8673 90.9952 15.0836 90.649 15.3865 90.3028C15.0404 89.8702 14.8673 89.3077 14.8673 88.6153C14.8673 88.1394 14.8673 87.7068 14.9538 87.4472C14.9538 85.8895 15.6894 83.6828 17.2471 80.7837L18.7615 78.0577C20.0163 75.7211 20.9682 73.9904 21.6605 72.2597C22.3961 70.5289 23.175 67.9327 24.0404 64.4712C24.7327 61.4424 26.3769 58.4135 28.973 55.3847L32.2182 51.4903C34.4682 48.8942 35.9394 46.7307 36.7615 45C37.5836 43.2692 38.0163 41.1057 38.0163 39.375C38.0163 38.5096 37.8 35.9134 37.324 31.5865C36.8913 27.2596 36.675 22.9327 36.675 19.0385C36.675 16.0097 36.9346 13.8462 37.4971 11.6827C38.0596 9.51923 39.0548 7.35577 40.5259 5.625C41.824 3.89423 43.5548 2.16346 46.1509 1.29808C48.7471 0.432692 51.7759 0 55.2375 0C56.5355 0 57.8336 2.98023e-08 59.1317 0.432692C60.4298 0.432692 62.1605 0.86538 64.324 1.73077C66.0548 2.59615 67.7855 3.46154 69.0836 4.75962C70.8144 6.05769 72.1125 8.22115 73.4105 10.3847C74.2759 12.9808 75.1413 15.577 75.574 19.0385C76.0067 21.202 76.0067 23.3654 76.4394 26.3943C76.4394 28.9904 76.8721 30.7211 76.8721 32.0192C77.3048 33.3173 77.3048 35.0481 77.7375 37.2116C78.1702 38.9424 78.6029 40.673 79.4682 41.9711C80.3336 43.7019 81.199 45.4327 82.4971 47.1635C83.7952 49.327 85.5259 51.4904 87.2567 54.0866C91.1509 58.4135 94.1798 63.173 95.9105 67.9326C98.074 72.2596 99.3721 77.8846 99.3721 83.899C99.3721 86.8846 98.9394 89.7837 98.074 92.5962C98.9394 92.5962 99.3721 92.9423 99.8048 93.548C100.238 94.1538 100.67 95.4519 101.103 97.4855L101.536 100.687C101.968 101.639 102.401 102.548 103.699 103.327C104.564 104.106 105.43 104.755 106.728 105.274C107.593 105.707 108.891 106.312 109.757 107.091C110.622 107.957 111.055 108.865 111.055 109.817C111.055 111.288 110.622 112.37 109.757 113.149C108.891 114.014 108.026 114.62 106.728 115.009C105.863 115.442 104.132 116.308 101.536 117.528C99.3721 118.809 97.2086 120.362 95.0452 122.201L90.7182 125.883C88.9875 127.571 87.2567 128.782 85.9586 129.518C84.6605 130.296 82.9298 130.686 81.199 130.686L78.1702 130.34C74.7086 129.431 72.5452 127.7 71.2471 125.061C64.324 124.221 58.699 123.806 55.2375 123.806" fill="#FFD495"/>
</svg>
