<svg width="157" height="81" viewBox="0 0 157 81" fill="none" xmlns="http://www.w3.org/2000/svg">
<g clip-path="url(#clip0_268_81)">
<path d="M0.296143 73.7132H5.44558V53.3786L13.4176 71.1056C14.3582 73.2513 15.6458 74.0104 18.1708 74.0104C20.6961 74.0104 21.9339 73.2513 22.8749 71.1056L30.8466 53.3786V73.7132H35.9964V53.4119C35.9964 51.4314 35.2038 50.4738 33.5701 49.979C29.6585 48.7576 27.034 49.8138 25.8455 52.4547L18.0223 69.9499L10.4466 52.4547C9.30783 49.8138 6.63403 48.7576 2.72245 49.979C1.08833 50.4738 0.296143 51.4314 0.296143 53.4119V73.7132Z" fill="#FFD495"/>
<path d="M40.2778 57.162H45.4257V68.3648C45.3776 68.9735 45.621 70.4018 48.442 70.4464C49.8811 70.4688 59.5494 70.4464 59.6396 70.4464V57.1074H64.7996C64.8232 57.1074 64.7944 75.2979 64.7948 75.3753C64.8232 79.8616 59.2282 80.836 56.6495 80.9114H40.3897V77.4472C40.4182 77.4472 56.6374 77.4505 56.6783 77.4464C59.9925 77.0964 59.6011 75.4491 59.6007 74.8945V73.544H48.6557C43.5635 73.4971 40.3207 71.2748 40.2806 68.7181C40.277 68.4811 40.3905 57.2738 40.2778 57.162Z" fill="#FFD495"/>
<path d="M68.7683 73.7132H83.5729C85.3059 73.7132 86.9897 73.3503 88.3266 72.7227C90.5545 71.6998 91.644 70.3136 91.644 68.4975V64.7346C91.644 63.249 90.4061 61.8623 87.9797 60.9384C86.6922 60.4428 85.1079 60.179 83.5729 60.179H77.3339C75.2547 60.179 74.2643 59.5518 74.0169 58.1656C73.9671 58.0004 73.9671 57.8681 73.9671 57.7033V55.3599C73.9671 55.2275 73.9671 55.0952 74.0169 54.9304C74.2643 53.8742 74.8092 53.5767 76.6409 53.4119C76.7897 53.4119 76.9874 53.3786 77.1362 53.3786H91.8421V49.9461H77.3836C75.304 49.9461 74.2146 50.078 73.2245 50.3748C70.1545 51.3323 68.8176 52.8509 68.8176 55.4918V58.4956C68.8176 60.8065 71.4421 62.787 75.8486 63.249C76.3442 63.2818 76.839 63.3147 77.3339 63.3147H82.6815C82.88 63.3147 83.078 63.3147 83.2264 63.348C84.8604 63.4803 85.5534 63.7771 86.049 64.3713C86.3457 64.6681 86.4448 64.9656 86.4448 65.2956V68.2994C86.4448 68.6627 86.1973 69.1251 85.7025 69.5208C85.2566 69.917 84.514 70.1813 83.5235 70.2474C83.3255 70.2474 83.1771 70.2803 82.979 70.2803H68.7683V73.7132Z" fill="#FFD495"/>
<path d="M123.768 67.7384C123.768 71.2704 126.392 73.2512 131.69 73.6474C132.185 73.6803 132.681 73.7132 133.176 73.7132H146.594V70.2803H133.077C130.056 70.2803 128.918 69.5208 128.918 67.7056V49.9461H123.768V67.7384Z" fill="#FFD495"/>
<path d="M94.9304 67.9185V55.6795C94.9304 52.5702 97.1138 50.6843 101.43 50.0889C101.877 50.0231 102.373 49.9898 102.819 49.9898H112.594C113.09 49.9898 113.537 50.0231 114.033 50.0889C118.35 50.6843 120.533 52.5702 120.533 55.6795V67.9185C120.533 70.4411 119.606 71.7912 117.469 72.671L122.541 77.2495H116.562L112.459 73.5452L108.327 73.807H102.819C101.877 73.807 100.885 73.6743 99.7928 73.3768C96.5183 72.4838 94.9304 70.7635 94.9304 67.9185ZM100.489 67.6209C100.489 67.7866 100.538 67.9518 100.588 68.1502C100.885 69.5726 102.225 70.3665 104.259 70.3665H108.937L104.64 66.4869H110.619L114.367 69.8705C115.058 69.5024 115.512 68.9394 115.671 68.2164C115.721 68.0512 115.721 67.8856 115.721 67.7204V55.9774C115.721 55.8451 115.721 55.6795 115.671 55.5138C115.373 54.191 114.034 53.4303 112.049 53.4303H104.259C101.977 53.4303 100.489 54.4228 100.489 55.9774V67.6209Z" fill="#FFD495"/>
<path d="M151.125 44.251C147.959 44.1652 145.541 44.4596 143.474 45.3313C142.887 45.5791 141.95 45.5855 141.854 46.3218C142.177 46.6602 142.227 47.1654 142.484 47.5817C142.977 48.3804 143.811 49.4507 144.554 50.0121C145.367 50.6252 146.204 51.2812 147.075 51.8121C148.624 52.7568 150.353 53.2962 151.845 54.2425C152.724 54.8003 153.597 55.5028 154.455 56.1324C154.879 56.4435 155.164 56.9275 155.715 57.1224C155.715 57.0927 155.715 57.0627 155.715 57.0326C155.425 56.6641 155.351 56.1572 155.085 55.7723C154.695 55.3825 154.305 54.9924 153.915 54.6022C152.771 53.0837 151.318 51.75 149.775 50.642C148.544 49.7582 145.788 48.5645 145.274 47.1318C145.244 47.1017 145.215 47.0716 145.184 47.0415C146.057 46.9433 147.079 46.6273 147.885 46.4116C149.238 46.0487 150.448 46.1425 151.845 45.7816C152.475 45.6016 153.105 45.4211 153.735 45.2415C153.735 45.1212 153.735 45.0017 153.735 44.8814C153.029 44.1564 152.525 43.1972 151.755 42.5412C149.739 40.825 147.54 39.1103 145.274 37.6806C144.018 36.8876 142.465 36.3723 141.134 35.7003C140.686 35.4743 139.899 35.3568 139.604 34.9802C138.904 34.0885 138.523 32.9584 137.984 31.9198C136.854 29.7442 135.744 27.368 134.744 25.0791C134.061 23.5183 133.615 21.9789 132.763 20.5786C128.677 13.8592 124.277 9.80351 117.462 5.8171C116.013 4.96933 114.267 4.6345 112.422 4.1971C111.432 4.1372 110.442 4.07689 109.452 4.01698C108.847 3.7644 108.218 3.02505 107.651 2.66677C105.394 1.24058 99.6032 -1.86162 97.9311 2.21681C96.8753 4.79113 99.509 7.30321 100.451 8.60759C101.112 9.52273 101.959 10.5487 102.431 11.5778C102.742 12.2541 102.795 12.9324 103.061 13.6482C103.716 15.4111 104.285 17.3291 105.131 18.9586C105.559 19.7829 106.031 20.6514 106.572 21.3888C106.903 21.8411 107.471 22.0404 107.561 22.739C107.005 23.5167 106.974 24.7239 106.661 25.7092C105.255 30.1448 105.785 35.658 107.832 38.9407C108.459 39.9484 109.938 42.1098 111.972 41.2809C113.751 40.5563 113.353 38.3112 113.862 36.3304C113.977 35.8812 113.907 35.5511 114.132 35.2503C114.132 35.2801 114.132 35.3102 114.132 35.3404C114.672 36.4204 115.212 37.5004 115.752 38.5802C116.951 40.5114 119.079 42.5296 120.883 43.8914C121.818 44.5975 122.554 45.8185 123.763 46.2315C123.763 46.2015 123.763 46.1718 123.763 46.1413C123.732 46.1413 123.703 46.1413 123.673 46.1413C123.438 45.776 123.072 45.6248 122.773 45.3313C122.068 44.6408 121.285 43.7823 120.702 42.9911C119.062 40.7644 117.613 38.3272 116.292 35.7904C115.662 34.5792 115.113 33.2427 114.582 32.0099C114.377 31.5345 114.379 30.8159 113.952 30.5697C113.37 31.4731 112.512 32.2034 112.062 33.27C111.342 34.9751 111.249 37.0544 110.982 39.2106C110.824 39.2671 110.894 39.2282 110.802 39.3004C109.548 38.9981 109.107 37.7076 108.642 36.6006C107.463 33.8007 107.244 29.2923 108.281 26.0695C108.55 25.2358 109.762 22.6094 109.271 21.8391C109.037 21.0704 108.264 20.6259 107.832 20.0386C107.296 19.3125 106.762 18.3567 106.391 17.5183C105.427 15.3352 104.976 12.8846 103.961 10.6779C103.476 9.62298 102.655 8.55551 101.981 7.61767C101.235 6.57878 100.399 5.81358 99.8209 4.55699C99.6152 4.11057 99.3357 3.39589 99.6409 2.93695C99.7379 2.62719 99.8747 2.49799 100.181 2.39694C100.703 1.99439 102.157 2.53087 102.701 2.75683C104.144 3.35635 105.349 3.92728 106.572 4.73712C107.159 5.12636 107.752 5.87898 108.461 6.08733C108.731 6.08733 109.002 6.08733 109.271 6.08733C110.539 6.37865 111.958 6.17779 113.142 6.53724C115.234 7.17321 117.109 8.16238 118.812 9.23767C124 12.5134 128.242 17.1764 131.143 22.739C131.61 23.6345 131.812 24.4894 132.223 25.4394C133.053 27.3551 134.098 29.3264 134.923 31.1997C135.747 33.0688 136.55 34.9551 137.714 36.5105C138.326 37.3281 140.69 37.7667 141.764 38.2206C142.517 38.5389 143.751 38.8706 144.464 39.3004C145.827 40.1224 147.147 41.1009 148.425 42.0011C149.064 42.451 151.027 43.4378 151.125 44.251Z" fill="#FFD495"/>
<path fill-rule="evenodd" clip-rule="evenodd" d="M110.892 9.95777C110.232 9.94562 109.765 10.0298 109.271 10.1375C109.271 10.1677 109.271 10.1978 109.271 10.2276C109.302 10.2276 109.332 10.2276 109.362 10.2276C109.676 10.8745 110.232 11.2907 110.622 11.848C110.922 12.4781 111.221 13.1082 111.522 13.7378C111.552 13.708 111.582 13.6779 111.612 13.6481C112.169 13.2554 112.424 12.6269 112.422 11.6679C112.198 11.4329 112.165 11.138 111.972 10.8576C111.714 10.4841 111.216 10.2718 110.892 9.95777Z" fill="#FFD495"/>
<path fill-rule="evenodd" clip-rule="evenodd" d="M149.011 70.1825C149.011 72.4497 150.803 73.9775 152.806 73.9775C154.81 73.9775 156.601 72.4497 156.601 70.1825C156.601 67.9157 154.81 66.3879 152.806 66.3879C150.803 66.3879 149.011 67.9157 149.011 70.1825ZM155.751 70.1825C155.751 71.9028 154.436 73.1883 152.806 73.1883C151.157 73.1883 149.862 71.9028 149.862 70.1825C149.862 68.4623 151.157 67.1767 152.806 67.1767C154.436 67.1767 155.751 68.4623 155.751 70.1825ZM153.829 72.3483H154.679L153.434 70.446C154.102 70.375 154.608 70.051 154.608 69.2618C154.608 68.3813 154.052 68.0172 152.979 68.0172H151.289V72.3483H152.017V70.476H152.695L153.829 72.3483ZM152.017 69.8689V68.6243H152.857C153.292 68.6243 153.819 68.7053 153.819 69.2113C153.819 69.818 153.343 69.8689 152.796 69.8689H152.017Z" fill="#FFD495"/>
</g>
<defs>
<clipPath id="clip0_268_81">
<rect width="156.787" height="81" fill="white"/>
</clipPath>
</defs>
</svg>
