<svg width="158" height="79" viewBox="0 0 158 79" fill="none" xmlns="http://www.w3.org/2000/svg">
<path d="M140.599 33.3533C140.242 33.3533 139.895 33.427 139.587 33.6009L129.863 39.2168C129.233 39.5792 128.851 40.2642 128.851 40.9925V52.2041C128.851 52.9321 129.233 53.616 129.863 53.9795L132.402 55.443C133.636 56.0514 134.091 56.0417 134.653 56.0417C136.48 56.0417 137.523 54.9331 137.523 53.0065V41.9455C137.523 41.7891 137.387 41.6772 137.234 41.6772H136.015C135.859 41.6772 135.726 41.792 135.726 41.9455V53.0122C135.726 53.8662 134.837 54.7254 133.393 54.0034L130.753 52.4549C130.66 52.4041 130.588 52.3114 130.588 52.2073V40.9957C130.588 40.8895 130.659 40.781 130.753 40.7273L140.458 35.1316C140.549 35.0793 140.657 35.0793 140.747 35.1316L150.451 40.7273C150.543 40.7827 150.616 40.886 150.616 40.9957V52.2073C150.616 52.3143 150.562 52.4239 150.471 52.4756L140.747 58.0713C140.661 58.121 140.546 58.121 140.458 58.0713L137.96 56.5849C137.885 56.5413 137.784 56.5447 137.712 56.5849C137.022 56.9757 136.893 57.0211 136.246 57.2455C136.087 57.3008 135.844 57.3872 136.329 57.6587L139.591 59.5813C139.901 59.761 140.248 59.8496 140.603 59.8496C140.963 59.8496 141.304 59.7636 141.615 59.5813L151.339 53.9856C151.969 53.6194 152.351 52.9382 152.351 52.2101V40.9985C152.351 40.2702 151.969 39.5867 151.339 39.2228L141.615 33.6069C141.31 33.433 140.96 33.3593 140.603 33.3593L140.599 33.3533ZM143.201 41.3647C140.431 41.3647 138.782 42.5432 138.782 44.5029C138.782 46.6264 140.419 47.213 143.077 47.4758C146.257 47.7872 146.504 48.2541 146.504 48.8799C146.504 49.9655 145.639 50.4284 143.593 50.4284C141.023 50.4284 140.458 49.7867 140.269 48.5057C140.247 48.3686 140.141 48.2581 140.001 48.2581H138.738C138.662 48.2598 138.589 48.2908 138.536 48.3446C138.482 48.3984 138.451 48.4709 138.449 48.5471C138.449 50.1836 139.339 52.1189 143.59 52.1189C146.667 52.1189 148.442 50.9136 148.442 48.7947C148.442 46.6999 147.009 46.1337 144.024 45.7386C141.011 45.3368 140.72 45.1445 140.72 44.4378C140.72 43.8547 140.964 43.0747 143.198 43.0747C145.193 43.0747 145.931 43.5051 146.233 44.8504C146.26 44.9767 146.371 45.08 146.502 45.08H147.764C147.842 45.08 147.917 45.0323 147.971 44.9767C148.024 44.9173 148.061 44.8504 148.053 44.7701C147.858 42.4531 146.313 41.3632 143.202 41.3632L143.201 41.3647Z" fill="#FFD495"/>
<path d="M83.4275 18.6559C83.3189 18.6561 83.2122 18.6846 83.1179 18.7385C83.0241 18.7934 82.9462 18.8718 82.8919 18.966C82.8376 19.0601 82.8088 19.1668 82.8083 19.2754V35.0704C82.8083 35.2254 82.736 35.3643 82.6017 35.442C82.5359 35.4804 82.461 35.5006 82.3849 35.5006C82.3087 35.5006 82.2339 35.4804 82.1681 35.442L79.5871 33.9556C79.3989 33.8466 79.1852 33.7893 78.9677 33.7893C78.7502 33.7893 78.5366 33.8466 78.3483 33.9556L68.0458 39.9017C67.6607 40.1238 67.426 40.5514 67.426 40.9959V52.8885C67.4257 53.1061 67.4828 53.32 67.5916 53.5084C67.7003 53.6969 67.8569 53.8534 68.0455 53.962L78.3483 59.9084C78.5365 60.0176 78.7502 60.0752 78.9677 60.0752C79.1853 60.0752 79.399 60.0176 79.5871 59.9084L89.8899 53.962C90.0785 53.8534 90.2351 53.6969 90.3439 53.5084C90.4527 53.32 90.5098 53.1061 90.5095 52.8885V23.2395C90.5095 22.7884 90.2633 22.3652 89.8696 22.1454L83.7375 18.7176C83.641 18.6639 83.5343 18.6547 83.4275 18.6559ZM17.1507 33.501C16.9542 33.5091 16.7697 33.5432 16.5932 33.6457L6.29066 39.5918C6.10192 39.7002 5.94523 39.8566 5.83647 40.0452C5.72771 40.2337 5.67076 40.4477 5.67139 40.6653L5.69234 56.6259C5.69234 56.848 5.80713 57.054 6.00226 57.1625C6.19366 57.2773 6.43098 57.2773 6.62152 57.1625L12.733 53.6524C13.1204 53.4228 13.3729 53.0222 13.3729 52.5791V45.1253C13.3729 44.6805 13.6068 44.273 13.9927 44.052L16.5943 42.5449C16.7823 42.4356 16.9961 42.3785 17.2136 42.3796C17.4312 42.3783 17.6451 42.4354 17.8331 42.5449L20.4336 44.0512C20.819 44.2721 21.0529 44.6802 21.0529 45.1244V52.578C21.0529 53.0216 21.3111 53.4245 21.6928 53.6512L27.8042 57.1613C27.9965 57.2761 28.2332 57.2761 28.4235 57.1613C28.6129 57.0523 28.7334 56.8465 28.7334 56.6247L28.7541 40.6647C28.7553 40.447 28.6986 40.2328 28.5898 40.0441C28.4809 39.8555 28.3239 39.6992 28.1348 39.5912L17.8323 33.6454C17.6581 33.5432 17.4727 33.5088 17.2747 33.5007H17.1513L17.1507 33.501ZM109.732 33.6457C109.514 33.6451 109.3 33.7021 109.112 33.8109L98.8093 39.7574C98.4248 39.9798 98.1895 40.3864 98.1895 40.8306V52.7232C98.1895 53.1703 98.4414 53.5755 98.8294 53.7964L109.05 59.6218C109.427 59.837 109.887 59.8533 110.268 59.6418L116.462 56.1937C116.658 56.0847 116.791 55.8809 116.792 55.6571C116.792 55.4333 116.676 55.2318 116.482 55.1205L106.117 49.174C105.923 49.0633 105.787 48.8392 105.787 48.6165V44.8977C105.787 44.6756 105.925 44.4719 106.117 44.3611L109.338 42.5027C109.529 42.392 109.765 42.392 109.957 42.5027L113.18 44.3611C113.274 44.4153 113.352 44.4935 113.407 44.5877C113.461 44.682 113.49 44.7889 113.489 44.8977V47.8296C113.489 47.9384 113.518 48.0454 113.572 48.1396C113.626 48.2339 113.705 48.312 113.799 48.3662C113.992 48.4776 114.226 48.4782 114.419 48.3662L120.592 44.7743C120.975 44.5517 121.212 44.1439 121.212 43.7011V40.8315C121.212 40.6139 121.155 40.4002 121.046 40.2117C120.937 40.0233 120.781 39.8668 120.592 39.7579L110.351 33.8115C110.163 33.7025 109.949 33.6455 109.732 33.6462L109.732 33.6457ZM78.9263 42.5243C78.9839 42.524 79.0407 42.5381 79.0915 42.5653L82.622 44.6093C82.7179 44.6647 82.7873 44.7672 82.7873 44.8776V48.9657C82.7873 49.0768 82.7185 49.1789 82.622 49.234L79.0915 51.278C78.9954 51.3326 78.8781 51.3326 78.7816 51.278L75.2511 49.234C75.155 49.1786 75.0858 49.0762 75.0858 48.9657V44.8771C75.0858 44.7663 75.1553 44.6647 75.2511 44.6088L78.7816 42.565C78.8298 42.5372 78.8723 42.5243 78.9263 42.5243Z" fill="#FFD495"/>
<path d="M48.1008 33.5834C47.8832 33.5831 47.6694 33.6401 47.4809 33.7487L37.1781 39.6745C36.793 39.8966 36.5588 40.3245 36.5588 40.7687V52.6612C36.5583 52.8789 36.6152 53.0928 36.724 53.2812C36.8328 53.4697 36.9894 53.6261 37.1781 53.7345L47.4809 59.6809C47.6691 59.7901 47.8828 59.8476 48.1003 59.8476C48.3179 59.8476 48.5316 59.7901 48.7197 59.6809L59.0225 53.7345C59.2111 53.6259 59.3677 53.4694 59.4765 53.2809C59.5853 53.0924 59.6424 52.8786 59.6421 52.661V40.7684C59.6421 40.3236 59.4079 39.896 59.0222 39.6742L48.7194 33.7484C48.5312 33.6393 48.3172 33.5822 48.0996 33.5831L48.1008 33.5834ZM109.712 44.1962C109.671 44.1962 109.625 44.1962 109.588 44.2162L107.606 45.3727C107.569 45.3932 107.538 45.4231 107.516 45.4593C107.494 45.4955 107.482 45.5368 107.482 45.579V47.8503C107.482 47.9358 107.531 48.0139 107.606 48.0569L109.588 49.1924C109.622 49.2135 109.661 49.2247 109.701 49.2247C109.741 49.2247 109.78 49.2135 109.814 49.1924L111.796 48.0569C111.87 48.0148 111.92 47.9358 111.92 47.8503V45.579C111.92 45.4935 111.87 45.4155 111.796 45.3724L109.814 44.216C109.778 44.1941 109.753 44.1962 109.712 44.1962Z" fill="#FFD495"/>
</svg>
