<svg width="136" height="73" viewBox="0 0 136 73" fill="none" xmlns="http://www.w3.org/2000/svg">
<mask id="mask0_268_183" style="mask-type:luminance" maskUnits="userSpaceOnUse" x="-1" y="-3" width="138" height="79">
<path d="M-0.837402 -2.03647H136.181V75.0366H-0.837402V-2.03647Z" fill="white"/>
</mask>
<g mask="url(#mask0_268_183)">
<path d="M67.672 68.5283C102.576 68.5283 130.872 54.1886 130.872 36.4999C130.872 18.8115 102.576 4.4716 67.672 4.4716C32.7682 4.4716 4.47217 18.8115 4.47217 36.4999C4.47217 54.1886 32.7682 68.5283 67.672 68.5283Z" fill="#FFD495"/>
</g>
<mask id="mask1_268_183" style="mask-type:luminance" maskUnits="userSpaceOnUse" x="-1" y="-3" width="138" height="79">
<path d="M-0.837402 -2.03647H136.181V75.0366H-0.837402V-2.03647Z" fill="white"/>
</mask>
<g mask="url(#mask1_268_183)">
<path d="M37.636 40.4711C40.506 40.4711 42.6486 39.9418 44.0043 38.8984C45.3454 37.8658 46.2717 36.0767 46.7572 33.5811C47.2099 31.2485 47.0375 29.6197 46.2449 28.7407C45.4344 27.843 43.6822 27.3877 41.037 27.3877H36.4504L33.9077 40.4711H37.636ZM22.6346 56.5874C22.4217 56.5874 22.2195 56.4922 22.0841 56.3276C21.9485 56.1633 21.8936 55.9468 21.9343 55.7377L28.6729 21.0665C28.7381 20.7313 29.0319 20.4892 29.3735 20.4892H43.897C48.4614 20.4892 51.8588 21.7285 53.9943 24.1732C56.1411 26.6308 56.8041 30.066 55.9646 34.3833C55.623 36.1421 55.0355 37.7757 54.2183 39.2381C53.4003 40.7023 52.3191 42.057 51.0044 43.2654C49.4305 44.7384 47.6493 45.8065 45.7149 46.4349C43.8111 47.0551 41.3662 47.3696 38.4481 47.3696H32.5673L30.8878 56.0098C30.8226 56.3452 30.5291 56.5874 30.1875 56.5874H22.6346Z" fill="#00008B"/>
<path d="M37.0387 28.1012H41.037C44.2296 28.1012 45.3386 28.8017 45.7154 29.2192C46.3405 29.9124 46.4585 31.3739 46.0567 33.4456C45.6052 35.765 44.7684 37.4094 43.569 38.3329C42.3411 39.2782 40.3448 39.7573 37.636 39.7573H34.7734L37.0387 28.1012ZM43.897 19.7754H29.3733C28.6901 19.7754 28.1028 20.2597 27.9724 20.9303L21.2338 55.6015C21.1524 56.0199 21.2623 56.4526 21.5333 56.7816C21.8044 57.1106 22.2084 57.3009 22.6346 57.3009H30.1873C30.8707 57.3009 31.4581 56.8166 31.5884 56.146L33.1556 48.0831H38.4482C41.4412 48.0831 43.9608 47.7567 45.9364 47.1132C47.9681 46.4531 49.8374 45.3339 51.4918 43.7867C52.8601 42.5279 53.9872 41.1149 54.8411 39.5865C55.6954 38.0576 56.3091 36.3528 56.6652 34.5192C57.5489 29.9747 56.831 26.3356 54.5317 23.7037C52.2547 21.0971 48.6765 19.7754 43.897 19.7754ZM33.0419 41.1846H37.636C40.6811 41.1846 42.9493 40.611 44.4396 39.4637C45.9302 38.3162 46.9355 36.401 47.4578 33.7173C47.9576 31.1406 47.73 29.3222 46.7749 28.2629C45.8186 27.2037 43.9063 26.6739 41.037 26.6739H35.8622L33.0419 41.1846ZM43.897 21.2027C48.2662 21.2027 51.4535 22.3493 53.4569 24.6427C55.4601 26.9361 56.0634 30.1372 55.2641 34.247C54.9351 35.94 54.3787 37.4879 53.5954 38.8902C52.8111 40.2935 51.787 41.5766 50.5215 42.7401C49.0133 44.1514 47.338 45.1572 45.4944 45.7561C43.6508 46.3568 41.3027 46.6558 38.4482 46.6558H31.9788L30.1873 55.8736H22.6346L29.3733 21.2027H43.897Z" fill="#FFD495"/>
<path d="M73.2818 47.3696C73.0687 47.3696 72.8667 47.2744 72.7314 47.1098C72.5956 46.9454 72.5406 46.7292 72.5813 46.5199L75.5622 31.1792C75.8457 29.7203 75.7758 28.6732 75.3654 28.2307C75.1142 27.9603 74.3597 27.5066 72.1286 27.5066H66.7282L62.9805 46.792C62.9153 47.1274 62.6215 47.3696 62.2799 47.3696H54.7867C54.5735 47.3696 54.3716 47.2744 54.236 47.1098C54.1004 46.9454 54.0454 46.729 54.0861 46.5199L60.8248 11.8487C60.89 11.5135 61.1837 11.2713 61.5253 11.2713H69.0186C69.2317 11.2713 69.4337 11.3665 69.5692 11.5309C69.7048 11.6955 69.7598 11.9117 69.7191 12.1211L68.093 20.4892H73.9025C78.3282 20.4892 81.3293 21.2694 83.0773 22.8746C84.859 24.5122 85.4149 27.1305 84.7298 30.6578L81.5945 46.792C81.5294 47.1274 81.2358 47.3696 80.894 47.3696H73.2818Z" fill="#00008B"/>
<path d="M69.0186 10.5576H61.5254C60.842 10.5576 60.2546 11.0419 60.1243 11.7125L53.3856 46.3837C53.3043 46.8021 53.4142 47.2348 53.6854 47.5638C53.9565 47.8928 54.3605 48.0831 54.7867 48.0831H62.2799C62.9631 48.0831 63.5507 47.5987 63.6811 46.9282L67.3166 28.2201H72.1286C74.3559 28.2201 74.8233 28.6959 74.8421 28.7163C74.9772 28.8617 75.1549 29.5349 74.8616 31.043L71.8808 46.3837C71.7994 46.8021 71.9093 47.2348 72.1805 47.5638C72.4517 47.8928 72.8556 48.0831 73.2819 48.0831H80.894C81.5772 48.0831 82.1648 47.5987 82.2951 46.9282L85.4302 30.794C86.1659 27.0067 85.5365 24.1657 83.5602 22.3493C81.6743 20.6173 78.5152 19.7754 73.9025 19.7754H68.9584L70.4197 12.2572C70.5008 11.8388 70.3912 11.4058 70.12 11.0771C69.8488 10.7481 69.4449 10.5576 69.0186 10.5576ZM69.0186 11.9848L67.2271 21.2027H73.9025C78.1027 21.2027 80.9999 21.9358 82.5944 23.4002C84.1889 24.8655 84.6666 27.2398 84.0293 30.5218L80.894 46.6558H73.2819L76.2627 31.3154C76.602 29.5703 76.4773 28.38 75.8883 27.7453C75.2991 27.1107 74.0457 26.7928 72.1286 26.7928H66.1398L62.2799 46.6558H54.7867L61.5254 11.9848H69.0186Z" fill="#FFD495"/>
<path d="M96.5861 40.4711C99.4562 40.4711 101.599 39.9418 102.954 38.8984C104.296 37.866 105.222 36.077 105.708 33.5811C106.16 31.2485 105.988 29.6197 105.195 28.7407C104.385 27.843 102.632 27.3877 99.9871 27.3877H95.4006L92.8579 40.4711H96.5861ZM81.585 56.5874C81.3721 56.5874 81.1699 56.4922 81.0345 56.3276C80.8989 56.1633 80.8438 55.9468 80.8844 55.7377L87.6231 21.0665C87.6885 20.7313 87.982 20.4892 88.3239 20.4892H102.847C107.412 20.4892 110.809 21.7285 112.945 24.1732C115.091 26.6305 115.754 30.0657 114.915 34.3833C114.573 36.1421 113.986 37.7757 113.168 39.2381C112.35 40.7023 111.269 42.057 109.954 43.2654C108.381 44.7384 106.599 45.8065 104.665 46.4349C102.761 47.0551 100.316 47.3696 97.3983 47.3696H91.5172L89.8385 56.0098C89.773 56.3452 89.4795 56.5874 89.1377 56.5874H81.585Z" fill="#00008B"/>
<path d="M95.9889 28.1012H99.9872C103.18 28.1012 104.289 28.8017 104.666 29.2192C105.291 29.9124 105.409 31.3739 105.007 33.4454C104.555 35.765 103.718 37.4094 102.519 38.3329C101.291 39.2782 99.295 39.7573 96.5862 39.7573H93.7238L95.9889 28.1012ZM102.847 19.7754H88.3237C87.6405 19.7754 87.0532 20.2597 86.9229 20.9303L80.1842 55.6015C80.1029 56.0199 80.2128 56.4526 80.4837 56.7816C80.7549 57.1106 81.1588 57.3009 81.5851 57.3009H89.1378C89.8209 57.3009 90.4085 56.8166 90.5389 56.146L92.1058 48.0831H97.3984C100.391 48.0831 102.911 47.7567 104.887 47.1132C106.918 46.4531 108.788 45.3337 110.442 43.7863C111.811 42.5276 112.937 41.1149 113.791 39.5865C114.646 38.0576 115.259 36.3528 115.615 34.5192C116.499 29.9745 115.781 26.3354 113.482 23.7035C111.205 21.0971 107.627 19.7754 102.847 19.7754ZM91.9923 41.1846H96.5862C99.6313 41.1846 101.9 40.611 103.39 39.4637C104.881 38.3162 105.886 36.401 106.408 33.7173C106.908 31.1406 106.68 29.3222 105.725 28.2629C104.769 27.2037 102.857 26.6739 99.9872 26.6739H94.8124L91.9923 41.1846ZM102.847 21.2027C107.216 21.2027 110.404 22.3493 112.407 24.6427C114.411 26.9361 115.014 30.1372 114.214 34.247C113.885 35.94 113.329 37.4879 112.546 38.8902C111.761 40.2935 110.737 41.5766 109.472 42.7401C107.964 44.1514 106.288 45.1572 104.445 45.7561C102.601 46.3568 100.253 46.6558 97.3984 46.6558H90.929L89.1378 55.8736H81.5851L88.3237 21.2027H102.847Z" fill="#FFD495"/>
</g>
</svg>
