<svg width="190" height="95" viewBox="0 0 190 95" fill="none" xmlns="http://www.w3.org/2000/svg">
<path d="M21.4701 69.551H13.2051V61.2385H21.9197C25.1086 61.2385 26.7046 62.6635 26.7046 65.4597C26.7046 68.1878 24.9597 69.5526 21.4716 69.5526M27.4123 61.142C26.2802 60.1286 24.6953 59.6219 22.6576 59.6219L10.8206 59.6853V79.572H13.2051L13.1829 71.1059H21.991C24.1997 71.1059 25.9382 70.5992 27.2065 69.5859C28.4747 68.5725 29.1096 67.1634 29.1096 65.3647C29.1096 63.566 28.5428 62.1569 27.4107 61.1435L27.4123 61.142ZM42.8451 75.3983C42.6176 76.049 42.228 76.6311 41.713 77.0893C40.6442 78.1343 39.015 78.652 36.8046 78.652C34.8255 78.652 33.3213 78.1454 32.2446 77.132C31.168 76.1187 30.6534 74.7618 30.6534 73.0629C30.6534 72.1762 30.7927 71.3925 31.0698 70.7069C31.3326 70.043 31.7455 69.4491 32.2763 68.9715C33.372 67.974 34.8825 67.4721 36.8046 67.4721C41.0796 67.4721 43.1902 69.3357 43.1902 73.0613C43.1902 73.948 43.0683 74.7238 42.8261 75.3951M43.2583 68.0595C41.8048 66.7343 39.6531 66.0709 36.8031 66.0709C34.1114 66.0709 32.0293 66.7485 30.5616 68.1023C29.2363 69.3278 28.5745 70.9808 28.5745 73.0613C28.5745 75.1275 29.2585 76.7948 30.6265 78.0646C31.3817 78.7486 32.2621 79.2442 33.2659 79.5498C34.2697 79.8554 35.4509 80.0248 36.8031 80.0248C39.6531 80.0248 41.7969 79.3693 43.2947 78.0583C44.62 76.8613 45.2818 75.2019 45.2818 73.0787C45.2818 70.9412 44.6121 69.2739 43.271 68.0754L43.2583 68.0595ZM61.3083 75.9714C61.3083 78.6631 58.9096 79.9868 54.1136 79.9868C52.6475 79.9868 51.4125 79.8918 50.4086 79.7081C49.4048 79.5245 48.591 79.2125 47.964 78.7835C47.4849 78.4584 47.0899 78.0243 46.8113 77.5168C46.5263 77.0054 46.3411 76.3293 46.2571 75.5297L48.4738 75.5091C48.4738 76.562 48.8649 77.3379 49.6455 77.8366C50.4846 78.4351 51.9682 78.7344 54.0994 78.7344C57.4513 78.7344 59.1281 77.8952 59.1281 76.2137C59.1281 75.232 58.566 74.556 57.4418 74.187C57.2138 74.1158 55.8585 73.9274 53.3726 73.6218C50.8868 73.3162 49.3415 73.0407 48.7287 72.7985C47.4051 72.2712 46.7432 71.3259 46.7432 69.9579C46.7189 69.3415 46.8733 68.7311 47.1879 68.2005C47.5026 67.6698 47.964 67.2414 48.5166 66.967C49.1024 66.6979 49.8307 66.4873 50.7079 66.3369C51.5851 66.1865 52.6 66.112 53.7542 66.112C58.3712 66.112 60.6797 67.5608 60.6797 70.4583H58.5581C58.5581 68.4221 56.9351 67.4025 53.6893 67.4025C52.0379 67.4025 50.8076 67.6083 49.9954 68.0358C49.1831 68.4633 48.7762 69.0808 48.7762 69.9358C48.7762 70.7338 49.3241 71.3101 50.4197 71.6664C51.061 71.8516 52.5335 72.0654 54.8404 72.3076C56.9051 72.4929 58.3206 72.7557 59.0901 73.0993C60.5562 73.6693 61.3067 74.6351 61.3067 76.0031L61.3083 75.9714ZM70.0736 79.6131L69.1664 79.7398L68.5996 79.7825C67.1461 79.7825 66.0979 79.5719 65.4566 79.1492C64.8154 78.7264 64.5066 77.9902 64.5066 76.9325V67.86H61.8625V66.5253H64.4908L64.5114 62.2376H66.546V66.5253H70.0895V67.8822L66.546 67.86V76.6903C66.546 77.3474 66.7043 77.8018 67.0685 78.052C67.4326 78.3021 68.0406 78.4272 68.9368 78.4272C69.0635 78.443 69.206 78.4367 69.3643 78.4114C69.5226 78.386 69.7554 78.3322 70.0689 78.2499L70.0911 79.6115L70.0736 79.6131ZM84.1447 76.5858C83.5798 77.0466 82.9361 77.4012 82.2447 77.6324C81.5322 77.8746 80.7152 77.9965 79.7906 77.9965C75.5346 77.9965 73.4097 76.2549 73.4097 72.724C73.4097 71.0885 73.9544 69.8075 75.0406 68.8829C76.1267 67.9582 77.6626 67.4959 79.6401 67.4959C81.632 67.4959 83.1441 67.9614 84.1764 68.894C85.2087 69.8265 85.7249 71.0742 85.7249 72.6401C85.7249 74.3469 85.1976 75.6485 84.1447 76.589M87.7595 66.519H85.7249L85.7027 68.7625C84.8066 67.8521 84.1669 67.2742 83.7806 67.0335C82.6406 66.4081 81.1681 66.0946 79.3599 66.0946C76.711 66.0946 74.6891 66.6995 73.2957 67.9091C71.9721 69.0175 71.3102 70.6277 71.3102 72.7335C71.3102 73.7722 71.4781 74.7016 71.8121 75.5202C72.1462 76.3388 72.6355 77.0323 73.2767 77.6007C74.6748 78.7676 76.6492 79.3519 79.2016 79.3519C82.2669 79.3519 84.4266 78.5127 85.7249 76.8185V79.1413C85.7249 80.6217 85.2578 81.7696 84.3252 82.5803C83.3926 83.3909 81.8584 83.7994 79.7225 83.7994C77.7148 83.7994 76.2835 83.5224 75.4475 82.9698C74.8062 82.5455 74.3645 81.8076 74.1238 80.7579H72.0417C72.2697 82.2225 72.8888 83.2833 73.9006 83.9372C75.0691 84.6909 77.0419 85.0677 79.8191 85.0677C85.1327 85.0677 87.7896 83.0933 87.7896 79.1429V66.5031L87.7595 66.519ZM98.7636 67.841C98.1996 67.7456 97.6288 67.6958 97.0568 67.6922C93.7128 67.6922 92.0408 69.5257 92.0408 73.1943V79.572H90.03L90.0078 66.5205L92.0424 66.5411V68.8686H92.1485C92.4905 67.9503 93.0304 67.2536 93.7714 66.7818C94.5821 66.3068 95.7917 66.093 97.4004 66.093H98.7668V67.8395L98.7636 67.841ZM100.657 72.2205C100.914 70.7369 101.49 69.589 102.386 68.7752C102.972 68.305 103.632 67.9519 104.372 67.7144C105.111 67.4769 105.946 67.3613 106.87 67.3613C108.678 67.3613 110.154 67.8569 111.3 68.8496C112.447 69.8424 113.034 70.9649 113.034 72.2221H100.673M113.234 68.1957C112.49 67.4629 111.581 66.9193 110.583 66.6108C109.529 66.2672 108.297 66.0962 106.886 66.0962C104.25 66.0962 102.206 66.7089 100.752 67.9329C99.2988 69.1568 98.5721 70.8256 98.5721 72.9362C98.5721 75.0468 99.2687 76.7362 100.665 77.9585C102.174 79.3265 104.304 80.0105 107.054 80.0105C108.15 80.0105 109.165 79.8839 110.097 79.6385C111.03 79.393 111.845 79.0368 112.543 78.5855C113.769 77.7052 114.543 76.6222 114.871 75.3302H112.654C111.899 77.5469 110.021 78.6774 107.018 78.6774C104.896 78.6774 103.265 78.1327 102.109 77.0402C101.128 76.0902 100.637 74.8932 100.637 73.4049H115.14C115.14 71.1914 114.507 69.4545 113.196 68.1799L113.234 68.1957Z" fill="#FFD495"/>
<path d="M136.673 74.2393C136.673 78.1137 133.548 80.0501 127.3 80.0501C123.555 80.0501 120.821 79.3851 119.098 78.0472C117.673 76.95 116.985 75.2764 116.985 73.0281H119.518C119.518 76.646 122.115 78.4541 127.316 78.4541C129.808 78.4541 131.611 78.0836 132.721 77.3458C133.662 76.6919 134.146 75.6675 134.146 74.2741C134.146 72.8935 133.505 71.9261 132.223 71.3703C131.494 71.0536 129.721 70.6942 126.903 70.2382C123.356 69.6967 121.055 69.1568 120.002 68.6169C118.479 67.8205 117.716 66.4683 117.716 64.5604C117.716 62.7823 118.349 61.4571 119.66 60.5894C121.054 59.6362 123.449 59.1596 126.839 59.1596C132.967 59.1596 136.027 61.1942 136.027 65.2634H133.475C133.475 62.2155 131.2 60.6923 126.667 60.6923C124.387 60.6923 122.718 60.9995 121.663 61.6106C120.666 62.2661 120.167 63.2256 120.167 64.4955C120.167 65.8207 120.808 66.7533 122.091 67.2948C122.772 67.6083 124.783 68.0421 128.117 68.5995C131.252 69.0697 133.366 69.6176 134.45 70.2461C135.947 71.0156 136.694 72.3472 136.694 74.2425L136.673 74.2393ZM157.111 76.2185C156.163 76.9757 155.083 77.5507 153.925 77.9142C152.741 78.2911 151.416 78.4795 149.948 78.4795C146.94 78.4795 144.533 77.6878 142.687 76.057C140.841 74.4261 139.916 72.2934 139.916 69.6065C139.916 66.804 140.831 64.6237 142.663 63.0594C144.495 61.4951 146.938 60.7129 149.946 60.7129C153.012 60.7129 155.422 61.5299 157.174 63.1671C158.101 63.9635 158.785 64.9087 159.228 65.9616C159.671 67.0146 159.893 68.2416 159.893 69.6081C159.893 72.3947 158.965 74.5987 157.113 76.2201M158.451 77.539C159.762 76.6143 160.731 75.4806 161.359 74.1776C161.988 72.8745 162.301 71.3276 162.301 69.6207C162.301 66.5332 161.275 64.0569 159.223 62.1791C158.126 61.1546 156.801 60.3931 155.265 59.8959C153.729 59.3987 151.94 59.1486 149.945 59.1486C146.07 59.1486 143.029 60.0875 140.82 61.9669C138.611 63.8463 137.508 66.3923 137.508 69.6081C137.508 72.7383 138.621 75.2637 140.833 77.1843C143.045 79.1049 146.105 80.066 149.965 80.066C151.474 80.066 152.792 79.9631 153.917 79.7604C155.043 79.5577 155.996 79.2426 156.78 78.8199L160.498 81.396L162.049 79.971L158.451 77.5295V77.539ZM181.14 79.5704H163.948V59.66L166.312 59.6172V77.9047H181.163L181.141 79.5672L181.14 79.5704Z" fill="#FFD495"/>
<path d="M106.74 43.6304C107.052 41.0337 106.959 40.6537 108.894 41.0749L109.369 41.1176C110.857 41.1857 112.8 40.8801 113.945 40.3481C116.403 39.2081 117.862 37.3018 115.438 37.8021C109.905 38.9421 109.525 37.0706 109.525 37.0706C115.368 28.4035 117.806 17.4009 115.7 14.7092C109.953 7.36256 100 10.838 99.8355 10.9282L99.7832 10.9377C98.6907 10.7113 97.4668 10.5736 96.094 10.553C93.5924 10.5118 91.6924 11.2085 90.2357 12.3026C90.2357 12.3026 72.4834 4.98756 73.294 21.5017C73.4682 25.0136 78.329 48.0796 84.124 41.1129C86.2425 38.5637 88.2882 36.4104 88.2882 36.4104C89.3047 37.0865 90.5049 37.4301 91.7984 37.3066L91.8966 37.2226C91.867 37.5534 91.8803 37.8865 91.9362 38.2138C90.4431 39.8811 90.8817 40.1771 87.8987 40.7899C84.8793 41.4121 86.6526 42.5205 87.8116 42.8102C89.216 43.1617 92.4666 43.6589 94.6595 40.5856L94.5724 40.9371C95.1583 41.4058 95.1187 44.3049 95.201 46.3759C95.2834 48.4469 95.4227 50.3817 95.8454 51.5217C96.2682 52.6617 96.7638 55.5972 100.69 54.7565C103.968 54.0535 106.476 53.0433 106.704 43.6367" fill="#1616A6"/>
<path d="M106.74 43.6304C107.052 41.0337 106.959 40.6537 108.894 41.0749L109.369 41.1176C110.857 41.1857 112.8 40.8801 113.945 40.3481C116.403 39.2081 117.862 37.3018 115.438 37.8021C109.905 38.9421 109.525 37.0706 109.525 37.0706C115.368 28.4035 117.806 17.4009 115.7 14.7092C109.953 7.36256 100 10.838 99.8355 10.9282L99.7832 10.9377C98.6907 10.7113 97.4668 10.5736 96.094 10.553C93.5924 10.5118 91.6924 11.2085 90.2357 12.3026C90.2357 12.3026 72.4834 4.98756 73.294 21.5017C73.4682 25.0136 78.329 48.0796 84.124 41.1129C86.2425 38.5637 88.2882 36.4104 88.2882 36.4104C89.3047 37.0865 90.5049 37.4301 91.7984 37.3066L91.8966 37.2226C91.867 37.5534 91.8803 37.8865 91.9362 38.2138C90.4431 39.8811 90.8817 40.1771 87.8987 40.7899C84.8793 41.4121 86.6526 42.5205 87.8116 42.8102C89.216 43.1617 92.4666 43.6589 94.6595 40.5856L94.5724 40.9371C95.1583 41.4058 95.1187 44.3049 95.201 46.3759C95.2834 48.4469 95.4227 50.3817 95.8454 51.5217C96.2682 52.6617 96.7638 55.5972 100.69 54.7565C103.968 54.0535 106.476 53.0433 106.704 43.6367" stroke="#1616A6" stroke-width="2.598"/>
<path d="M115.45 37.8021C109.918 38.9421 109.538 37.0706 109.538 37.0706C115.381 28.4035 117.819 17.4009 115.713 14.7076C109.966 7.36097 100.013 10.8364 99.8483 10.9266L99.7944 10.9361C98.7019 10.7097 97.478 10.572 96.1053 10.5514C93.6036 10.5102 91.7036 11.2069 90.2469 12.301C90.2469 12.301 72.4946 4.98597 73.3053 21.5001C73.4794 25.0151 78.3403 48.078 84.1353 41.1113C86.2538 38.5621 88.2994 36.4088 88.2994 36.4088C89.3159 37.0849 90.5319 37.4285 91.8081 37.305L91.9078 37.2211C91.8762 37.5377 91.892 37.8465 91.9474 38.2122C90.4543 39.8795 90.8929 40.1756 87.9099 40.7883C84.8905 41.4106 86.6638 42.5189 87.8228 42.8086C89.2273 43.1601 92.4778 43.6573 94.6708 40.5841L94.5837 40.9356C95.1695 41.4042 95.5812 43.9835 95.5099 46.3189C95.4387 48.6543 95.3959 50.2614 95.8583 51.5154C96.3206 52.7694 96.7766 55.5909 100.703 54.7501C103.981 54.0471 105.681 52.2263 105.917 49.1895C106.085 47.0298 106.465 47.3496 106.487 45.4211L106.791 44.5076C107.143 41.5784 106.847 40.6363 108.865 41.0765L109.34 41.1192C110.829 41.1873 112.773 40.8817 113.916 40.3497C116.375 39.2097 117.833 37.3034 115.409 37.8037L115.45 37.8021Z" fill="#00008B"/>
<path d="M94.9366 39.4805C94.7846 44.9271 94.9746 50.4102 95.5066 51.7434C96.0386 53.0765 97.1802 55.67 101.105 54.8277C104.383 54.1247 105.577 52.7646 106.093 49.761L107.304 40.1613M90.2499 12.179C90.2499 12.179 72.4849 4.91787 73.3083 21.4289C73.4666 24.9439 78.3433 48.0083 84.1383 41.0416C86.2568 38.5083 88.171 36.4975 88.171 36.4975M99.8291 10.8538C99.1958 11.047 109.709 7.01737 115.675 14.6538C117.781 17.3455 115.358 28.3496 109.5 37.0168" stroke="#FFD495" stroke-width="0.866" stroke-linecap="round" stroke-linejoin="round"/>
<path d="M109.499 37.0025C109.499 37.0025 109.879 38.8756 115.412 37.734C117.835 37.2337 116.362 39.1385 113.919 40.28C111.902 41.2142 107.38 41.4565 107.304 40.1629C107.114 36.822 109.685 37.8385 109.499 37.0025ZM109.499 37.0025C109.331 36.2489 108.181 35.5095 107.421 33.6665C106.756 32.0562 98.3171 19.7141 109.765 21.5476C110.184 21.4605 106.778 10.659 96.0656 10.4833C85.3528 10.3075 85.7074 23.6566 85.7074 23.6566" stroke="#FFD495" stroke-width="0.866" stroke-linecap="round" stroke-linejoin="bevel"/>
<path d="M91.9378 38.1426C90.4447 39.8098 90.8833 40.1059 87.9003 40.7186C84.8809 41.3409 86.6542 42.4492 87.8132 42.739C89.2176 43.0905 92.4682 43.5876 94.6611 40.5144C95.3293 39.5802 94.6579 38.0856 93.7396 37.704C93.2963 37.5203 92.7025 37.2923 91.9409 38.1426H91.9378Z" stroke="#FFD495" stroke-width="0.866" stroke-linejoin="round"/>
<path d="M91.8395 38.1141C91.6891 37.1324 92.1625 35.9671 92.6676 34.5991C93.4276 32.5502 95.2009 30.5014 93.7807 24.0034C92.7357 19.1616 85.7088 22.9948 85.7057 23.6519C85.7025 24.309 86.0223 26.9801 85.5885 30.0913C85.0185 34.151 88.1693 37.5852 91.7999 37.2322" stroke="#FFD495" stroke-width="0.866" stroke-linecap="round" stroke-linejoin="round"/>
<path d="M90.1676 23.5552C90.1359 23.7801 90.5793 24.3786 91.154 24.4577C91.7288 24.5369 92.2228 24.0698 92.2529 23.8466C92.2829 23.6233 91.8412 23.3747 91.2649 23.2924C90.6885 23.2101 90.1961 23.3288 90.166 23.5536L90.1676 23.5552Z" fill="#FFD495" stroke="#FFD495" stroke-width="0.289"/>
<path d="M107.701 23.0977C107.733 23.3225 107.29 23.921 106.715 24.0002C106.14 24.0794 105.646 23.6123 105.615 23.389C105.583 23.1658 106.026 22.9172 106.603 22.838C107.179 22.7589 107.671 22.8744 107.703 23.0993L107.701 23.0977Z" fill="#FFD495" stroke="#FFD495" stroke-width="0.144"/>
<path d="M109.762 21.546C109.857 23.3035 109.382 24.5037 109.323 26.3752C109.234 29.0985 110.621 32.2129 108.531 35.3321" stroke="#FFD495" stroke-width="0.866" stroke-linecap="round" stroke-linejoin="round"/>
</svg>
