<svg width="144" height="128" viewBox="0 0 144 128" fill="none" xmlns="http://www.w3.org/2000/svg">
<g clip-path="url(#clip0_268_353)">
<path d="M71.933 76.8228C79.0148 76.8228 84.7558 71.0818 84.7558 64C84.7558 56.9181 79.0148 51.1771 71.933 51.1771C64.8511 51.1771 59.1101 56.9181 59.1101 64C59.1101 71.0818 64.8511 76.8228 71.933 76.8228Z" fill="#FFD495"/>
<path d="M71.8028 89.994C109.803 89.994 140.608 78.232 140.608 63.7228C140.608 49.2137 109.803 37.4517 71.8028 37.4517C33.8026 37.4517 2.99731 49.2137 2.99731 63.7228C2.99731 78.232 33.8026 89.994 71.8028 89.994Z" stroke="#FFD495" stroke-width="6"/>
<path d="M49.0513 76.8585C68.0514 109.768 93.6403 130.565 106.206 123.31C118.771 116.056 113.554 83.4965 94.5544 50.5873C75.5542 17.6781 49.9654 -3.11899 37.4001 4.1356C24.8348 11.3902 30.0512 43.9493 49.0513 76.8585Z" stroke="#FFD495" stroke-width="6"/>
<path d="M49.0512 50.5873C30.0511 83.4965 24.8347 116.056 37.4 123.31C49.9653 130.565 75.5542 109.768 94.5543 76.8585C113.554 43.9493 118.771 11.3902 106.206 4.13558C93.6402 -3.119 68.0513 17.6781 49.0512 50.5873Z" stroke="#FFD495" stroke-width="6"/>
</g>
<defs>
<clipPath id="clip0_268_353">
<rect width="143.866" height="128" fill="white"/>
</clipPath>
</defs>
</svg>
