<svg width="135" height="83" viewBox="0 0 135 83" fill="none" xmlns="http://www.w3.org/2000/svg">
<mask id="mask0_291_2" style="mask-type:luminance" maskUnits="userSpaceOnUse" x="0" y="0" width="135" height="82">
<path d="M0 0H135V81.4909H0V0Z" fill="white"/>
</mask>
<g mask="url(#mask0_291_2)">
<path fill-rule="evenodd" clip-rule="evenodd" d="M67.5 0C49.5 0 38.25 9.05455 33.75 27.1636C40.5 18.1091 48.375 14.7136 57.375 16.9773C62.51 18.2676 66.18 22.0176 70.2425 26.1651C76.86 32.9233 84.52 40.7455 101.25 40.7455C119.25 40.7455 130.5 31.6909 135 13.5818C128.25 22.6364 120.375 26.0318 111.375 23.7682C106.24 22.4779 102.57 18.7278 98.5075 14.5803C91.89 7.82212 84.23 0 67.5 0ZM33.75 40.7455C15.75 40.7455 4.5 49.8 0 67.9091C6.75 58.8546 14.625 55.4591 23.625 57.7228C28.76 59.0155 32.43 62.7631 36.4925 66.9106C43.11 73.6688 50.77 81.4909 67.5 81.4909C85.5 81.4909 96.75 72.4364 101.25 54.3273C94.5 63.3818 86.625 66.7773 77.625 64.5137C72.49 63.2234 68.82 59.4733 64.7575 55.3258C58.14 48.5676 50.48 40.7455 33.75 40.7455Z" fill="#FFD495"/>
</g>
</svg>
